<svg width="30" height="30" viewBox="0 0 30 30" fill="none" xmlns="http://www.w3.org/2000/svg">
<rect width="30" height="30" rx="5" fill="#EF682E"/>
<path d="M9.6 7.19996L8.3 8.93329C8.04251 9.27661 7.91377 9.44827 7.91676 9.59195C7.91936 9.71699 7.97799 9.83425 8.07646 9.91136C8.18962 9.99996 8.40419 9.99996 8.83333 9.99996H21.1667C21.5958 9.99996 21.8104 9.99996 21.9235 9.91136C22.022 9.83425 22.0806 9.71699 22.0832 9.59195C22.0862 9.44827 21.9575 9.27661 21.7 8.93329L20.4 7.19996M9.6 7.19996C9.74667 7.0044 9.82 6.90663 9.91294 6.83611C9.99525 6.77365 10.0885 6.72704 10.1878 6.69866C10.3 6.66663 10.4222 6.66663 10.6667 6.66663H19.3333C19.5778 6.66663 19.7 6.66663 19.8122 6.69866C19.9115 6.72704 20.0047 6.77365 20.0871 6.83611C20.18 6.90663 20.2533 7.0044 20.4 7.19996M9.6 7.19996L8.03333 9.28885C7.83545 9.55269 7.73651 9.68461 7.66625 9.82989C7.6039 9.95881 7.55843 10.0952 7.53096 10.2358C7.5 10.3941 7.5 10.559 7.5 10.8888L7.5 20.6666C7.5 21.6 7.5 22.0668 7.68166 22.4233C7.84144 22.7369 8.09641 22.9918 8.41002 23.1516C8.76654 23.3333 9.23325 23.3333 10.1667 23.3333L19.8333 23.3333C20.7668 23.3333 21.2335 23.3333 21.59 23.1516C21.9036 22.9918 22.1586 22.7369 22.3183 22.4233C22.5 22.0668 22.5 21.6 22.5 20.6666V10.8888C22.5 10.559 22.5 10.3941 22.469 10.2358C22.4416 10.0952 22.3961 9.95881 22.3338 9.8299C22.2635 9.68462 22.1646 9.55269 21.9667 9.28885L20.4 7.19996M18.3333 13.3333C18.3333 14.2173 17.9821 15.0652 17.357 15.6903C16.7319 16.3154 15.8841 16.6666 15 16.6666C14.1159 16.6666 13.2681 16.3154 12.643 15.6903C12.0179 15.0652 11.6667 14.2173 11.6667 13.3333" stroke="white" stroke-linecap="round" stroke-linejoin="round"/>
</svg>
