<svg width="128" height="43" viewBox="0 0 128 43" fill="none" xmlns="http://www.w3.org/2000/svg">
<mask id="mask0_13_2" style="mask-type:luminance" maskUnits="userSpaceOnUse" x="0" y="0" width="128" height="43">
<path d="M128 0H0V42.9474H128V0Z" fill="white"/>
</mask>
<g mask="url(#mask0_13_2)">
<path d="M0 5.72632C0 2.56376 2.547 0 5.689 0H122.311C125.453 0 128 2.56376 128 5.72632V37.2211C128 40.3838 125.453 42.9474 122.311 42.9474H5.689C2.547 42.9474 0 40.3838 0 37.2211V5.72632Z" fill="#101010"/>
<path d="M40.3569 9.48389V15.0316H42.2099C43.8479 15.0316 44.8109 14.0051 44.8109 12.2558C44.8109 10.5104 43.8449 9.48389 42.2099 9.48389H40.3569ZM41.0449 10.1067H42.1639C43.4169 10.1067 44.1079 10.8756 44.1079 12.2635C44.1079 13.6399 43.4129 14.4088 42.1639 14.4088H41.0449V10.1067ZM47.2099 15.1008C48.3059 15.1008 49.0469 14.305 49.0469 13.0324C49.0469 11.756 48.3059 10.9641 47.2099 10.9641C46.1089 10.9641 45.3689 11.756 45.3689 13.0324C45.3689 14.305 46.1089 15.1008 47.2099 15.1008ZM47.2099 14.5126C46.5069 14.5126 46.0449 13.9743 46.0449 13.0324C46.0449 12.0905 46.5069 11.5523 47.2099 11.5523C47.9119 11.5523 48.3709 12.0905 48.3709 13.0324C48.3709 13.9743 47.9119 14.5126 47.2099 14.5126ZM54.7719 11.0332H54.1149L53.3209 14.2858H53.3049L52.4039 11.0332H51.7619L50.8649 14.2858H50.8489L50.0549 11.0332H49.3939L50.5059 15.0316H51.1819L52.0749 11.9367H52.0909L52.9879 15.0316H53.6639L54.7719 11.0332ZM55.3179 15.0316H55.9829V12.6787C55.9829 12.0021 56.3909 11.5561 57.0179 11.5561C57.6289 11.5561 57.9309 11.9098 57.9309 12.5557V15.0316H58.5949V12.4365C58.5949 11.5292 58.0909 10.9641 57.2199 10.9641C56.6049 10.9641 56.1809 11.2409 55.9599 11.6714H55.9449V11.0332H55.3179V15.0316ZM59.4779 15.0316H60.1419V9.48389H59.4779V15.0316ZM62.6859 15.1008C63.7819 15.1008 64.5229 14.305 64.5229 13.0324C64.5229 11.756 63.7819 10.9641 62.6859 10.9641C61.5859 10.9641 60.8449 11.756 60.8449 13.0324C60.8449 14.305 61.5859 15.1008 62.6859 15.1008ZM62.6859 14.5126C61.9829 14.5126 61.5209 13.9743 61.5209 13.0324C61.5209 12.0905 61.9829 11.5523 62.6859 11.5523C63.3889 11.5523 63.8469 12.0905 63.8469 13.0324C63.8469 13.9743 63.3889 14.5126 62.6859 14.5126ZM66.5049 14.5318C66.0279 14.5318 65.7109 14.2819 65.7109 13.9013C65.7109 13.5245 66.0159 13.2862 66.5509 13.2516L67.6129 13.1862V13.513C67.6129 14.0897 67.1319 14.5318 66.5049 14.5318ZM66.3559 15.1008C66.8909 15.1008 67.3949 14.8009 67.6319 14.3434H67.6469V15.0316H68.2779V12.2674C68.2779 11.4715 67.6889 10.9641 66.7569 10.9641C65.8179 10.9641 65.2299 11.4946 65.1839 12.1866H65.8249C65.9089 11.7945 66.2299 11.5523 66.7419 11.5523C67.2919 11.5523 67.6129 11.8444 67.6129 12.3327V12.6672L66.4749 12.7326C65.5579 12.7864 65.0349 13.217 65.0349 13.9013C65.0349 14.6202 65.5659 15.1008 66.3559 15.1008ZM70.6269 15.1008C71.1989 15.1008 71.6539 14.8163 71.9099 14.355H71.9209V15.0316H72.5549V9.48389H71.8909V11.683H71.8749C71.6389 11.2447 71.1799 10.9641 70.6109 10.9641C69.6109 10.9641 68.9269 11.7791 68.9269 13.0324C68.9269 14.2858 69.6139 15.1008 70.6269 15.1008ZM70.7529 11.5523C71.4359 11.5523 71.8949 12.1405 71.8949 13.0324C71.8949 13.9282 71.4359 14.5126 70.7529 14.5126C70.0499 14.5126 69.6069 13.9397 69.6069 13.0324C69.6069 12.1289 70.0499 11.5523 70.7529 11.5523ZM76.7029 15.1008C77.7999 15.1008 78.5409 14.305 78.5409 13.0324C78.5409 11.756 77.7999 10.9641 76.7029 10.9641C75.6029 10.9641 74.8619 11.756 74.8619 13.0324C74.8619 14.305 75.6029 15.1008 76.7029 15.1008ZM76.7029 14.5126C75.9999 14.5126 75.5379 13.9743 75.5379 13.0324C75.5379 12.0905 75.9999 11.5523 76.7029 11.5523C77.4059 11.5523 77.8639 12.0905 77.8639 13.0324C77.8639 13.9743 77.4059 14.5126 76.7029 14.5126ZM79.2129 15.0316H79.8769V12.6787C79.8769 12.0021 80.2859 11.5561 80.9119 11.5561C81.5229 11.5561 81.8249 11.9098 81.8249 12.5557V15.0316H82.4899V12.4365C82.4899 11.5292 81.9859 10.9641 81.1149 10.9641C80.4999 10.9641 80.0759 11.2409 79.8539 11.6714H79.8389V11.0332H79.2129V15.0316ZM85.1559 10.0683V11.0332H84.5639V11.583H85.1559V13.9936C85.1559 14.7625 85.4379 15.0623 86.1679 15.0623C86.3239 15.0623 86.5079 15.0508 86.5879 15.0316V14.4703C86.5419 14.478 86.3889 14.4895 86.3129 14.4895C85.9729 14.4895 85.8199 14.3242 85.8199 13.959V11.583H86.5919V11.0332H85.8199V10.0683H85.1559ZM87.3369 15.0316H88.0009V12.7018C88.0009 12.0098 88.4099 11.5561 89.0709 11.5561C89.6929 11.5561 90.0099 11.9367 90.0099 12.5711V15.0316H90.6749V12.448C90.6749 11.5561 90.1479 10.9641 89.2769 10.9641C88.6739 10.9641 88.2379 11.2255 88.0159 11.6714H88.0009V9.48389H87.3369V15.0316ZM93.1119 11.5446C93.7379 11.5446 94.1539 12.0213 94.1699 12.6903H92.0119C92.0529 12.0251 92.4889 11.5446 93.1119 11.5446ZM94.1539 13.8859C94.0429 14.2627 93.6729 14.5203 93.1689 14.5203C92.4549 14.5203 92.0079 14.0167 92.0079 13.2516V13.2131H94.8569V12.9594C94.8569 11.7484 94.1959 10.9641 93.1229 10.9641C92.0269 10.9641 91.3239 11.806 91.3239 13.0478C91.3239 14.305 92.0149 15.1008 93.1539 15.1008C94.0209 15.1008 94.6929 14.5856 94.8079 13.8859H94.1539Z" fill="white"/>
<path d="M48.523 32.2106H50.415L46.255 20.6108H44.322L40.161 32.2106H42.022L43.076 29.0755H47.468L48.523 32.2106ZM45.248 22.5401H45.296L47.013 27.6285H43.531L45.248 22.5401ZM56.181 23.6172C54.967 23.6172 54.001 24.2362 53.506 25.2089H53.474V23.7539H51.805V35.008H53.53V30.8199H53.569C54.049 31.7604 55.007 32.3552 56.213 32.3552C58.321 32.3552 59.719 30.6591 59.719 27.9822C59.719 25.3054 58.313 23.6172 56.181 23.6172ZM55.726 30.8842C54.4 30.8842 53.522 29.7427 53.522 27.9822C53.522 26.2378 54.408 25.0802 55.726 25.0802C57.091 25.0802 57.946 26.2137 57.946 27.9822C57.946 29.7588 57.091 30.8842 55.726 30.8842ZM65.756 23.6172C64.542 23.6172 63.576 24.2362 63.081 25.2089H63.049V23.7539H61.38V35.008H63.105V30.8199H63.145C63.624 31.7604 64.582 32.3552 65.788 32.3552C67.896 32.3552 69.294 30.6591 69.294 27.9822C69.294 25.3054 67.888 23.6172 65.756 23.6172ZM65.301 30.8842C63.975 30.8842 63.097 29.7427 63.097 27.9822C63.097 26.2378 63.983 25.0802 65.301 25.0802C66.666 25.0802 67.521 26.2137 67.521 27.9822C67.521 29.7588 66.666 30.8842 65.301 30.8842ZM74.3 28.979C74.412 31.0771 76.137 32.4035 78.693 32.4035C81.424 32.4035 83.141 31.045 83.141 28.8745C83.141 27.1784 82.159 26.2218 79.795 25.659L78.525 25.3456C77.04 24.9758 76.433 24.4934 76.433 23.6735C76.433 22.6446 77.383 21.9371 78.773 21.9371C80.162 21.9371 81.113 22.6365 81.217 23.7941H82.957C82.901 21.7924 81.233 20.4178 78.797 20.4178C76.337 20.4178 74.604 21.7924 74.604 23.7941C74.604 25.4098 75.586 26.4066 77.703 26.9211L79.196 27.2828C80.689 27.6526 81.32 28.1912 81.32 29.0916C81.32 30.1285 80.274 30.8842 78.821 30.8842C77.303 30.8842 76.193 30.1285 76.066 28.979H74.3ZM85.369 21.7523V23.7539H84.147V25.1285H85.369V29.9838C85.369 31.6157 86.032 32.2668 87.733 32.2668C88.116 32.2668 88.499 32.2347 88.691 32.1864V30.8118C88.579 30.8359 88.3 30.852 88.124 30.852C87.421 30.852 87.102 30.5224 87.102 29.7909V25.1285H88.699V23.7539H87.102V21.7523H85.369ZM93.85 32.3713C96.254 32.3713 97.835 30.7073 97.835 27.9822C97.835 25.2652 96.246 23.6011 93.85 23.6011C91.454 23.6011 89.865 25.2652 89.865 27.9822C89.865 30.7073 91.446 32.3713 93.85 32.3713ZM93.85 30.9405C92.5 30.9405 91.622 29.8633 91.622 27.9822C91.622 26.1092 92.5 25.032 93.85 25.032C95.199 25.032 96.078 26.1092 96.078 27.9822C96.078 29.8633 95.208 30.9405 93.85 30.9405ZM99.496 32.2106H101.221V27.1462C101.221 25.9484 101.907 25.2009 103.018 25.2009C103.353 25.2009 103.656 25.2411 103.792 25.2973V23.6815C103.665 23.6574 103.449 23.6172 103.201 23.6172C102.211 23.6172 101.46 24.2041 101.181 25.1928H101.141V23.7539H99.496V32.2106ZM108.336 24.9999C109.542 24.9999 110.356 25.9082 110.397 27.2025H106.196C106.284 25.9243 107.13 24.9999 108.336 24.9999ZM110.388 29.7266C110.157 30.4662 109.43 30.9646 108.448 30.9646C107.066 30.9646 106.188 29.9919 106.188 28.5208V28.4163H112.121V27.8214C112.121 25.2571 110.668 23.6011 108.336 23.6011C105.964 23.6011 104.447 25.3696 104.447 28.0224C104.447 30.6913 105.94 32.3713 108.408 32.3713C110.333 32.3713 111.786 31.27 112.026 29.7266H110.388Z" fill="white"/>
<path d="M30.13 28.0861C29.747 28.9762 29.294 29.7955 28.769 30.5488C28.053 31.5757 27.466 32.2866 27.015 32.6813C26.314 33.3292 25.564 33.661 24.76 33.6799C24.183 33.6799 23.488 33.5148 22.678 33.1798C21.865 32.8464 21.119 32.6813 20.436 32.6813C19.72 32.6813 18.952 32.8464 18.131 33.1798C17.308 33.5148 16.645 33.6893 16.139 33.7066C15.368 33.7397 14.6 33.3984 13.833 32.6813C13.344 32.252 12.732 31.516 11.999 30.4733C11.212 29.3599 10.565 28.0688 10.059 26.5968C9.51602 25.0069 9.24402 23.4673 9.24402 21.9768C9.24402 20.2694 9.61101 18.7968 10.346 17.5627C10.923 16.5715 11.691 15.7896 12.652 15.2156C13.614 14.6416 14.652 14.3491 15.771 14.3303C16.383 14.3303 17.185 14.5208 18.183 14.8951C19.177 15.2706 19.816 15.4611 20.096 15.4611C20.305 15.4611 21.015 15.2384 22.218 14.7944C23.355 14.3827 24.315 14.2122 25.101 14.2794C27.232 14.4524 28.833 15.2974 29.897 16.8196C27.992 17.9812 27.049 19.6081 27.068 21.6951C27.085 23.3207 27.671 24.6735 28.823 25.7476C29.346 26.2461 29.929 26.6314 30.577 26.905C30.437 27.3155 30.288 27.7087 30.13 28.0861ZM25.243 8.74126C25.243 10.0154 24.781 11.2051 23.858 12.3062C22.745 13.6153 21.399 14.3717 19.939 14.2524C19.92 14.0995 19.909 13.9386 19.909 13.7696C19.909 12.5464 20.439 11.2373 21.379 10.167C21.848 9.62507 22.445 9.17447 23.169 8.81501C23.891 8.46092 24.574 8.2651 25.217 8.23157C25.236 8.4019 25.243 8.57226 25.243 8.74126Z" fill="white"/>
</g>
</svg>
