<svg width="16" height="16" viewBox="0 0 16 16" fill="none" xmlns="http://www.w3.org/2000/svg">
<mask id="mask0_113_7" style="mask-type:luminance" maskUnits="userSpaceOnUse" x="0" y="0" width="16" height="16">
<path d="M16 0H0V16H16V0Z" fill="white"/>
</mask>
<g mask="url(#mask0_113_7)">
<path d="M14.6669 7.39096V8.00095C14.666 9.44095 14.2005 10.8409 13.3397 11.9909C12.479 13.1409 11.269 13.991 9.89035 14.391C8.51175 14.801 7.03835 14.7509 5.68975 14.2509C4.34125 13.7609 3.18985 12.831 2.40745 11.631C1.62495 10.421 1.25335 9.001 1.34795 7.561C1.44255 6.131 1.99825 4.76099 2.93235 3.67099C3.86635 2.58099 5.12865 1.81095 6.53095 1.50095C7.93315 1.18095 9.40035 1.33098 10.7135 1.91098M14.6668 2.67099L8.00015 9.34091L6.00015 7.34091" stroke="#609E45" stroke-width="1.5" stroke-linecap="round" stroke-linejoin="round"/>
</g>
</svg>
