<svg width="50" height="50" viewBox="0 0 50 50" fill="none" xmlns="http://www.w3.org/2000/svg">
<rect opacity="0.2" width="50" height="50" rx="5" fill="white"/>
<path d="M27.0497 19C28.0264 19.1906 28.924 19.6683 29.6277 20.3719C30.3314 21.0756 30.8091 21.9733 30.9997 22.95M27.0497 15C29.0789 15.2254 30.9713 16.1342 32.4159 17.577C33.8606 19.0198 34.7717 20.911 34.9997 22.94M23.2266 26.8631C22.0251 25.6615 21.0763 24.3028 20.3803 22.8532C20.3204 22.7285 20.2905 22.6662 20.2675 22.5873C20.1858 22.3069 20.2445 21.9627 20.4145 21.7253C20.4623 21.6584 20.5195 21.6013 20.6338 21.487C20.9834 21.1374 21.1582 20.9626 21.2725 20.7868C21.7035 20.1239 21.7035 19.2693 21.2725 18.6064C21.1582 18.4307 20.9834 18.2559 20.6338 17.9062L20.4389 17.7114C19.9075 17.1799 19.6417 16.9142 19.3564 16.7699C18.7888 16.4828 18.1185 16.4828 17.551 16.7699C17.2656 16.9142 16.9999 17.1799 16.4684 17.7114L16.3108 17.869C15.7812 18.3986 15.5164 18.6634 15.3141 19.0235C15.0897 19.423 14.9283 20.0435 14.9297 20.5017C14.9309 20.9146 15.011 21.1969 15.1712 21.7613C16.0322 24.7947 17.6567 27.6571 20.0447 30.045C22.4326 32.433 25.295 34.0575 28.3284 34.9185C28.8928 35.0787 29.1751 35.1588 29.588 35.16C30.0462 35.1614 30.6667 35 31.0662 34.7756C31.4263 34.5733 31.6911 34.3085 32.2207 33.7789L32.3783 33.6213C32.9098 33.0898 33.1755 32.8241 33.3198 32.5387C33.6069 31.9712 33.6069 31.3009 33.3198 30.7333C33.1755 30.448 32.9098 30.1822 32.3783 29.6508L32.1835 29.4559C31.8339 29.1063 31.6591 28.9315 31.4833 28.8172C30.8204 28.3862 29.9658 28.3862 29.3029 28.8172C29.1271 28.9315 28.9523 29.1063 28.6027 29.4559C28.4884 29.5702 28.4313 29.6274 28.3644 29.6752C28.127 29.8453 27.7828 29.904 27.5024 29.8222C27.4235 29.7992 27.3612 29.7693 27.2365 29.7094C25.7869 29.0134 24.4282 28.0646 23.2266 26.8631Z" stroke="white" stroke-width="2" stroke-linecap="round" stroke-linejoin="round"/>
</svg>
