<svg width="49" height="49" viewBox="0 0 49 49" fill="none" xmlns="http://www.w3.org/2000/svg">
<circle opacity="0.1" cx="24.5" cy="24.5" r="24.5" fill="#EF682E"/>
<path d="M26.7084 18.9998C27.5223 19.1586 28.2704 19.5567 28.8568 20.1431C29.4432 20.7295 29.8412 21.4776 30 22.2915M26.7084 15.6665C28.3994 15.8544 29.9764 16.6116 31.1802 17.814C32.3841 19.0164 33.1434 20.5923 33.3334 22.2832M23.5225 25.5524C22.5212 24.5511 21.7306 23.4189 21.1506 22.2109C21.1007 22.107 21.0757 22.055 21.0566 21.9893C20.9885 21.7556 21.0374 21.4687 21.179 21.2709C21.2189 21.2152 21.2665 21.1676 21.3618 21.0723C21.6531 20.781 21.7988 20.6353 21.8941 20.4888C22.2532 19.9364 22.2532 19.2243 21.8941 18.6719C21.7988 18.5254 21.6531 18.3797 21.3618 18.0884L21.1994 17.926C20.7565 17.4831 20.5351 17.2617 20.2973 17.1414C19.8243 16.9022 19.2658 16.9022 18.7928 17.1414C18.555 17.2617 18.3336 17.4831 17.8907 17.926L17.7593 18.0573C17.318 18.4987 17.0973 18.7194 16.9288 19.0194C16.7417 19.3523 16.6073 19.8694 16.6084 20.2513C16.6094 20.5954 16.6762 20.8306 16.8097 21.3009C17.5272 23.8288 18.8809 26.2141 20.8709 28.204C22.8609 30.194 25.2462 31.5478 27.774 32.2652C28.2444 32.3987 28.4795 32.4655 28.8237 32.4665C29.2055 32.4677 29.7226 32.3332 30.0555 32.1462C30.3555 31.9776 30.5762 31.757 31.0176 31.3156L31.1489 31.1842C31.5918 30.7414 31.8132 30.5199 31.9335 30.2821C32.1728 29.8091 32.1728 29.2506 31.9335 28.7776C31.8132 28.5398 31.5918 28.3184 31.1489 27.8755L30.9865 27.7131C30.6952 27.4218 30.5495 27.2761 30.4031 27.1809C29.8506 26.8217 29.1385 26.8217 28.5861 27.1809C28.4396 27.2761 28.2939 27.4218 28.0026 27.7131C27.9073 27.8084 27.8597 27.856 27.804 27.8959C27.6062 28.0375 27.3193 28.0865 27.0857 28.0184C27.0199 27.9992 26.968 27.9743 26.8641 27.9244C25.656 27.3444 24.5238 26.5537 23.5225 25.5524Z" stroke="#EF682E" stroke-linecap="round" stroke-linejoin="round"/>
</svg>
