<svg width="40" height="40" viewBox="0 0 40 40" fill="none" xmlns="http://www.w3.org/2000/svg">
<circle opacity="0.1" cx="20" cy="20" r="20" fill="#EF682E"/>
<path d="M14.06 11.4202L12.63 13.3268C12.3468 13.7045 12.2051 13.8933 12.2084 14.0514C12.2113 14.1889 12.2758 14.3179 12.3841 14.4027C12.5086 14.5002 12.7446 14.5002 13.2167 14.5002H26.7833C27.2554 14.5002 27.4914 14.5002 27.6159 14.4027C27.7242 14.3179 27.7887 14.1889 27.7916 14.0514C27.7949 13.8933 27.6532 13.7045 27.37 13.3268L25.94 11.4202M14.06 11.4202C14.2213 11.2051 14.302 11.0975 14.4042 11.0199C14.4948 10.9512 14.5973 10.9 14.7066 10.8687C14.83 10.8335 14.9644 10.8335 15.2333 10.8335H24.7667C25.0356 10.8335 25.17 10.8335 25.2934 10.8687C25.4027 10.9 25.5052 10.9512 25.5958 11.0199C25.698 11.0975 25.7787 11.2051 25.94 11.4202M14.06 11.4202L12.3367 13.7179C12.119 14.0082 12.0102 14.1533 11.9329 14.3131C11.8643 14.4549 11.8143 14.6049 11.7841 14.7595C11.75 14.9338 11.75 15.1152 11.75 15.4779L11.75 26.2335C11.75 27.2603 11.75 27.7736 11.9498 28.1658C12.1256 28.5108 12.4061 28.7912 12.751 28.967C13.1432 29.1668 13.6566 29.1668 14.6833 29.1668L25.3167 29.1668C26.3434 29.1668 26.8568 29.1668 27.249 28.967C27.5939 28.7912 27.8744 28.5108 28.0502 28.1658C28.25 27.7736 28.25 27.2603 28.25 26.2335V15.4779C28.25 15.1152 28.25 14.9338 28.2159 14.7595C28.1857 14.605 28.1357 14.4549 28.0671 14.3131C27.9898 14.1533 27.881 14.0082 27.6633 13.7179L25.94 11.4202M23.6667 18.1668C23.6667 19.1393 23.2804 20.0719 22.5927 20.7596C21.9051 21.4472 20.9725 21.8335 20 21.8335C19.0275 21.8335 18.0949 21.4472 17.4073 20.7596C16.7196 20.0719 16.3333 19.1393 16.3333 18.1668" stroke="#EF682E" stroke-linecap="round" stroke-linejoin="round"/>
</svg>
