<svg width="22" height="22" viewBox="0 0 22 22" fill="none" xmlns="http://www.w3.org/2000/svg">
<circle opacity="0.2" cx="11" cy="11" r="11" fill="#609E45"/>
<g clip-path="url(#clip0_1_1504)">
<path d="M17.6663 10.3904V11.0037C17.6655 12.4413 17.2 13.8402 16.3392 14.9916C15.4785 16.1431 14.2685 16.9854 12.8899 17.393C11.5113 17.8006 10.0378 17.7517 8.68932 17.2535C7.3408 16.7552 6.18944 15.8345 5.40698 14.6284C4.62452 13.4224 4.25287 11.9958 4.34746 10.5613C4.44205 9.12678 4.99781 7.76129 5.93186 6.66845C6.86591 5.57561 8.1282 4.81399 9.53047 4.49717C10.9327 4.18034 12.3999 4.32529 13.713 4.9104M17.6663 5.66659L10.9997 12.3399L8.99967 10.3399" stroke="#609E45" stroke-linecap="round" stroke-linejoin="round"/>
</g>
<defs>
<clipPath id="clip0_1_1504">
<rect width="16" height="16" fill="white" transform="translate(3 3)"/>
</clipPath>
</defs>
</svg>
