<svg width="64" height="64" viewBox="0 0 64 64" fill="none" xmlns="http://www.w3.org/2000/svg">
<circle cx="32" cy="32" r="32" fill="#EF682E" fill-opacity="0.2"/>
<circle cx="32" cy="32" r="27" fill="#EF682E"/>
<path d="M40.25 37.5V35.75C40.25 34.7835 39.4665 34 38.5 34C37.5335 34 36.75 34.7835 36.75 35.75V37.5M42 30H22M42 31V28.2C42 27.0799 42 26.5198 41.782 26.092C41.5903 25.7157 41.2843 25.4097 40.908 25.218C40.4802 25 39.9201 25 38.8 25H25.2C24.0799 25 23.5198 25 23.092 25.218C22.7157 25.4097 22.4097 25.7157 22.218 26.092C22 26.5198 22 27.0799 22 28.2V35.8C22 36.9201 22 37.4802 22.218 37.908C22.4097 38.2843 22.7157 38.5903 23.092 38.782C23.5198 39 24.0799 39 25.2 39H31M36.6 41.5H40.4C40.9601 41.5 41.2401 41.5 41.454 41.391C41.6422 41.2951 41.7951 41.1422 41.891 40.954C42 40.7401 42 40.4601 42 39.9V39.1C42 38.5399 42 38.2599 41.891 38.046C41.7951 37.8578 41.6422 37.7049 41.454 37.609C41.2401 37.5 40.9601 37.5 40.4 37.5H36.6C36.0399 37.5 35.7599 37.5 35.546 37.609C35.3578 37.7049 35.2049 37.8578 35.109 38.046C35 38.2599 35 38.5399 35 39.1V39.9C35 40.4601 35 40.7401 35.109 40.954C35.2049 41.1422 35.3578 41.2951 35.546 41.391C35.7599 41.5 36.0399 41.5 36.6 41.5Z" stroke="white" stroke-width="2" stroke-linecap="round" stroke-linejoin="round"/>
</svg>
