<svg width="30" height="30" viewBox="0 0 30 30" fill="none" xmlns="http://www.w3.org/2000/svg">
<path d="M29.59 15C29.59 23.0578 23.0578 29.59 15 29.59C6.94217 29.59 0.41 23.0578 0.41 15C0.41 6.94217 6.94217 0.41 15 0.41C23.0578 0.41 29.59 6.94217 29.59 15Z" stroke="black" stroke-width="0.82"/>
<path d="M13.1552 23H16.3285V15.2437H18.9819L19.3827 12.2262H16.3285V10.2925C16.3285 9.42125 16.5776 8.82625 17.8556 8.82625H19.491V6.11687C19.2094 6.085 18.2455 6 17.1191 6C14.7581 6 13.1552 7.41313 13.1552 9.99499V12.2262H10.491V15.2437H13.1552V23Z" fill="black"/>
</svg>
