<svg width="746" height="524" viewBox="0 0 746 524" fill="none" xmlns="http://www.w3.org/2000/svg">
<g clip-path="url(#clip0_1_3511)">
<path opacity="0.5" d="M271.419 519.461H256.279L237.64 383.061L253.05 385.07L271.419 519.461Z" fill="#DFE2EC" stroke="#FAFAFC" stroke-width="3.38" stroke-linecap="round" stroke-linejoin="round"/>
<path opacity="0.5" d="M385.678 519.461H370.539L350.393 371.946H365.523L385.678 519.461Z" fill="#DFE2EC" stroke="#FAFAFC" stroke-width="3.38" stroke-linecap="round" stroke-linejoin="round"/>
<path d="M95.1656 350.347C95.1656 350.347 107.179 285.812 134.509 283.273C161.838 280.734 166.817 316.759 153.51 333.074C140.203 349.389 118.15 400.13 116.214 436.685C98.1526 434.788 90.2617 429.737 90.2617 429.737L95.1656 350.347Z" fill="#FAFAFC" stroke="#DFE2EC" stroke-width="1.69" stroke-linecap="round" stroke-linejoin="round"/>
<path d="M105.095 436.685C105.095 436.685 100.061 351.919 138.073 312.973L105.095 436.685Z" fill="#FAFAFC"/>
<path d="M105.095 436.685C105.095 436.685 100.061 351.919 138.073 312.973" stroke="#DFE2EC" stroke-width="1.69" stroke-linecap="round" stroke-linejoin="round"/>
<path d="M75.0661 342.748C75.0661 342.748 38.6915 298.416 61.1081 274.12C80.5377 253.033 102.88 280.045 104.843 324.703C106.807 369.36 99.1577 441.69 99.1577 441.69C99.1577 441.69 77.6344 364.626 75.0661 342.748Z" fill="#FAFAFC" stroke="#DFE2EC" stroke-width="1.69" stroke-linecap="round" stroke-linejoin="round"/>
<path d="M89.7223 371.946C89.7223 371.946 94.4308 337.743 75.0664 283.273L89.7223 371.946Z" fill="#FAFAFC"/>
<path d="M89.7223 371.946C89.7223 371.946 94.4308 337.743 75.0664 283.273" stroke="#DFE2EC" stroke-width="1.69" stroke-linecap="round" stroke-linejoin="round"/>
<path d="M97.706 449.391C97.706 449.391 112.222 383.731 84.1202 338.199C56.0181 292.668 21.6721 317.401 30.0096 345.492C33.8993 358.626 47.1036 363.37 58.0466 379.238C70.5158 397.311 80.7889 426.946 83.8783 449.391C89.7313 491.528 97.706 449.391 97.706 449.391Z" fill="#FAFAFC" stroke="#DFE2EC" stroke-width="1.69" stroke-linecap="round" stroke-linejoin="round"/>
<path d="M92.6161 443.624C92.6161 443.624 99.9673 378.261 49.1602 330.758L92.6161 443.624Z" fill="#FAFAFC"/>
<path d="M92.6161 443.624C92.6161 443.624 99.9673 378.261 49.1602 330.758" stroke="#DFE2EC" stroke-width="1.69" stroke-linecap="round" stroke-linejoin="round"/>
<path d="M101.493 436.685C101.493 436.685 99.4926 370.244 121.472 350.347C143.451 330.451 154.543 346.627 154.543 358.961C154.543 371.295 120.969 404.381 122.83 436.685H101.493Z" fill="#FAFAFC" stroke="#DFE2EC" stroke-width="1.69" stroke-linecap="round" stroke-linejoin="round"/>
<path d="M105.095 436.685C105.095 436.685 106.025 362.449 138.073 349.147L105.095 436.685Z" fill="#FAFAFC"/>
<path d="M105.095 436.685C105.095 436.685 106.025 362.449 138.073 349.147" stroke="#DFE2EC" stroke-width="1.69" stroke-linecap="round" stroke-linejoin="round"/>
<path d="M49.1602 449.271L55.0225 516.103C55.0225 518.986 55.0225 521.684 99.3811 521.684C143.74 521.684 138.361 518.996 138.361 516.103L144.01 449.271H49.1602Z" fill="#E5E8F0" stroke="#FAFAFC" stroke-width="3.38" stroke-linecap="round" stroke-linejoin="round"/>
<path d="M145.526 457.568H47.6436C46.5905 457.566 45.5757 457.172 44.7967 456.464C44.0176 455.756 43.5298 454.783 43.4282 453.735L41.5672 434.332C41.5101 433.744 41.5766 433.15 41.7624 432.59C41.9482 432.029 42.2492 431.513 42.646 431.075C43.0429 430.637 43.5269 430.287 44.067 430.047C44.6071 429.807 45.1914 429.682 45.7825 429.681H147.406C147.997 429.682 148.582 429.807 149.122 430.047C149.662 430.287 150.146 430.637 150.543 431.075C150.939 431.513 151.24 432.029 151.426 432.59C151.612 433.15 151.678 433.744 151.621 434.332L149.76 453.735C149.661 454.787 149.171 455.763 148.387 456.473C147.604 457.182 146.583 457.572 145.526 457.568Z" fill="#E5E8F0" stroke="#FAFAFC" stroke-width="3.38" stroke-linecap="round" stroke-linejoin="round"/>
<path d="M0.781738 519.461H745.209" stroke="#DFE2EC" stroke-width="1.69" stroke-linecap="round" stroke-linejoin="round"/>
<path opacity="0.5" d="M179.398 9.05029H29.8608V218.794H179.398V9.05029Z" fill="#FAFAFC" stroke="#DFE2EC" stroke-width="5.06" stroke-linecap="round" stroke-linejoin="round"/>
<path opacity="0.5" d="M161.597 26.8447H112.483V106.067H161.597V26.8447Z" fill="#FAFAFC" stroke="#DFE2EC" stroke-width="5.06" stroke-linecap="round" stroke-linejoin="round"/>
<path opacity="0.5" d="M96.785 26.8447H47.6714V106.067H96.785V26.8447Z" fill="#FAFAFC" stroke="#DFE2EC" stroke-width="5.06" stroke-linecap="round" stroke-linejoin="round"/>
<path opacity="0.5" d="M96.785 121.768H47.6714V200.99H96.785V121.768Z" fill="#FAFAFC" stroke="#DFE2EC" stroke-width="5.06" stroke-linecap="round" stroke-linejoin="round"/>
<path opacity="0.5" d="M161.597 121.768H112.483V200.99H161.597V121.768Z" fill="#FAFAFC" stroke="#DFE2EC" stroke-width="5.06" stroke-linecap="round" stroke-linejoin="round"/>
<path opacity="0.5" d="M717.126 9.05029H567.589V218.794H717.126V9.05029Z" fill="#FAFAFC" stroke="#DFE2EC" stroke-width="5.06" stroke-linecap="round" stroke-linejoin="round"/>
<path opacity="0.5" d="M699.325 26.8447H650.211V106.067H699.325V26.8447Z" fill="#FAFAFC" stroke="#DFE2EC" stroke-width="5.06" stroke-linecap="round" stroke-linejoin="round"/>
<path opacity="0.5" d="M634.513 26.8447H585.399V106.067H634.513V26.8447Z" fill="#FAFAFC" stroke="#DFE2EC" stroke-width="5.06" stroke-linecap="round" stroke-linejoin="round"/>
<path opacity="0.5" d="M634.513 121.768H585.399V200.99H634.513V121.768Z" fill="#FAFAFC" stroke="#DFE2EC" stroke-width="5.06" stroke-linecap="round" stroke-linejoin="round"/>
<path opacity="0.5" d="M699.325 121.768H650.211V200.99H699.325V121.768Z" fill="#FAFAFC" stroke="#DFE2EC" stroke-width="5.06" stroke-linecap="round" stroke-linejoin="round"/>
<path d="M332.955 507.964C332.955 507.964 328.237 508.206 326.385 510.754C325.603 515.07 325.529 520.41 328.246 521.647C330.963 522.884 360.685 526.297 356.795 521.647C352.142 516.159 338.445 509.034 338.445 509.034L332.955 507.964Z" fill="#3D4166"/>
<path d="M331.745 487.556C331.745 487.556 329.297 508.457 328.255 512.085C327.213 515.712 358.237 523.405 349.053 516.996C339.868 510.587 338.454 509.034 338.454 509.034L342.613 491.361L331.745 487.556Z" fill="#FEC8B1"/>
<path d="M398.129 507.964C398.129 507.964 393.412 508.206 391.56 510.754C390.778 515.07 390.704 520.41 393.421 521.647C396.138 522.884 425.85 526.297 421.96 521.647C417.308 516.159 403.62 509.034 403.62 509.034L398.129 507.964Z" fill="#3D4166"/>
<path d="M396.929 487.556C396.929 487.556 394.482 508.457 393.439 512.085C392.397 515.712 423.412 523.405 414.227 516.996C405.043 510.587 403.638 509.034 403.638 509.034L407.788 491.361L396.929 487.556Z" fill="#FEC8B1"/>
<path d="M273.661 92.3375C273.661 92.3375 270.19 101.918 270.553 109.49C270.916 117.061 271.111 130.233 299.576 124.428C294.672 109.211 295.128 88.9331 295.128 88.9331L273.661 92.3375Z" fill="#4D4D4D"/>
<path d="M243.167 81.4733C243.167 81.4733 238.719 79.9106 237.668 86.7102C236.616 93.5097 239.529 109.964 241.865 114.708C244.2 119.452 250.351 119.554 250.379 119.601C250.407 119.647 254.967 86.4497 243.167 81.4733Z" fill="#4C4C4C"/>
<path opacity="0.5" d="M362.583 363.472C362.08 357.974 359.791 353.882 355.343 352.477C351.723 351.333 344.316 351.463 340.334 352.059C313.395 308.871 328.395 195 321.462 174.964C314.39 154.556 297.799 145.906 250.788 145.924C220.211 145.924 191.383 160.147 185.037 168.834C182.636 172.118 180.496 184.945 180.142 188.991C178.97 202.46 176.969 216.273 180.04 264.474C181.436 286.286 182.348 313.196 187.484 333.353C188.221 336.709 189.191 340.01 190.387 343.231C191.672 347.034 193.173 350.761 194.882 354.393C195.219 354.883 195.641 355.309 196.129 355.649C199.749 362.002 205.434 367.639 211.371 373.322C231.08 392.288 338.11 387.228 353.287 380.01C353.287 380.038 363.839 377.508 362.583 363.472Z" fill="#DFE2EC" stroke="#FAFAFC" stroke-width="3.38" stroke-linecap="round" stroke-linejoin="round"/>
<path d="M263.844 130.67C263.844 130.67 266.459 119.582 273.27 118.317C280.082 117.052 302.535 119.545 310.65 137.851C318.764 156.157 317.461 159.831 317.461 159.831C317.461 159.831 289.368 156.696 280.333 171.997C271.297 187.299 263.844 130.67 263.844 130.67Z" fill="#609E45"/>
<g style="mix-blend-mode:multiply" opacity="0.3">
<path d="M277.169 126.884C281.722 130.405 285.638 134.68 288.745 139.525C293.397 147.115 300.842 158.212 303.261 158.305C297.175 158.891 297.073 158.826 294.123 160.388C289.024 159.449 277.169 126.884 277.169 126.884Z" fill="#9D9D9C"/>
</g>
<path d="M400.223 239.899C400.223 239.899 391.122 243.955 362.071 249.843C357.204 250.829 345.629 257.963 336.863 254.224C327.334 250.149 309.012 224.877 287.033 179.075C285.469 165.067 314.4 153.031 317.154 158.714C337.682 201.009 350.719 228.951 350.719 228.951C350.719 228.951 401.758 216.133 417.661 215.808C417.661 215.808 432.131 211.52 440.599 213.836C443.158 214.617 453.375 219.677 455.729 223.212C458.084 226.747 462.615 242.448 461.313 244.02C460.01 245.592 458.465 244.41 453.747 234.206C448.648 240.094 444.284 244.438 440.58 244.438C436.877 244.438 426.269 239.332 426.269 235.406C418.806 234.988 400.223 239.899 400.223 239.899Z" fill="#FEC8B1"/>
<g style="mix-blend-mode:multiply" opacity="0.1">
<path d="M300.451 158.891C300.451 158.891 318.531 207.083 324.552 221.473C330.572 235.862 345.024 250.14 354.925 249.378C343.665 253.88 346.857 255.563 345.219 255.024C343.581 254.484 336.509 256.791 329.028 249.257C321.546 241.722 296.143 201.167 296.143 201.167C296.143 201.167 271.567 160.668 300.451 158.891Z" fill="#9D9D9C"/>
</g>
<path d="M276.955 290.798C276.955 290.798 282.436 336.32 281.384 350.98C304.946 344.171 310.082 347.054 310.082 347.054L419.718 345.631C420.075 345.632 420.426 345.721 420.74 345.892C421.053 346.062 421.32 346.308 421.515 346.607C421.71 346.906 421.827 347.249 421.856 347.605C421.885 347.961 421.825 348.318 421.681 348.645L392.118 495.407H408.235L472.442 342.031C474.18 338.656 474.919 334.855 474.573 331.074C473.865 323.949 471.009 313.075 460.363 309.317C444.014 303.56 317.75 296.407 317.75 296.407L314.381 290.826L276.955 290.798Z" fill="#525252"/>
<g style="mix-blend-mode:multiply" opacity="0.3">
<path d="M375.797 300.174C375.797 300.174 402.838 306.229 410.673 312.312C416.061 316.498 420.127 327.642 415.019 345.687H355.139L296.236 293.086L375.797 300.174Z" fill="#515151"/>
</g>
<path d="M226.939 290.798C226.939 290.798 217.941 306.527 222.528 321.41C227.367 337.111 241.697 352.105 253.58 355.677C281.385 364.048 355.744 351.882 355.744 351.882C356.102 351.882 356.454 351.971 356.769 352.142C357.084 352.313 357.351 352.56 357.546 352.861C357.741 353.161 357.858 353.505 357.886 353.862C357.914 354.219 357.853 354.578 357.707 354.905L327.837 495.407H343.954L408.505 348.291C410.23 344.912 410.957 341.111 410.599 337.334C409.891 330.209 407.035 319.326 396.389 315.578C380.04 309.81 289.257 294.184 289.257 294.184L250.109 290.789L226.939 290.798Z" fill="#525252"/>
<path d="M203.387 157.356C203.387 174.629 213.101 180.331 222.528 211.166V307.169C222.528 307.169 237.537 300.155 265.416 299.272C293.295 298.388 298.534 299.272 298.534 299.272C298.534 299.272 297.92 237.509 297.129 203.753C308.5 199.502 322.476 178.22 307.56 160.426C284.529 133.014 292.188 127.265 281.384 122.559C273.875 119.275 258.288 128.837 253.58 129.619C250.332 124.968 231.852 111.304 214.637 122.819C205.918 128.642 203.387 144.473 203.387 157.356Z" fill="#609E45"/>
<g style="mix-blend-mode:multiply" opacity="0.3">
<path d="M221.467 172.006C221.467 172.006 209.324 148.371 212.32 158.444C214.349 165.272 230.736 204.432 234.067 212.041C236.216 216.98 239.017 225.779 246.871 242.131C251.84 252.475 268.329 254.67 274.787 254.438C300.916 253.507 309.896 257.358 309.896 257.358C309.896 257.358 310.445 241.08 309.654 237.546C308.863 234.011 278.016 247.359 268.171 234.802C258.326 222.244 221.467 172.006 221.467 172.006Z" fill="#9D9D9C"/>
</g>
<path d="M343.274 239.899C343.274 239.899 334.173 243.955 305.122 249.843C291.006 252.698 278.779 256.466 273.661 254.28C264.123 250.205 244.572 222.821 222.593 177.011C221.086 163.44 251.281 150.147 259.061 163.43C282.808 204.004 288.968 226.179 288.968 226.179C288.968 226.179 330.842 221.473 360.712 215.808C360.712 215.808 375.182 211.52 383.65 213.836C386.209 214.617 396.426 219.677 398.78 223.212C401.135 226.747 405.657 242.448 404.364 244.02C403.07 245.592 401.516 244.411 396.798 234.207C391.699 240.095 387.335 244.438 383.631 244.438C379.928 244.438 369.32 239.332 369.32 235.407C361.857 234.988 343.274 239.899 343.274 239.899Z" fill="#FEC8B1"/>
<path d="M214.47 521.647H203.573L199.562 272.65C199.562 272.65 216.926 257.024 218.471 272.65C221.625 330.6 214.47 521.647 214.47 521.647Z" fill="#DFE2EC" stroke="#FAFAFC" stroke-width="1.69" stroke-linecap="round" stroke-linejoin="round"/>
<path d="M604.847 521.647H593.904L589.903 272.65C589.903 272.65 607.267 257.024 608.802 272.65C611.956 330.6 604.847 521.647 604.847 521.647Z" fill="#DFE2EC" stroke="#FAFAFC" stroke-width="1.69" stroke-linecap="round" stroke-linejoin="round"/>
<path d="M642.366 272.65H166.817V299.272H642.366V272.65Z" fill="#DFE2EC" stroke="#FAFAFC" stroke-width="3.38" stroke-linecap="round" stroke-linejoin="round"/>
<path d="M674.731 257.023H134.453V278.659H674.731V257.023Z" fill="#DFE2EC" stroke="#FAFAFC" stroke-width="3.38" stroke-linecap="round" stroke-linejoin="round"/>
<path opacity="0.5" d="M454.789 244.587H368.52C368.252 244.587 368.036 244.804 368.036 245.071V253.74C368.036 254.007 368.252 254.224 368.52 254.224H454.789C455.057 254.224 455.273 254.007 455.273 253.74V245.071C455.273 244.804 455.057 244.587 454.789 244.587Z" fill="#609E45"/>
<path d="M447.326 247.722H353.975C353.708 247.722 353.491 247.939 353.491 248.206V256.875C353.491 257.142 353.708 257.359 353.975 257.359H447.326C447.594 257.359 447.81 257.142 447.81 256.875V248.206C447.81 247.939 447.594 247.722 447.326 247.722Z" fill="#609E45"/>
<path d="M573.832 257.358H436.569C433.452 257.358 431.693 254.838 432.643 251.722L461.973 155.784C462.495 154.217 463.476 152.841 464.788 151.837C466.1 150.832 467.683 150.243 469.334 150.147H606.606C609.723 150.147 611.482 152.668 610.523 155.784L581.202 251.722C580.677 253.289 579.695 254.664 578.381 255.669C577.068 256.673 575.484 257.262 573.832 257.358Z" fill="#609E45"/>
<path d="M529.043 216.832C535.542 211.252 537.472 202.843 533.353 198.049C529.234 193.256 520.627 193.894 514.128 199.473C507.629 205.053 505.7 213.462 509.818 218.256C513.937 223.049 522.544 222.411 529.043 216.832Z" fill="white"/>
<path d="M275.782 81.7338C267.408 93.5097 279.365 124.521 279.365 124.521C295.677 132.744 280.295 137.879 270.553 137.879C260.81 137.879 253.58 129.637 253.58 129.637L248.239 124.791C248.239 124.791 252.789 100.765 243.037 87.2497C235.118 76.2737 284.185 69.9672 275.782 81.7338Z" fill="#FEC8B1"/>
<g style="mix-blend-mode:multiply" opacity="0.3">
<path d="M275.782 113.201C275.782 113.201 260.708 113.08 257.563 109.574C254.417 106.067 251.244 123.34 251.244 123.34C251.244 123.34 238.859 110.95 238.319 100.458C237.779 89.9658 233.666 82.8594 238.319 81.3153C242.972 79.7712 271.232 85.7894 275.782 113.201Z" fill="#4D4D4D"/>
</g>
<path d="M286.502 40.1645C278.695 34.9648 254.864 52.0613 241.883 57.2609C228.902 62.4606 229.619 81.7987 237.798 89.9749C238.729 83.566 243.037 87.1844 243.037 87.1844C245.219 90.1881 247.714 92.9508 250.481 95.4257C257.051 101.425 273.531 110.169 279.533 109.378C286.372 108.532 290.699 99.8067 293.202 92.8119C293.221 92.9049 302.368 49.4568 286.502 40.1645Z" fill="#FEC8B1"/>
<path d="M286.521 16.0641C266.133 6.64154 248.136 11.5807 237.454 18.4174C218.601 30.5096 213.418 55.0381 211.027 69.5766C207.304 92.3471 213.195 118.643 222.528 123.35C231.861 128.056 254.817 131.898 254.817 131.898C254.817 131.898 248.239 117.071 245.791 109.899C243.344 102.728 243 87.2405 243 87.2405C243 87.2405 242.404 85.9289 238.682 83.5756C234.234 80.1805 235.146 66.8326 240.255 68.0139C245.363 69.1952 244.963 76.5156 244.963 76.5156C246.042 76.5816 247.123 76.5816 248.201 76.5156C248.685 76.3854 248.052 72.3392 249.848 70.6091C266.514 69.6789 286.484 41.1879 286.484 41.1879C286.484 41.1879 290.206 41.7832 294.17 53.4475C294.703 55.4918 295.129 57.5627 295.445 59.6517C296.282 66.7489 294.83 85.4732 292.495 94.7469C292.048 106.272 294.058 117.415 296.924 123.089C298.85 126.912 306.741 126.893 310.045 126.893C304.378 114.066 303.038 94.7283 307.523 76.5156C309.617 68.0046 312.297 59.5959 310.045 46.9457C307.374 31.7374 299.744 16.4548 286.521 16.0641Z" fill="#545454"/>
<path d="M521.583 96.1792C548.153 96.1792 569.692 74.6488 569.692 48.0896C569.692 21.5305 548.153 0 521.583 0C495.014 0 473.475 21.5305 473.475 48.0896C473.475 74.6488 495.014 96.1792 521.583 96.1792Z" fill="#DFE2EC"/>
<path d="M519.48 119.796L505.122 90.4028H533.829L519.48 119.796Z" fill="#DFE2EC"/>
<path d="M634.894 137.841C661.464 137.841 683.003 116.311 683.003 89.7517C683.003 63.1926 661.464 41.6621 634.894 41.6621C608.325 41.6621 586.786 63.1926 586.786 89.7517C586.786 116.311 608.325 137.841 634.894 137.841Z" fill="#DFE2EC"/>
<path d="M582.868 139.153L593.393 108.188L613.762 128.4L582.868 139.153Z" fill="#DFE2EC"/>
<path d="M409.696 137.841C436.265 137.841 457.804 116.311 457.804 89.7517C457.804 63.1926 436.265 41.6621 409.696 41.6621C383.126 41.6621 361.587 63.1926 361.587 89.7517C361.587 116.311 383.126 137.841 409.696 137.841Z" fill="#DFE2EC"/>
<path d="M461.722 139.153L451.198 108.188L430.828 128.4L461.722 139.153Z" fill="#DFE2EC"/>
<path d="M430.14 112.095H390.22C388.796 112.095 387.43 111.529 386.423 110.523C385.416 109.516 384.851 108.151 384.851 106.727V77.6225C384.853 76.3364 385.366 75.1038 386.277 74.1952C387.187 73.2866 388.421 72.7764 389.708 72.7764H430.651C431.936 72.7788 433.166 73.2905 434.074 74.1991C434.981 75.1076 435.49 76.3389 435.49 77.6225V106.727C435.49 108.151 434.925 109.516 433.918 110.523C432.911 111.529 431.545 112.095 430.121 112.095" fill="#DFE2EC"/>
<path d="M385.986 106.039V80.729H433.443V106.039C433.438 106.868 433.106 107.661 432.519 108.247C431.931 108.832 431.136 109.162 430.307 109.164H389.122C388.292 109.164 387.495 108.835 386.908 108.249C386.32 107.664 385.988 106.869 385.986 106.039ZM426.343 63.5861C425.906 63.5861 425.487 63.7595 425.178 64.0683C424.87 64.377 424.696 64.7958 424.696 65.2325V68.6369H412.152V65.1859C412.152 64.7493 411.979 64.3305 411.67 64.0218C411.361 63.713 410.942 63.5396 410.505 63.5396H408.886C408.449 63.5395 408.029 63.7127 407.718 64.0212C407.408 64.3297 407.232 64.7484 407.23 65.1859V68.5904H395.552V65.1859C395.552 64.7493 395.378 64.3305 395.069 64.0218C394.76 63.713 394.341 63.5396 393.905 63.5396H392.285C391.848 63.5395 391.428 63.7127 391.118 64.0212C390.807 64.3297 390.632 64.7484 390.629 65.1859V68.5904H388.591C386.617 68.5904 384.723 69.3744 383.327 70.7699C381.931 72.1654 381.147 74.0581 381.147 76.0317V106.039C381.152 108.141 381.99 110.155 383.478 111.641C384.966 113.126 386.982 113.961 389.084 113.964H430.233C432.335 113.961 434.35 113.126 435.836 111.64C437.322 110.154 438.158 108.14 438.161 106.039V75.9945C438.161 74.0209 437.376 72.1282 435.98 70.7327C434.584 69.3371 432.691 68.5531 430.717 68.5531H429.544V65.1859C429.542 64.7484 429.366 64.3297 429.056 64.0212C428.745 63.7127 428.325 63.5395 427.888 63.5396L426.343 63.5861Z" fill="white"/>
<mask id="mask0_1_3511" style="mask-type:luminance" maskUnits="userSpaceOnUse" x="381" y="63" width="58" height="51">
<path d="M385.986 106.039V80.729H433.443V106.039C433.438 106.868 433.106 107.661 432.519 108.247C431.931 108.832 431.136 109.162 430.307 109.164H389.122C388.292 109.164 387.495 108.835 386.908 108.249C386.32 107.664 385.988 106.869 385.986 106.039ZM426.343 63.5861C425.906 63.5861 425.487 63.7595 425.178 64.0683C424.87 64.377 424.696 64.7958 424.696 65.2325V68.6369H412.152V65.1859C412.152 64.7493 411.979 64.3305 411.67 64.0218C411.361 63.713 410.942 63.5396 410.505 63.5396H408.886C408.449 63.5395 408.029 63.7127 407.718 64.0212C407.408 64.3297 407.232 64.7484 407.23 65.1859V68.5904H395.552V65.1859C395.552 64.7493 395.378 64.3305 395.069 64.0218C394.76 63.713 394.341 63.5396 393.905 63.5396H392.285C391.848 63.5395 391.428 63.7127 391.118 64.0212C390.807 64.3297 390.632 64.7484 390.629 65.1859V68.5904H388.591C386.617 68.5904 384.723 69.3744 383.327 70.7699C381.931 72.1654 381.147 74.0581 381.147 76.0317V106.039C381.152 108.141 381.99 110.155 383.478 111.641C384.966 113.126 386.982 113.961 389.084 113.964H430.233C432.335 113.961 434.35 113.126 435.836 111.64C437.322 110.154 438.158 108.14 438.161 106.039V75.9945C438.161 74.0209 437.376 72.1282 435.98 70.7327C434.584 69.3371 432.691 68.5531 430.717 68.5531H429.544V65.1859C429.542 64.7484 429.366 64.3297 429.056 64.0212C428.745 63.7127 428.325 63.5395 427.888 63.5396L426.343 63.5861Z" fill="white"/>
</mask>
<g mask="url(#mask0_1_3511)">
<path d="M438.198 63.5396H381.184V113.917H438.198V63.5396Z" fill="#DFE2EC"/>
</g>
<path d="M385.986 106.039V80.729H433.443V106.039C433.438 106.868 433.106 107.661 432.519 108.247C431.931 108.832 431.136 109.162 430.307 109.164H389.122C388.292 109.164 387.495 108.835 386.908 108.249C386.32 107.664 385.988 106.869 385.986 106.039ZM426.343 63.5861C425.906 63.5861 425.487 63.7595 425.178 64.0683C424.87 64.377 424.696 64.7958 424.696 65.2325V68.6369H412.152V65.1859C412.152 64.7493 411.979 64.3305 411.67 64.0218C411.361 63.713 410.942 63.5396 410.505 63.5396H408.886C408.449 63.5395 408.029 63.7127 407.718 64.0212C407.408 64.3297 407.232 64.7484 407.23 65.1859V68.5904H395.552V65.1859C395.552 64.7493 395.378 64.3305 395.069 64.0218C394.76 63.713 394.341 63.5396 393.905 63.5396H392.285C391.848 63.5395 391.428 63.7127 391.118 64.0212C390.807 64.3297 390.632 64.7484 390.629 65.1859V68.5904H388.591C386.617 68.5904 384.723 69.3744 383.327 70.7699C381.931 72.1654 381.147 74.0581 381.147 76.0317V106.039C381.152 108.141 381.99 110.155 383.478 111.641C384.966 113.126 386.982 113.961 389.084 113.964H430.233C432.335 113.961 434.35 113.126 435.836 111.64C437.322 110.154 438.158 108.14 438.161 106.039V75.9945C438.161 74.0209 437.376 72.1282 435.98 70.7327C434.584 69.3371 432.691 68.5531 430.717 68.5531H429.544V65.1859C429.542 64.7484 429.366 64.3297 429.056 64.0212C428.745 63.7127 428.325 63.5395 427.888 63.5396L426.343 63.5861Z" stroke="white" stroke-width="1.69" stroke-miterlimit="10"/>
<mask id="mask1_1_3511" style="mask-type:luminance" maskUnits="userSpaceOnUse" x="404" y="84" width="11" height="9">
<path d="M413.595 84.8403H405.797C405.077 84.8403 404.494 85.4234 404.494 86.1426V91.1283C404.494 91.8475 405.077 92.4305 405.797 92.4305H413.595C414.314 92.4305 414.898 91.8475 414.898 91.1283V86.1426C414.898 85.4234 414.314 84.8403 413.595 84.8403Z" fill="white"/>
</mask>
<g mask="url(#mask1_1_3511)">
<path d="M414.898 84.8403H404.494V92.4305H414.898V84.8403Z" fill="white"/>
</g>
<mask id="mask2_1_3511" style="mask-type:luminance" maskUnits="userSpaceOnUse" x="418" y="84" width="12" height="9">
<path d="M427.72 84.8403H419.922C419.203 84.8403 418.62 85.4234 418.62 86.1426V91.1283C418.62 91.8475 419.203 92.4305 419.922 92.4305H427.72C428.44 92.4305 429.023 91.8475 429.023 91.1283V86.1426C429.023 85.4234 428.44 84.8403 427.72 84.8403Z" fill="white"/>
</mask>
<g mask="url(#mask2_1_3511)">
<path d="M429.023 84.8403H418.62V92.4305H429.023V84.8403Z" fill="white"/>
</g>
<path d="M413.595 96.9419H405.797C405.077 96.9419 404.494 97.5249 404.494 98.2441V103.23C404.494 103.949 405.077 104.532 405.797 104.532H413.595C414.314 104.532 414.898 103.949 414.898 103.23V98.2441C414.898 97.5249 414.314 96.9419 413.595 96.9419Z" fill="white"/>
<mask id="mask3_1_3511" style="mask-type:luminance" maskUnits="userSpaceOnUse" x="404" y="96" width="11" height="9">
<path d="M413.595 96.9419H405.797C405.077 96.9419 404.494 97.5249 404.494 98.2441V103.23C404.494 103.949 405.077 104.532 405.797 104.532H413.595C414.314 104.532 414.898 103.949 414.898 103.23V98.2441C414.898 97.5249 414.314 96.9419 413.595 96.9419Z" fill="white"/>
</mask>
<g mask="url(#mask3_1_3511)">
<path d="M414.898 96.9419H404.494V104.532H414.898V96.9419Z" fill="white"/>
</g>
<mask id="mask4_1_3511" style="mask-type:luminance" maskUnits="userSpaceOnUse" x="390" y="96" width="11" height="9">
<path d="M399.46 96.9419H391.662C390.943 96.9419 390.359 97.5249 390.359 98.2441V103.23C390.359 103.949 390.943 104.532 391.662 104.532H399.46C400.179 104.532 400.763 103.949 400.763 103.23V98.2441C400.763 97.5249 400.179 96.9419 399.46 96.9419Z" fill="white"/>
</mask>
<g mask="url(#mask4_1_3511)">
<path d="M400.763 96.9419H390.359V104.532H400.763V96.9419Z" fill="white"/>
</g>
<mask id="mask5_1_3511" style="mask-type:luminance" maskUnits="userSpaceOnUse" x="418" y="96" width="12" height="9">
<path d="M427.72 96.9419H419.922C419.203 96.9419 418.62 97.5249 418.62 98.2441V103.23C418.62 103.949 419.203 104.532 419.922 104.532H427.72C428.44 104.532 429.023 103.949 429.023 103.23V98.2441C429.023 97.5249 428.44 96.9419 427.72 96.9419Z" fill="white"/>
</mask>
<g mask="url(#mask5_1_3511)">
<path d="M429.023 96.9419H418.62V104.532H429.023V96.9419Z" fill="white"/>
</g>
<mask id="mask6_1_3511" style="mask-type:luminance" maskUnits="userSpaceOnUse" x="506" y="29" width="42" height="30">
<path d="M509.403 29.5977C509.016 29.5976 508.633 29.6744 508.276 29.8235C507.919 29.9726 507.595 30.1911 507.323 30.4662C507.051 30.7414 506.837 31.0678 506.692 31.4264C506.548 31.7851 506.476 32.1689 506.481 32.5556V53.3076C506.479 53.9615 506.607 54.6091 506.857 55.2134C507.107 55.8177 507.474 56.3668 507.936 56.8292C508.399 57.2915 508.948 57.658 509.552 57.9077C510.157 58.1573 510.805 58.2852 511.459 58.284H542.362C543.682 58.284 544.949 57.7597 545.882 56.8264C546.816 55.8932 547.34 54.6274 547.34 53.3076V32.5556C547.338 31.7817 547.029 31.0402 546.482 30.493C545.935 29.9458 545.193 29.6373 544.419 29.6349L509.403 29.5977Z" fill="white"/>
</mask>
<g mask="url(#mask6_1_3511)">
<path d="M547.34 29.5977H506.48V58.2933H547.34V29.5977Z" fill="#DFE2EC"/>
<path d="M506.48 29.5977L524.375 42.1642C525.124 42.6891 526.014 42.9784 526.929 42.9949C527.844 43.0115 528.743 42.7546 529.511 42.2572L549.145 29.5977" stroke="white" stroke-width="3.09" stroke-linecap="round" stroke-linejoin="round"/>
</g>
<path d="M509.403 29.5977C509.016 29.5976 508.633 29.6744 508.276 29.8235C507.919 29.9726 507.595 30.1911 507.323 30.4662C507.051 30.7414 506.837 31.0678 506.692 31.4264C506.548 31.7851 506.476 32.1689 506.481 32.5556V53.3076C506.479 53.9615 506.607 54.6091 506.857 55.2134C507.107 55.8177 507.474 56.3668 507.936 56.8292C508.399 57.2915 508.948 57.658 509.552 57.9077C510.157 58.1573 510.805 58.2852 511.459 58.284H542.362C543.682 58.284 544.949 57.7597 545.882 56.8264C546.816 55.8932 547.34 54.6274 547.34 53.3076V32.5556C547.338 31.7817 547.029 31.0402 546.482 30.493C545.935 29.9458 545.193 29.6373 544.419 29.6349L509.403 29.5977Z" stroke="white" stroke-width="2.53" stroke-miterlimit="10"/>
<mask id="mask7_1_3511" style="mask-type:luminance" maskUnits="userSpaceOnUse" x="492" y="39" width="45" height="32">
<path d="M496.905 39.4946C495.823 39.4971 494.785 39.9281 494.02 40.6934C493.254 41.4586 492.823 42.4958 492.82 43.5781V64.3673C492.823 65.9947 493.471 67.5548 494.622 68.7056C495.773 69.8563 497.334 70.5039 498.962 70.5064H529.865C531.493 70.5039 533.054 69.8563 534.205 68.7056C535.356 67.5548 536.004 65.9947 536.006 64.3673V43.5781C536.004 42.4958 535.573 41.4586 534.807 40.6934C534.042 39.9281 533.004 39.4971 531.921 39.4946H496.905Z" fill="white"/>
</mask>
<g mask="url(#mask7_1_3511)">
<path d="M535.951 39.4946H492.774V70.5064H535.951V39.4946Z" fill="url(#paint0_linear_1_3511)"/>
</g>
<path d="M531.875 40.6574C532.649 40.6599 533.391 40.9684 533.938 41.5156C534.486 42.0628 534.794 42.8043 534.797 43.5781V64.3674C534.797 65.6872 534.272 66.953 533.339 67.8862C532.405 68.8195 531.139 69.3438 529.818 69.3438H498.915C498.261 69.345 497.613 69.2171 497.009 68.9674C496.404 68.7178 495.855 68.3513 495.392 67.8889C494.93 67.4266 494.563 66.8775 494.313 66.2732C494.064 65.6689 493.936 65.0212 493.937 64.3674V43.5781C493.938 43.191 494.016 42.8079 494.166 42.4511C494.317 42.0942 494.536 41.7707 494.812 41.4991C495.088 41.2275 495.415 41.0133 495.774 40.8688C496.134 40.7244 496.518 40.6525 496.905 40.6574H531.921M531.921 38.3413H496.905C495.516 38.3413 494.183 38.893 493.201 39.8751C492.218 40.8572 491.667 42.1892 491.667 43.5781V64.3674C491.667 66.3023 492.435 68.1581 493.803 69.5272C495.171 70.8963 497.026 71.6667 498.962 71.6692H529.865C531.801 71.6667 533.656 70.8963 535.024 69.5272C536.392 68.1581 537.16 66.3023 537.16 64.3674V43.5781C537.158 42.19 536.605 40.8594 535.623 39.8779C534.641 38.8963 533.31 38.3438 531.921 38.3413Z" fill="white"/>
<mask id="mask8_1_3511" style="mask-type:luminance" maskUnits="userSpaceOnUse" x="493" y="40" width="42" height="30">
<path d="M496.905 40.6577C496.131 40.6602 495.389 40.9687 494.842 41.5159C494.294 42.0631 493.986 42.8046 493.983 43.5784V64.3677C493.983 65.0212 494.112 65.6683 494.362 66.272C494.613 66.8758 494.979 67.4244 495.442 67.8865C495.904 68.3486 496.453 68.7152 497.057 68.9652C497.661 69.2153 498.308 69.3441 498.962 69.3441H529.865C531.185 69.3441 532.451 68.8198 533.385 67.8865C534.319 66.9532 534.843 65.6875 534.843 64.3677V43.5784C534.843 42.8038 534.535 42.0609 533.987 41.5132C533.439 40.9654 532.696 40.6577 531.921 40.6577H496.905Z" fill="white"/>
</mask>
<g mask="url(#mask8_1_3511)">
<path d="M534.797 40.6577H493.937V69.3441H534.797V40.6577Z" fill="#DFE2EC"/>
<path d="M493.937 40.6577L511.794 53.2243C512.546 53.7436 513.433 54.0302 514.347 54.0484C515.26 54.0666 516.159 53.8155 516.931 53.3266L536.565 40.6577" stroke="white" stroke-width="3.09" stroke-linecap="round" stroke-linejoin="round"/>
</g>
<mask id="mask9_1_3511" style="mask-type:luminance" maskUnits="userSpaceOnUse" x="630" y="83" width="37" height="37">
<path d="M646.926 106.393C645.659 106.08 644.558 105.297 643.849 104.201C643.139 103.106 642.875 101.781 643.109 100.498C643.343 99.2139 644.058 98.0677 645.108 97.2928C646.158 96.5178 647.465 96.1725 648.761 96.3272C650.057 96.4819 651.245 97.125 652.083 98.1253C652.922 99.1257 653.347 100.408 653.272 101.711C653.197 103.013 652.627 104.238 651.68 105.136C650.733 106.034 649.478 106.536 648.173 106.541C647.753 106.542 647.334 106.492 646.926 106.393ZM648.787 84.543L647.996 87.687L647.698 87.9195C646.635 87.9548 645.579 88.114 644.553 88.3939L644.162 88.2451L642.497 85.4546C642.419 85.3197 642.315 85.2017 642.191 85.1077C642.067 85.0137 641.925 84.9456 641.774 84.9074C641.623 84.8693 641.466 84.8618 641.312 84.8855C641.158 84.9092 641.01 84.9635 640.878 85.0453L638.868 86.2359L636.886 87.4359C636.751 87.5153 636.634 87.6206 636.54 87.7457C636.447 87.8708 636.379 88.0131 636.341 88.1644C636.303 88.3158 636.296 88.4732 636.319 88.6275C636.342 88.7819 636.395 88.9301 636.476 89.0636L638.132 91.8541C638.132 92.0402 638.132 92.2076 638.132 92.3936C637.499 93.0975 636.944 93.8678 636.476 94.6912C636.262 94.7842 636.076 94.8586 635.871 94.9609L632.726 94.161C632.575 94.1234 632.418 94.1161 632.264 94.1393C632.111 94.1624 631.963 94.2157 631.83 94.2961C631.697 94.3765 631.581 94.4823 631.489 94.6076C631.397 94.7328 631.33 94.875 631.293 95.026L630.716 97.2863L630.148 99.5466C630.11 99.6981 630.101 99.8558 630.124 100.011C630.146 100.165 630.199 100.314 630.28 100.448C630.36 100.582 630.467 100.699 630.593 100.792C630.719 100.885 630.862 100.951 631.014 100.988L634.159 101.788L634.699 102.449C634.762 103.214 634.886 103.973 635.071 104.718C634.941 105.025 634.838 105.304 634.708 105.649L631.917 107.314C631.783 107.393 631.667 107.498 631.575 107.622C631.482 107.747 631.416 107.889 631.378 108.039C631.341 108.19 631.334 108.346 631.358 108.499C631.382 108.653 631.435 108.8 631.516 108.932L632.707 110.941L633.908 112.941C634.069 113.212 634.33 113.408 634.636 113.487C634.941 113.565 635.265 113.519 635.536 113.36L638.505 111.583C638.642 111.498 638.789 111.429 638.942 111.378C639.738 112.099 640.615 112.723 641.557 113.239C641.548 113.412 641.52 113.583 641.473 113.75L640.543 117.387C640.515 117.507 640.515 117.631 640.543 117.75C640.561 117.861 640.599 117.968 640.654 118.066C640.781 118.269 640.981 118.416 641.213 118.476L643.753 119.117L646.303 119.759C646.534 119.813 646.777 119.776 646.982 119.657C647.082 119.603 647.168 119.527 647.233 119.434C647.307 119.336 647.36 119.226 647.391 119.108L648.322 115.471C648.326 115.453 648.326 115.434 648.322 115.415C648.368 115.266 648.424 115.118 648.48 114.987C649.561 114.97 650.635 114.823 651.681 114.55C651.792 114.669 651.889 114.8 651.97 114.941L653.747 117.899C653.826 118.034 653.93 118.152 654.055 118.246C654.18 118.341 654.322 118.409 654.474 118.448C654.625 118.487 654.783 118.496 654.938 118.473C655.092 118.451 655.241 118.398 655.375 118.317L657.376 117.117L659.377 115.918C659.512 115.839 659.63 115.734 659.724 115.609C659.818 115.484 659.886 115.342 659.925 115.19C659.963 115.038 659.97 114.88 659.946 114.726C659.923 114.571 659.868 114.423 659.786 114.29L658.13 111.499C658.13 111.164 658.195 110.867 658.241 110.569C658.764 109.995 659.232 109.372 659.637 108.709L660.437 108.383L663.583 109.174C663.887 109.25 664.21 109.203 664.48 109.043C664.75 108.882 664.946 108.622 665.025 108.318L665.593 106.058L666.16 103.797C666.199 103.647 666.208 103.49 666.186 103.335C666.164 103.181 666.112 103.032 666.032 102.898C665.953 102.764 665.847 102.648 665.722 102.554C665.597 102.461 665.455 102.394 665.304 102.356L662.168 101.565L661.759 101.044C661.733 100.104 661.608 99.1683 661.387 98.2537C661.461 98.0863 661.526 97.9188 661.591 97.7514L664.383 96.0864C664.652 95.9241 664.847 95.6619 664.923 95.3569C665 95.0519 664.953 94.729 664.792 94.4586L663.592 92.4588L662.392 90.4589C662.313 90.3238 662.208 90.2057 662.083 90.1114C661.958 90.0171 661.816 89.9485 661.665 89.9096C661.513 89.8706 661.356 89.8622 661.201 89.8846C661.046 89.907 660.897 89.96 660.763 90.0403L657.971 91.7053H657.553C656.785 90.9642 655.929 90.3206 655.003 89.7892L654.863 89.445L655.654 86.301C655.73 85.9952 655.682 85.6716 655.52 85.4014C655.358 85.1311 655.095 84.9362 654.789 84.8593L652.528 84.2919L650.239 83.7152C650.143 83.7011 650.046 83.7011 649.95 83.7152C649.682 83.7158 649.422 83.8085 649.213 83.9778C649.005 84.1471 648.861 84.3828 648.806 84.6454" fill="white"/>
</mask>
<g mask="url(#mask9_1_3511)">
<path d="M632.08 75.0295L621.337 117.657L664.09 128.423L674.833 85.7957L632.08 75.0295Z" fill="#DFE2EC"/>
</g>
<path d="M648.787 84.543L647.996 87.687L647.698 87.9195C646.635 87.9548 645.579 88.114 644.553 88.3939L644.162 88.2451L642.497 85.4546C642.419 85.3197 642.315 85.2017 642.191 85.1077C642.067 85.0137 641.925 84.9456 641.774 84.9074C641.623 84.8693 641.466 84.8618 641.312 84.8855C641.158 84.9092 641.01 84.9635 640.878 85.0453L638.868 86.2359L636.886 87.4359C636.751 87.5153 636.634 87.6206 636.54 87.7457C636.447 87.8708 636.379 88.0131 636.341 88.1644C636.303 88.3158 636.296 88.4732 636.319 88.6275C636.342 88.7819 636.395 88.9301 636.476 89.0636L638.132 91.8541C638.132 92.0402 638.132 92.2076 638.132 92.3936C637.499 93.0975 636.944 93.8678 636.476 94.6912C636.262 94.7842 636.076 94.8586 635.871 94.9609L632.726 94.161C632.575 94.1234 632.418 94.1161 632.264 94.1393C632.111 94.1624 631.963 94.2158 631.83 94.2961C631.697 94.3765 631.581 94.4823 631.489 94.6076C631.397 94.7328 631.33 94.875 631.293 95.026L630.716 97.2863L630.148 99.5466C630.11 99.6981 630.101 99.8558 630.124 100.011C630.146 100.165 630.199 100.314 630.28 100.448C630.36 100.582 630.467 100.699 630.593 100.792C630.719 100.885 630.862 100.951 631.014 100.988L634.159 101.788L634.699 102.449C634.762 103.214 634.886 103.973 635.071 104.718C634.941 105.025 634.838 105.304 634.708 105.649L631.917 107.314C631.783 107.393 631.667 107.498 631.575 107.622C631.482 107.747 631.416 107.889 631.378 108.039C631.341 108.19 631.334 108.346 631.358 108.499C631.382 108.653 631.435 108.8 631.516 108.932L632.707 110.941L633.908 112.941C634.069 113.212 634.33 113.408 634.636 113.487C634.941 113.565 635.265 113.519 635.536 113.36L638.505 111.583C638.642 111.498 638.789 111.429 638.942 111.378C639.738 112.099 640.615 112.723 641.557 113.239C641.548 113.412 641.52 113.583 641.473 113.75L640.543 117.387C640.515 117.507 640.515 117.631 640.543 117.75C640.561 117.861 640.599 117.968 640.654 118.066C640.781 118.269 640.981 118.416 641.213 118.476L643.753 119.117L646.303 119.759C646.534 119.813 646.777 119.776 646.982 119.657C647.082 119.603 647.168 119.527 647.233 119.434C647.307 119.336 647.36 119.226 647.391 119.108L648.322 115.471C648.326 115.453 648.326 115.434 648.322 115.415C648.368 115.266 648.424 115.118 648.48 114.987C649.561 114.97 650.635 114.823 651.681 114.55C651.792 114.669 651.889 114.8 651.97 114.941L653.747 117.899C653.826 118.034 653.93 118.152 654.055 118.246C654.18 118.341 654.322 118.409 654.474 118.448C654.625 118.487 654.783 118.496 654.938 118.473C655.092 118.451 655.241 118.398 655.375 118.317L657.376 117.117L659.377 115.918C659.512 115.839 659.63 115.734 659.724 115.609C659.818 115.484 659.886 115.342 659.925 115.19C659.963 115.038 659.97 114.88 659.946 114.726C659.923 114.571 659.868 114.423 659.786 114.29L658.13 111.499C658.13 111.164 658.195 110.867 658.241 110.569C658.764 109.995 659.232 109.372 659.637 108.709L660.437 108.383L663.583 109.174C663.887 109.25 664.21 109.203 664.48 109.043C664.75 108.882 664.946 108.622 665.025 108.318L665.593 106.058L666.16 103.797C666.199 103.647 666.208 103.49 666.186 103.335C666.164 103.181 666.112 103.032 666.032 102.898C665.953 102.764 665.847 102.648 665.722 102.554C665.597 102.461 665.455 102.394 665.304 102.356L662.168 101.565L661.759 101.044C661.733 100.104 661.608 99.1683 661.387 98.2537C661.461 98.0863 661.526 97.9188 661.591 97.7514L664.383 96.0864C664.652 95.9241 664.847 95.6619 664.923 95.3569C665 95.0519 664.953 94.729 664.792 94.4586L663.592 92.4588L662.392 90.4589C662.313 90.3238 662.208 90.2057 662.083 90.1114C661.958 90.0171 661.816 89.9485 661.665 89.9096C661.513 89.8706 661.356 89.8622 661.201 89.8846C661.046 89.907 660.897 89.96 660.763 90.0403L657.971 91.7053H657.553C656.785 90.9642 655.929 90.3206 655.003 89.7892L654.863 89.445L655.654 86.301C655.73 85.9952 655.682 85.6716 655.52 85.4014C655.358 85.1311 655.095 84.9362 654.789 84.8593L652.528 84.2919L650.239 83.7152C650.143 83.7011 650.046 83.7011 649.95 83.7152C649.682 83.7158 649.422 83.8085 649.213 83.9778C649.005 84.1471 648.861 84.3828 648.806 84.6454M646.926 106.393C645.659 106.08 644.558 105.297 643.849 104.201C643.139 103.106 642.875 101.781 643.109 100.498C643.343 99.2139 644.058 98.0677 645.108 97.2928C646.158 96.5178 647.465 96.1725 648.761 96.3272C650.057 96.4819 651.245 97.125 652.083 98.1253C652.922 99.1257 653.347 100.408 653.272 101.711C653.197 103.013 652.627 104.238 651.68 105.136C650.733 106.034 649.478 106.536 648.173 106.541C647.753 106.542 647.334 106.492 646.926 106.393Z" stroke="white" stroke-width="2.53" stroke-miterlimit="10"/>
<mask id="mask10_1_3511" style="mask-type:luminance" maskUnits="userSpaceOnUse" x="602" y="61" width="38" height="38">
<path d="M615.856 79.9942C615.793 78.9899 616.03 77.9896 616.536 77.1199C617.042 76.2501 617.795 75.5499 618.7 75.1078C619.604 74.6658 620.619 74.5017 621.617 74.6363C622.614 74.7709 623.55 75.1982 624.304 75.8641C625.059 76.5301 625.599 77.4048 625.857 78.3776C626.114 79.3504 626.077 80.3777 625.75 81.3295C625.424 82.2813 624.822 83.1149 624.021 83.725C623.221 84.335 622.257 84.6941 621.253 84.7567H620.927C619.635 84.7524 618.394 84.2584 617.452 83.3745C616.511 82.4905 615.94 81.2825 615.856 79.9942ZM622.183 61.8374L619.857 61.9769L617.521 62.1258C617.365 62.134 617.213 62.1732 617.073 62.2411C616.932 62.309 616.807 62.4042 616.704 62.5211C616.601 62.6381 616.522 62.7744 616.472 62.9221C616.422 63.0698 616.402 63.226 616.414 63.3815L616.609 66.6092L616.404 66.9161C615.399 67.2702 614.439 67.7449 613.548 68.33H613.129L610.7 66.1906C610.584 66.0868 610.448 66.007 610.301 65.9559C610.153 65.9049 609.997 65.8835 609.842 65.893C609.686 65.9025 609.534 65.9427 609.393 66.0114C609.253 66.08 609.128 66.1757 609.025 66.2929L607.481 68.0416L605.936 69.7624C605.832 69.8788 605.752 70.0146 605.701 70.1619C605.65 70.3092 605.629 70.4652 605.638 70.6209C605.648 70.7765 605.688 70.9288 605.757 71.0688C605.825 71.2088 605.921 71.3339 606.038 71.4367L608.467 73.5854C608.467 73.7621 608.541 73.9389 608.569 74.1156C608.187 74.9785 607.897 75.8796 607.704 76.8038L607.192 77.241L603.973 77.4363C603.658 77.4555 603.364 77.5984 603.155 77.8337C602.946 78.069 602.838 78.3776 602.856 78.692L603.005 81.0267L603.144 83.3521C603.164 83.6664 603.307 83.9603 603.542 84.1695C603.777 84.3787 604.086 84.4862 604.401 84.4683L607.639 84.273C607.881 84.4218 608.113 84.5707 608.355 84.7381C608.648 85.4465 608.997 86.1308 609.398 86.7845C609.398 87.1193 609.398 87.417 609.332 87.7146L607.183 90.2261C607.079 90.3424 606.999 90.4782 606.948 90.6256C606.897 90.7729 606.876 90.9289 606.885 91.0845C606.895 91.2402 606.935 91.3924 607.004 91.5324C607.072 91.6725 607.168 91.7975 607.285 91.9004L609.035 93.4445L610.784 94.9978C611.021 95.2029 611.329 95.307 611.642 95.2878C611.955 95.2687 612.249 95.1279 612.459 94.8955L614.748 92.3096C614.858 92.1861 614.979 92.0739 615.111 91.9748C616.087 92.436 617.115 92.7795 618.173 92.998C618.22 93.1647 618.248 93.3364 618.256 93.5096L618.48 97.2302C618.489 97.3497 618.521 97.4663 618.573 97.5744C618.625 97.6779 618.698 97.7696 618.787 97.8441C618.872 97.9242 618.973 97.9854 619.084 98.0238C619.195 98.0623 619.312 98.0771 619.429 98.0674L622.053 97.9093L624.677 97.7511C624.913 97.7308 625.133 97.621 625.291 97.4442C625.368 97.3618 625.425 97.2632 625.459 97.1558C625.505 97.0441 625.524 96.9229 625.514 96.8024L625.282 93.0817C625.282 93.0817 625.282 93.0352 625.282 93.0073C625.273 92.8586 625.273 92.7095 625.282 92.5608C626.316 92.2142 627.303 91.7425 628.222 91.1562C628.363 91.2344 628.494 91.328 628.613 91.4353L631.209 93.7235C631.326 93.8273 631.462 93.9071 631.609 93.9581C631.756 94.0092 631.912 94.0306 632.068 94.0211C632.224 94.0116 632.376 93.9714 632.516 93.9027C632.656 93.8341 632.781 93.7384 632.884 93.6212L634.42 91.8725L635.974 90.1238C636.078 90.0074 636.157 89.8716 636.208 89.7243C636.259 89.5769 636.281 89.4209 636.271 89.2653C636.262 89.1096 636.222 88.9574 636.153 88.8174C636.084 88.6774 635.989 88.5523 635.871 88.4495L633.443 86.3101L633.257 85.3799C633.578 84.6839 633.839 83.962 634.038 83.2219L634.699 82.6638L637.937 82.4685C638.092 82.459 638.244 82.419 638.384 82.3507C638.524 82.2824 638.649 82.1872 638.752 82.0705C638.855 81.9538 638.933 81.818 638.984 81.6708C639.034 81.5236 639.054 81.368 639.044 81.2128L638.905 78.8781L638.765 76.5526C638.746 76.2383 638.603 75.9445 638.368 75.7353C638.132 75.5261 637.823 75.4186 637.509 75.4364L634.28 75.6411L633.731 75.269C633.42 74.3742 633.018 73.5139 632.531 72.7017C632.531 72.5157 632.531 72.3483 632.531 72.1622L634.671 69.7345C634.775 69.6181 634.855 69.4824 634.906 69.335C634.957 69.1877 634.978 69.0317 634.969 68.8761C634.959 68.7204 634.919 68.5682 634.85 68.4281C634.782 68.2881 634.686 68.1631 634.569 68.0602L632.828 66.5161L631.079 64.9721C630.962 64.868 630.825 64.788 630.677 64.7368C630.529 64.6856 630.372 64.6642 630.216 64.6737C630.059 64.6832 629.906 64.7235 629.765 64.7922C629.624 64.861 629.498 64.9569 629.395 65.0744L627.255 67.4928L626.845 67.5672C625.884 67.1012 624.873 66.7485 623.83 66.5161C623.758 66.419 623.68 66.3258 623.598 66.2371L623.458 62.9722C623.439 62.672 623.306 62.3903 623.087 62.1846C622.867 61.9789 622.577 61.8647 622.276 61.8653H622.202" fill="white"/>
</mask>
<g mask="url(#mask10_1_3511)">
<path d="M607.008 50.3306L591.309 93.9434L634.965 109.646L650.664 66.0331L607.008 50.3306Z" fill="#DFE2EC"/>
</g>
<path d="M622.183 61.8374L619.857 61.9769L617.521 62.1258C617.365 62.134 617.213 62.1732 617.073 62.2411C616.932 62.309 616.807 62.4042 616.704 62.5211C616.601 62.6381 616.522 62.7744 616.472 62.9221C616.422 63.0698 616.402 63.226 616.414 63.3815L616.609 66.6092L616.404 66.9161C615.399 67.2702 614.439 67.7449 613.548 68.33H613.129L610.7 66.1906C610.584 66.0868 610.448 66.007 610.301 65.9559C610.153 65.9049 609.997 65.8835 609.842 65.893C609.686 65.9025 609.534 65.9427 609.393 66.0114C609.253 66.08 609.128 66.1757 609.025 66.2929L607.481 68.0416L605.936 69.7624C605.832 69.8788 605.752 70.0146 605.701 70.1619C605.65 70.3092 605.629 70.4652 605.638 70.6209C605.648 70.7765 605.688 70.9288 605.757 71.0688C605.825 71.2088 605.921 71.3339 606.038 71.4367L608.467 73.5854C608.467 73.7621 608.541 73.9389 608.569 74.1156C608.187 74.9785 607.897 75.8796 607.704 76.8038L607.192 77.241L603.973 77.4363C603.658 77.4555 603.364 77.5984 603.155 77.8337C602.946 78.069 602.838 78.3776 602.856 78.692L603.005 81.0267L603.144 83.3521C603.164 83.6664 603.307 83.9603 603.542 84.1695C603.777 84.3787 604.086 84.4861 604.401 84.4683L607.639 84.273C607.881 84.4218 608.113 84.5707 608.355 84.7381C608.648 85.4465 608.997 86.1308 609.398 86.7845C609.398 87.1193 609.398 87.417 609.332 87.7146L607.183 90.2261C607.079 90.3424 606.999 90.4782 606.948 90.6256C606.897 90.7729 606.876 90.9289 606.885 91.0845C606.895 91.2402 606.935 91.3924 607.004 91.5324C607.072 91.6725 607.168 91.7975 607.285 91.9004L609.035 93.4445L610.784 94.9978C611.021 95.2029 611.329 95.307 611.642 95.2878C611.955 95.2687 612.249 95.1279 612.459 94.8955L614.748 92.3096C614.858 92.1861 614.979 92.0739 615.111 91.9748C616.087 92.436 617.115 92.7795 618.173 92.998C618.22 93.1647 618.248 93.3364 618.256 93.5096L618.48 97.2302C618.489 97.3497 618.521 97.4663 618.573 97.5744C618.625 97.6779 618.698 97.7696 618.787 97.8441C618.872 97.9242 618.973 97.9854 619.084 98.0238C619.195 98.0623 619.312 98.0771 619.429 98.0674L622.053 97.9093L624.677 97.7511C624.913 97.7308 625.133 97.621 625.291 97.4442C625.368 97.3618 625.425 97.2632 625.459 97.1558C625.505 97.0441 625.524 96.9229 625.514 96.8024L625.282 93.0817C625.282 93.0817 625.282 93.0352 625.282 93.0073C625.273 92.8586 625.273 92.7095 625.282 92.5608C626.316 92.2142 627.303 91.7425 628.222 91.1562C628.363 91.2344 628.494 91.328 628.613 91.4353L631.209 93.7235C631.326 93.8273 631.462 93.9071 631.609 93.9581C631.756 94.0092 631.912 94.0306 632.068 94.0211C632.224 94.0116 632.376 93.9714 632.516 93.9027C632.656 93.8341 632.781 93.7384 632.884 93.6212L634.42 91.8725L635.974 90.1238C636.078 90.0074 636.157 89.8716 636.208 89.7243C636.259 89.5769 636.281 89.4209 636.271 89.2653C636.262 89.1096 636.222 88.9574 636.153 88.8174C636.084 88.6774 635.989 88.5523 635.871 88.4495L633.443 86.3101L633.257 85.3799C633.578 84.6839 633.839 83.962 634.038 83.2219L634.699 82.6638L637.937 82.4685C638.092 82.459 638.244 82.419 638.384 82.3507C638.524 82.2824 638.649 82.1872 638.752 82.0705C638.855 81.9538 638.933 81.818 638.984 81.6708C639.034 81.5236 639.054 81.368 639.044 81.2128L638.905 78.8781L638.765 76.5526C638.746 76.2383 638.603 75.9445 638.368 75.7353C638.132 75.5261 637.823 75.4186 637.509 75.4364L634.28 75.6411L633.731 75.269C633.42 74.3742 633.018 73.5139 632.531 72.7017C632.531 72.5157 632.531 72.3483 632.531 72.1622L634.671 69.7345C634.775 69.6181 634.855 69.4824 634.906 69.335C634.957 69.1877 634.978 69.0317 634.969 68.8761C634.959 68.7204 634.919 68.5682 634.85 68.4281C634.782 68.2881 634.686 68.1631 634.569 68.0602L632.828 66.5161L631.079 64.9721C630.962 64.868 630.825 64.788 630.677 64.7368C630.529 64.6856 630.372 64.6642 630.216 64.6737C630.059 64.6832 629.906 64.7235 629.765 64.7922C629.624 64.861 629.498 64.9569 629.395 65.0744L627.255 67.4928L626.845 67.5672C625.884 67.1012 624.873 66.7485 623.83 66.5161C623.758 66.419 623.68 66.3258 623.598 66.2371L623.458 62.9722C623.439 62.672 623.306 62.3903 623.087 62.1846C622.867 61.9789 622.577 61.8647 622.276 61.8653H622.202M615.856 79.9942C615.793 78.9899 616.03 77.9896 616.536 77.1199C617.042 76.2501 617.795 75.5499 618.7 75.1078C619.604 74.6658 620.619 74.5017 621.617 74.6363C622.614 74.7709 623.55 75.1982 624.304 75.8641C625.059 76.5301 625.599 77.4048 625.857 78.3776C626.114 79.3504 626.077 80.3777 625.75 81.3295C625.424 82.2813 624.822 83.1149 624.021 83.725C623.221 84.335 622.257 84.6941 621.253 84.7567H620.927C619.635 84.7524 618.394 84.2584 617.452 83.3745C616.511 82.4905 615.94 81.2825 615.856 79.9942Z" stroke="white" stroke-width="2.53" stroke-miterlimit="10"/>
</g>
<defs>
<linearGradient id="paint0_linear_1_3511" x1="531.34" y1="65.4426" x2="531.34" y2="33.9968" gradientUnits="userSpaceOnUse">
<stop stop-color="#FBD689"/>
<stop offset="0.07" stop-color="#FBD689"/>
<stop offset="0.26" stop-color="#F8C887"/>
<stop offset="0.62" stop-color="#EFA380"/>
<stop offset="1" stop-color="#E57578"/>
</linearGradient>
<clipPath id="clip0_1_3511">
<rect width="746" height="524" fill="white"/>
</clipPath>
</defs>
</svg>
