<svg width="31" height="30" viewBox="0 0 31 30" fill="none" xmlns="http://www.w3.org/2000/svg">
<path d="M15.6001 29.589C23.6576 29.589 30.1895 23.0571 30.1895 14.9996C30.1895 6.94205 23.6576 0.410156 15.6001 0.410156C7.54264 0.410156 1.01074 6.94205 1.01074 14.9996C1.01074 23.0571 7.54264 29.589 15.6001 29.589Z" stroke="#101010" stroke-width="0.821138"/>
<path d="M15.5993 11.5322C14.6796 11.5322 13.7975 11.8976 13.1471 12.548C12.4967 13.1983 12.1313 14.0804 12.1313 15.0002C12.1313 15.92 12.4967 16.8021 13.1471 17.4525C13.7975 18.1028 14.6796 18.4682 15.5993 18.4682C16.5191 18.4682 17.4012 18.1028 18.0516 17.4525C18.702 16.8021 19.0673 15.92 19.0673 15.0002C19.0673 14.0804 18.702 13.1983 18.0516 12.548C17.4012 11.8976 16.5191 11.5322 15.5993 11.5322ZM15.5993 17.2525C15.0018 17.2525 14.4288 17.0151 14.0062 16.5926C13.5837 16.1701 13.3463 15.597 13.3463 14.9995C13.3463 14.4019 13.5837 13.8289 14.0062 13.4064C14.4288 12.9838 15.0018 12.7465 15.5993 12.7465C16.1969 12.7465 16.7699 12.9838 17.1925 13.4064C17.615 13.8289 17.8523 14.4019 17.8523 14.9995C17.8523 15.597 17.615 16.1701 17.1925 16.5926C16.7699 17.0151 16.1969 17.2525 15.5993 17.2525Z" fill="#101010"/>
<path d="M19.2045 12.2137C19.651 12.2137 20.013 11.8517 20.013 11.4052C20.013 10.9587 19.651 10.5967 19.2045 10.5967C18.758 10.5967 18.396 10.9587 18.396 11.4052C18.396 11.8517 18.758 12.2137 19.2045 12.2137Z" fill="#101010"/>
<path d="M21.9998 10.5834C21.8262 10.135 21.5609 9.72787 21.2208 9.38796C20.8808 9.04804 20.4735 8.78287 20.0251 8.60941C19.5003 8.41243 18.9459 8.30592 18.3856 8.29441C17.6633 8.26291 17.4346 8.25391 15.6031 8.25391C13.7716 8.25391 13.5368 8.25391 12.8206 8.29441C12.2606 8.30533 11.7066 8.41186 11.1826 8.60941C10.734 8.78266 10.3266 9.04776 9.98656 9.38771C9.64646 9.72765 9.38116 10.1349 9.20776 10.5834C9.01076 11.1081 8.90446 11.6625 8.89356 12.2229C8.86126 12.9444 8.85156 13.1731 8.85156 15.0054C8.85156 16.8369 8.85156 17.0701 8.89356 17.7879C8.90476 18.3489 9.01056 18.9024 9.20776 19.4281C9.38166 19.8764 9.64716 20.2835 9.98736 20.6234C10.3275 20.9633 10.7349 21.2285 11.1833 21.4021C11.7064 21.607 12.2606 21.7211 12.8221 21.7396C13.5443 21.7711 13.7731 21.7809 15.6046 21.7809C17.4361 21.7809 17.6708 21.7809 18.3871 21.7396C18.9474 21.7282 19.5017 21.622 20.0266 21.4254C20.4749 21.2515 20.882 20.9861 21.222 20.6461C21.562 20.3061 21.8275 19.8989 22.0013 19.4506C22.1986 18.9256 22.3043 18.3721 22.3156 17.8111C22.3478 17.0896 22.3576 16.8609 22.3576 15.0286C22.3576 13.1964 22.3576 12.9639 22.3156 12.2461C22.3068 11.6778 22.2 11.1153 21.9998 10.5834ZM21.0863 17.7324C21.0815 18.1646 21.0026 18.5928 20.8531 18.9984C20.7404 19.29 20.568 19.5549 20.3469 19.7759C20.1257 19.9969 19.8608 20.1692 19.5691 20.2816C19.168 20.4304 18.7443 20.5093 18.3166 20.5149C17.6041 20.5479 17.4031 20.5561 15.5761 20.5561C13.7476 20.5561 13.5608 20.5561 12.8348 20.5149C12.4073 20.5096 11.9838 20.4307 11.5831 20.2816C11.2903 20.1698 11.0243 19.9979 10.8022 19.7768C10.5801 19.5558 10.4069 19.2906 10.2938 18.9984C10.1464 18.5971 10.0675 18.174 10.0606 17.7466C10.0283 17.0341 10.0208 16.8331 10.0208 15.0061C10.0208 13.1784 10.0208 12.9916 10.0606 12.2649C10.0654 11.8329 10.1443 11.4049 10.2938 10.9996C10.5226 10.4079 10.9913 9.94216 11.5831 9.71566C11.984 9.56727 12.4073 9.48838 12.8348 9.48241C13.5481 9.45016 13.7483 9.44116 15.5761 9.44116C17.4038 9.44116 17.5913 9.44116 18.3166 9.48241C18.7444 9.48756 19.1681 9.56647 19.5691 9.71566C19.8608 9.82837 20.1257 10.0008 20.3468 10.2219C20.5679 10.443 20.7404 10.7079 20.8531 10.9996C21.0005 11.4008 21.0793 11.824 21.0863 12.2514C21.1186 12.9646 21.1268 13.1649 21.1268 14.9926C21.1268 16.8196 21.1268 17.0161 21.0946 17.7331L21.0863 17.7324Z" fill="#101010"/>
</svg>
