<svg width="59" height="59" viewBox="0 0 59 59" fill="none" xmlns="http://www.w3.org/2000/svg">
<circle cx="29.5" cy="29.5" r="29.5" fill="#609E45"/>
<g clip-path="url(#clip0_1_3703)">
<path d="M47.4165 29.5V47.4167" stroke="white" stroke-width="1.5" stroke-linecap="round" stroke-linejoin="round"/>
<path d="M11.5835 30.396H20.1118H23.4533H29.5002H34.9468H38.8885H47.4168" stroke="white" stroke-width="1.5" stroke-linecap="round" stroke-linejoin="round"/>
<path d="M47.4168 46.521H11.5835" stroke="white" stroke-width="1.5" stroke-linecap="round" stroke-linejoin="round"/>
<path d="M47.4168 38.4585H11.5835" stroke="white" stroke-width="1.5" stroke-linecap="round" stroke-linejoin="round"/>
<path d="M27.09 30.3956C28.2798 28.4751 29.0973 26.3478 29.4998 24.1248V23.6769C29.4592 22.4814 28.9957 21.3392 28.1919 20.4534C27.3881 19.5676 26.2961 18.9956 25.1103 18.8394C24.905 19.0768 24.6503 19.2663 24.364 19.3948C24.0777 19.5232 23.7667 19.5875 23.453 19.5829C22.8088 19.6016 22.1656 19.5231 21.5448 19.35C21.3537 19.4468 21.1683 19.5545 20.9894 19.6725C20.7387 19.5081 20.4751 19.3643 20.2011 19.2425C19.4616 18.9165 18.6622 18.7486 17.854 18.7498C16.4881 18.6915 15.155 19.1776 14.1472 20.1014C13.1395 21.0252 12.5395 22.3111 12.479 23.6769V24.1248C12.8816 26.3478 13.6991 28.4751 14.8888 30.3956" stroke="white" stroke-width="1.5" stroke-linecap="round" stroke-linejoin="round"/>
<path d="M20.5325 18.7231L19.1978 16.0625" stroke="white" stroke-width="1.5" stroke-linecap="round" stroke-linejoin="round"/>
<path d="M25.1104 18.8394C24.5908 19.4934 23.5517 19.8607 21.5271 19.359L20.9717 19.2067C20.9717 19.2067 20.9717 16.0713 25.4508 16.0713C25.582 16.532 25.6195 17.0144 25.561 17.4898C25.5025 17.9653 25.3493 18.4242 25.1104 18.8394Z" stroke="white" stroke-width="1.5" stroke-linecap="round" stroke-linejoin="round"/>
<path d="M11.5835 29.5V47.4167" stroke="white" stroke-width="1.5" stroke-linecap="round" stroke-linejoin="round"/>
<path d="M38.8885 30.396H34.0151H27.0904H26.5797H25.9974H20.1118" stroke="white" stroke-width="1.5" stroke-linecap="round" stroke-linejoin="round"/>
<path d="M20.1924 19.2427C20.2909 19.0635 20.4074 18.8933 20.5238 18.7231C21.3061 17.5855 22.2971 16.6066 23.4443 15.8385C25.2329 14.6326 27.3429 13.9927 29.5001 14.0021C31.1826 14.0021 32.8421 14.3922 34.3484 15.1417C35.8547 15.8912 37.1668 16.9797 38.1815 18.3217C39.1963 19.6637 39.8861 21.2227 40.1968 22.8762C40.5076 24.5298 40.4307 26.2328 39.9724 27.8516" stroke="white" stroke-width="1.5" stroke-linecap="round" stroke-linejoin="round"/>
<path d="M29.5 14.0022C29.5 14.0022 30.1092 11.5835 31.2917 11.5835" stroke="white" stroke-width="1.5" stroke-linecap="round" stroke-linejoin="round"/>
<path d="M29.0073 30.3957L29.9927 28.3442L29.0073 26.3017L29.9927 24.2592L29.0073 22.2078L29.9927 20.1563L29.0073 18.1049L29.9927 16.0534L29.0073 14.002" stroke="white" stroke-width="1.5" stroke-linecap="round" stroke-linejoin="round"/>
<path d="M34.5078 30.3957L35.3857 28.5771L34.5078 26.7586L35.3857 24.9311L34.5078 23.1126L35.3857 21.2851L34.5078 19.4665L35.3857 17.639L34.5078 15.8115" stroke="white" stroke-width="1.5" stroke-linecap="round" stroke-linejoin="round"/>
<path d="M23.4709 15.8115H23.4351H23.4709ZM23.4709 15.8115H23.4351L23.4709 15.8205H23.4351L23.4709 15.8294H23.4351L23.4709 15.8384L23.4351 15.9011L23.4709 15.9549L23.4351 16.0176L23.4709 16.0803L23.4351 16.143L23.4709 16.1967L23.4351 16.2684L23.4709 16.3311" stroke="white" stroke-width="1.5" stroke-linecap="round" stroke-linejoin="round"/>
<path d="M25.9971 30.396C26.1012 30.3399 26.2224 30.324 26.3375 30.3512L26.5794 30.396C29.031 30.7794 31.5273 30.7794 33.9789 30.396C34.4358 30.3422 34.8748 30.2706 35.4123 30.181C37.0948 29.8416 38.6473 29.0343 39.8914 27.8518C43.4031 24.7164 45.1589 19.646 45.1589 19.646L47.3358 20.2014L46.3325 22.4231C46.3325 22.4231 47.1387 26.8216 45.141 30.396" stroke="white" stroke-width="1.5" stroke-linecap="round" stroke-linejoin="round"/>
<path d="M308.104 -553.688H-310.021V64.4375H308.104V-553.688Z" stroke="white" stroke-width="1.5" stroke-linecap="round" stroke-linejoin="round"/>
</g>
<defs>
<clipPath id="clip0_1_3703">
<rect width="43" height="43" fill="white" transform="translate(8 8)"/>
</clipPath>
</defs>
</svg>
