<svg width="31" height="30" viewBox="0 0 31 30" fill="none" xmlns="http://www.w3.org/2000/svg">
<path d="M15.2002 29.589C23.2577 29.589 29.7896 23.0571 29.7896 14.9996C29.7896 6.94205 23.2577 0.410156 15.2002 0.410156C7.14274 0.410156 0.61084 6.94205 0.61084 14.9996C0.61084 23.0571 7.14274 29.589 15.2002 29.589Z" stroke="#101010" stroke-width="0.821138"/>
<path d="M10.1864 10.5584C11.1532 10.5584 11.9368 9.77474 11.9368 8.80802C11.9368 7.8413 11.1532 7.05762 10.1864 7.05762C9.21974 7.05762 8.43604 7.8413 8.43604 8.80802C8.43604 9.77474 9.21974 10.5584 10.1864 10.5584Z" fill="#101010"/>
<path d="M13.5899 11.8845V21.5957H16.6051V16.7933C16.6051 15.5261 16.8435 14.2989 18.4147 14.2989C19.9643 14.2989 19.9835 15.7477 19.9835 16.8733V21.5965H23V16.2709C23 13.6549 22.437 11.6445 19.3795 11.6445C17.9115 11.6445 16.9275 12.4501 16.5251 13.2125H16.4843V11.8845H13.5899ZM8.67627 11.8845H11.6963V21.5957H8.67627V11.8845Z" fill="#101010"/>
</svg>
