<svg width="31" height="30" viewBox="0 0 31 30" fill="none" xmlns="http://www.w3.org/2000/svg">
<path d="M15.5999 29.589C23.6574 29.589 30.1893 23.0571 30.1893 14.9996C30.1893 6.94205 23.6574 0.410156 15.5999 0.410156C7.5424 0.410156 1.0105 6.94205 1.0105 14.9996C1.0105 23.0571 7.5424 29.589 15.5999 29.589Z" stroke="#101010" stroke-width="0.821138"/>
<path d="M23.9999 10.7683C23.4269 11.0158 22.8019 11.1939 22.1589 11.2633C22.8269 10.8666 23.3269 10.2399 23.5649 9.50082C22.9389 9.87355 22.2519 10.1349 21.5369 10.2733C21.2369 9.9535 20.8759 9.69871 20.4739 9.52484C20.0719 9.35096 19.6379 9.26173 19.1999 9.2627C17.4279 9.2627 16.003 10.6989 16.003 12.4614C16.003 12.7089 16.0329 12.9564 16.0819 13.1945C13.4289 13.0558 11.0629 11.7883 9.48994 9.8477C9.20294 10.3373 9.05295 10.8947 9.05495 11.462C9.05495 12.572 9.61895 13.5508 10.4799 14.1264C9.97295 14.1064 9.47694 13.967 9.03394 13.7195V13.7589C9.03394 15.3133 10.1329 16.6014 11.5969 16.8977C11.3219 16.9691 11.0389 17.0056 10.7549 17.0064C10.5469 17.0064 10.3499 16.9858 10.1519 16.9577C10.5569 18.2252 11.7359 19.1458 13.1399 19.1758C12.0419 20.0364 10.6649 20.5427 9.17094 20.5427C8.90294 20.5427 8.65495 20.5333 8.39795 20.5033C9.81595 21.4127 11.498 21.9377 13.309 21.9377C19.189 21.9377 22.4069 17.0664 22.4069 12.8383C22.4069 12.6995 22.4069 12.5608 22.3969 12.422C23.0199 11.9664 23.5649 11.402 23.9999 10.7683Z" fill="#101010"/>
</svg>
