<svg width="50" height="50" viewBox="0 0 50 50" fill="none" xmlns="http://www.w3.org/2000/svg">
<path opacity="0.2" d="M45 0H5C2.23858 0 0 2.23858 0 5V45C0 47.7614 2.23858 50 5 50H45C47.7614 50 50 47.7614 50 45V5C50 2.23858 47.7614 0 45 0Z" fill="#609E45"/>
<path d="M26.744 15.633L34.272 20.5262C34.538 20.6991 34.671 20.7855 34.7674 20.9008C34.8527 21.0029 34.9167 21.121 34.9558 21.2481C35 21.3918 35 21.5504 35 21.8677V29.1994C35 30.8795 35 31.7196 34.673 32.3614C34.3854 32.9258 33.9265 33.3848 33.362 33.6724C32.7202 33.9994 31.8802 33.9994 30.2 33.9994H19.8C18.1198 33.9994 17.2798 33.9994 16.638 33.6724C16.0735 33.3848 15.6146 32.9258 15.327 32.3614C15 31.7196 15 30.8795 15 29.1994V21.8677C15 21.5504 15 21.3918 15.0442 21.2481C15.0833 21.121 15.1473 21.0029 15.2326 20.9008C15.329 20.7855 15.462 20.6991 15.728 20.5262L23.256 15.633M26.744 15.633C26.1127 15.2226 25.7971 15.0175 25.457 14.9377C25.1564 14.8671 24.8436 14.8671 24.543 14.9377C24.2029 15.0175 23.8873 15.2226 23.256 15.633M26.744 15.633L33.9681 20.3286C34.312 20.5522 34.484 20.664 34.5435 20.8057C34.5956 20.9296 34.5956 21.0692 34.5435 21.1931C34.484 21.3348 34.312 21.4466 33.9681 21.6701L26.744 26.3658C26.1127 26.7761 25.7971 26.9813 25.457 27.0611C25.1564 27.1316 24.8436 27.1316 24.543 27.0611C24.2029 26.9813 23.8873 26.7761 23.256 26.3658L16.0319 21.6701C15.688 21.4466 15.516 21.3348 15.4565 21.1931C15.4044 21.0692 15.4044 20.9296 15.4565 20.8057C15.516 20.664 15.688 20.5522 16.0319 20.3286L23.256 15.633" stroke="#609E45" stroke-width="2" stroke-linecap="round" stroke-linejoin="round"/>
</svg>
