<svg width="49" height="49" viewBox="0 0 49 49" fill="none" xmlns="http://www.w3.org/2000/svg">
<circle opacity="0.1" cx="24.5" cy="24.5" r="24.5" fill="#EF682E"/>
<path d="M26.4536 16.1948L32.727 20.2725C32.9486 20.4166 33.0595 20.4886 33.1398 20.5847C33.2109 20.6698 33.2643 20.7682 33.2969 20.8741C33.3337 20.9938 33.3337 21.126 33.3337 21.3904V27.5001C33.3337 28.9003 33.3337 29.6003 33.0612 30.1351C32.8215 30.6055 32.439 30.988 31.9686 31.2277C31.4339 31.5001 30.7338 31.5001 29.3337 31.5001H20.667C19.2669 31.5001 18.5668 31.5001 18.032 31.2277C17.5616 30.988 17.1792 30.6055 16.9395 30.1351C16.667 29.6003 16.667 28.9003 16.667 27.5001V21.3904C16.667 21.126 16.667 20.9938 16.7038 20.8741C16.7364 20.7682 16.7898 20.6698 16.8609 20.5847C16.9412 20.4886 17.052 20.4166 17.2737 20.2725L23.547 16.1948M26.4536 16.1948C25.9276 15.8529 25.6646 15.6819 25.3812 15.6154C25.1307 15.5566 24.87 15.5566 24.6195 15.6154C24.3361 15.6819 24.0731 15.8529 23.547 16.1948M26.4536 16.1948L32.4737 20.1078C32.7603 20.2941 32.9036 20.3873 32.9533 20.5054C32.9966 20.6086 32.9966 20.725 32.9533 20.8282C32.9036 20.9463 32.7603 21.0395 32.4737 21.2258L26.4536 25.1388C25.9276 25.4808 25.6646 25.6517 25.3812 25.7182C25.1307 25.777 24.87 25.777 24.6195 25.7182C24.3361 25.6517 24.0731 25.4808 23.547 25.1388L17.5269 21.2258C17.2403 21.0395 17.097 20.9463 17.0474 20.8282C17.004 20.725 17.004 20.6086 17.0474 20.5054C17.097 20.3873 17.2403 20.2941 17.5269 20.1079L23.547 16.1948" stroke="#EF682E" stroke-linecap="round" stroke-linejoin="round"/>
</svg>
