<svg width="50" height="50" viewBox="0 0 50 50" fill="none" xmlns="http://www.w3.org/2000/svg">
<rect opacity="0.2" width="50" height="50" rx="5" fill="white"/>
<path d="M26.744 15.6335L34.272 20.5267C34.538 20.6996 34.671 20.786 34.7674 20.9013C34.8527 21.0034 34.9167 21.1215 34.9558 21.2486C35 21.3923 35 21.5509 35 21.8682V29.1999C35 30.88 35 31.7201 34.673 32.3619C34.3854 32.9263 33.9265 33.3853 33.362 33.6729C32.7202 33.9999 31.8802 33.9999 30.2 33.9999H19.8C18.1198 33.9999 17.2798 33.9999 16.638 33.6729C16.0735 33.3853 15.6146 32.9263 15.327 32.3619C15 31.7201 15 30.88 15 29.1999V21.8682C15 21.5509 15 21.3923 15.0442 21.2486C15.0833 21.1215 15.1473 21.0034 15.2326 20.9013C15.329 20.786 15.462 20.6996 15.728 20.5267L23.256 15.6335M26.744 15.6335C26.1127 15.2231 25.7971 15.018 25.457 14.9382C25.1564 14.8676 24.8436 14.8676 24.543 14.9382C24.2029 15.018 23.8873 15.2231 23.256 15.6335M26.744 15.6335L33.9681 20.3291C34.312 20.5527 34.484 20.6645 34.5435 20.8062C34.5956 20.9301 34.5956 21.0697 34.5435 21.1936C34.484 21.3353 34.312 21.4471 33.9681 21.6706L26.744 26.3663C26.1127 26.7766 25.7971 26.9818 25.457 27.0616C25.1564 27.1321 24.8436 27.1321 24.543 27.0616C24.2029 26.9818 23.8873 26.7766 23.256 26.3663L16.0319 21.6706C15.688 21.4471 15.516 21.3353 15.4565 21.1936C15.4044 21.0697 15.4044 20.9301 15.4565 20.8062C15.516 20.6645 15.688 20.5527 16.0319 20.3291L23.256 15.6335" stroke="white" stroke-width="2" stroke-linecap="round" stroke-linejoin="round"/>
</svg>
