<svg width="30" height="30" viewBox="0 0 30 30" fill="none" xmlns="http://www.w3.org/2000/svg">
<path d="M29.5 15C29.5 23.0081 23.0081 29.5 15 29.5C6.99187 29.5 0.5 23.0081 0.5 15C0.5 6.99187 6.99187 0.5 15 0.5C23.0081 0.5 29.5 6.99187 29.5 15Z" stroke="white"/>
<path d="M16.17 15.852H15.67V16.352V22.86H13.86V16.352V15.852H13.36H11.5V14.1256H13.36H13.86V13.6256V11.6096C13.86 10.5461 14.1814 9.78253 14.6832 9.28512C15.1864 8.7864 15.9267 8.5 16.87 8.5C17.5089 8.5 18.0892 8.53216 18.48 8.56197V10.0536H17.53C16.8945 10.0536 16.3761 10.2027 16.0413 10.5973C15.7219 10.9738 15.67 11.463 15.67 11.8784V13.6256V14.1256H16.17H18.3117L18.0901 15.852H16.17Z" fill="white" stroke="white"/>
</svg>
