<svg width="105" height="105" viewBox="0 0 105 105" fill="none" xmlns="http://www.w3.org/2000/svg">
<g filter="url(#filter0_d_1_227)">
<circle cx="52.5" cy="46.5" r="27.5" fill="white"/>
<circle cx="52.5" cy="46.5" r="27" stroke="#EF682E" stroke-opacity="0.2"/>
</g>
<g clip-path="url(#clip0_1_227)">
<path d="M65.333 47V60.3333" stroke="#609E45" stroke-width="1.5" stroke-linecap="round" stroke-linejoin="round"/>
<path d="M38.667 47.6667H45.0137H47.5003H52.0003H56.0537H58.987H65.3337" stroke="#609E45" stroke-width="1.5" stroke-linecap="round" stroke-linejoin="round"/>
<path d="M65.3337 59.6667H38.667" stroke="#609E45" stroke-width="1.5" stroke-linecap="round" stroke-linejoin="round"/>
<path d="M65.3337 53.6667H38.667" stroke="#609E45" stroke-width="1.5" stroke-linecap="round" stroke-linejoin="round"/>
<path d="M50.2063 47.6667C51.0917 46.2375 51.7001 44.6544 51.9997 43.0001V42.6667C51.9694 41.7771 51.6245 40.9271 51.0264 40.2678C50.4282 39.6086 49.6155 39.183 48.733 39.0667C48.5803 39.2434 48.3907 39.3845 48.1776 39.4801C47.9646 39.5756 47.7332 39.6234 47.4997 39.6201C47.0203 39.634 46.5416 39.5755 46.0797 39.4467C45.9374 39.5188 45.7994 39.5989 45.6663 39.6867C45.4798 39.5644 45.2836 39.4574 45.0797 39.3667C44.5294 39.1241 43.9344 38.9992 43.333 39.0001C42.3166 38.9567 41.3244 39.3184 40.5745 40.0059C39.8245 40.6934 39.378 41.6504 39.333 42.6667V43.0001C39.6326 44.6544 40.241 46.2375 41.1263 47.6667" stroke="#609E45" stroke-width="1.5" stroke-linecap="round" stroke-linejoin="round"/>
<path d="M45.3263 38.98L44.333 37" stroke="#609E45" stroke-width="1.5" stroke-linecap="round" stroke-linejoin="round"/>
<path d="M48.7333 39.0666C48.3467 39.5533 47.5733 39.8266 46.0667 39.4533L45.6533 39.3399C45.6533 39.3399 45.6533 37.0066 48.9867 37.0066C49.0843 37.3495 49.1121 37.7084 49.0686 38.0622C49.0251 38.4161 48.9111 38.7576 48.7333 39.0666Z" stroke="#609E45" stroke-width="1.5" stroke-linecap="round" stroke-linejoin="round"/>
<path d="M38.667 47V60.3333" stroke="#609E45" stroke-width="1.5" stroke-linecap="round" stroke-linejoin="round"/>
<path d="M58.987 47.6667H55.3603H50.207H49.827H49.3937H45.0137" stroke="#609E45" stroke-width="1.5" stroke-linecap="round" stroke-linejoin="round"/>
<path d="M45.0732 39.3666C45.1466 39.2333 45.2332 39.1066 45.3199 38.98C45.902 38.1334 46.6395 37.4049 47.4932 36.8333C48.8243 35.9359 50.3946 35.4597 51.9999 35.4666C53.252 35.4667 54.487 35.757 55.608 36.3147C56.7289 36.8725 57.7053 37.6826 58.4605 38.6813C59.2157 39.68 59.729 40.8401 59.9603 42.0707C60.1915 43.3012 60.1343 44.5686 59.7932 45.7733" stroke="#609E45" stroke-width="1.5" stroke-linecap="round" stroke-linejoin="round"/>
<path d="M52 35.4667C52 35.4667 52.4533 33.6667 53.3333 33.6667" stroke="#609E45" stroke-width="1.5" stroke-linecap="round" stroke-linejoin="round"/>
<path d="M51.6338 47.6666L52.3671 46.1399L51.6338 44.6199L52.3671 43.0999L51.6338 41.5732L52.3671 40.0466L51.6338 38.5199L52.3671 36.9932L51.6338 35.4666" stroke="#609E45" stroke-width="1.5" stroke-linecap="round" stroke-linejoin="round"/>
<path d="M55.7266 47.6666L56.3799 46.3132L55.7266 44.9599L56.3799 43.5999L55.7266 42.2466L56.3799 40.8866L55.7266 39.5332L56.3799 38.1732L55.7266 36.8132" stroke="#609E45" stroke-width="1.5" stroke-linecap="round" stroke-linejoin="round"/>
<path d="M47.513 36.8132H47.4863H47.513ZM47.513 36.8132H47.4863L47.513 36.8199H47.4863L47.513 36.8266H47.4863L47.513 36.8332L47.4863 36.8799L47.513 36.9199L47.4863 36.9666L47.513 37.0132L47.4863 37.0599L47.513 37.0999L47.4863 37.1532L47.513 37.1999" stroke="#609E45" stroke-width="1.5" stroke-linecap="round" stroke-linejoin="round"/>
<path d="M49.3936 47.6667C49.4711 47.625 49.5612 47.6132 49.6469 47.6334L49.8269 47.6667C51.6514 47.9521 53.5091 47.9521 55.3336 47.6667C55.6736 47.6267 56.0002 47.5734 56.4002 47.5067C57.6523 47.2542 58.8077 46.6534 59.7336 45.7734C62.3469 43.4401 63.6536 39.6667 63.6536 39.6667L65.2736 40.0801L64.5269 41.7334C64.5269 41.7334 65.1269 45.0067 63.6402 47.6667" stroke="#609E45" stroke-width="1.5" stroke-linecap="round" stroke-linejoin="round"/>
<path d="M259.333 -387H-200.667V73H259.333V-387Z" stroke="#609E45" stroke-width="1.5" stroke-linecap="round" stroke-linejoin="round"/>
</g>
<defs>
<filter id="filter0_d_1_227" x="0" y="0" width="105" height="105" filterUnits="userSpaceOnUse" color-interpolation-filters="sRGB">
<feFlood flood-opacity="0" result="BackgroundImageFix"/>
<feColorMatrix in="SourceAlpha" type="matrix" values="0 0 0 0 0 0 0 0 0 0 0 0 0 0 0 0 0 0 127 0" result="hardAlpha"/>
<feOffset dy="6"/>
<feGaussianBlur stdDeviation="12.5"/>
<feComposite in2="hardAlpha" operator="out"/>
<feColorMatrix type="matrix" values="0 0 0 0 0 0 0 0 0 0 0 0 0 0 0 0 0 0 0.05 0"/>
<feBlend mode="normal" in2="BackgroundImageFix" result="effect1_dropShadow_1_227"/>
<feBlend mode="normal" in="SourceGraphic" in2="effect1_dropShadow_1_227" result="shape"/>
</filter>
<clipPath id="clip0_1_227">
<rect width="32" height="32" fill="white" transform="translate(36 31)"/>
</clipPath>
</defs>
</svg>
