<svg width="105" height="105" viewBox="0 0 105 105" fill="none" xmlns="http://www.w3.org/2000/svg">
<g filter="url(#filter0_d_1_220)">
<circle cx="52.5" cy="46.5" r="27.5" fill="white"/>
<circle cx="52.5" cy="46.5" r="27" stroke="#609E45"/>
</g>
<path d="M57.3337 52.3333V39.2667C57.3337 37.7732 57.3337 37.0265 57.043 36.456C56.7873 35.9543 56.3794 35.5463 55.8776 35.2906C55.3072 35 54.5605 35 53.067 35H42.9337C41.4402 35 40.6934 35 40.123 35.2906C39.6213 35.5463 39.2133 35.9543 38.9576 36.456C38.667 37.0265 38.667 37.7732 38.667 39.2667V48.0667C38.667 49.5601 38.667 50.3069 38.9576 50.8773C39.2133 51.3791 39.6213 51.787 40.123 52.0427C40.6934 52.3333 41.4402 52.3333 42.9337 52.3333H57.3337ZM57.3337 52.3333H63.2003C63.9471 52.3333 64.3204 52.3333 64.6056 52.188C64.8565 52.0602 65.0605 51.8562 65.1883 51.6053C65.3337 51.3201 65.3337 50.9467 65.3337 50.2V46.5503C65.3337 46.2242 65.3337 46.0611 65.2968 45.9077C65.2642 45.7716 65.2103 45.6416 65.1372 45.5223C65.0547 45.3877 64.9394 45.2724 64.7088 45.0418L61.9585 42.2915C61.7279 42.0609 61.6126 41.9456 61.478 41.8631C61.3587 41.79 61.2287 41.7362 61.0926 41.7035C60.9392 41.6667 60.7761 41.6667 60.45 41.6667H57.3337M48.0003 55.6667C48.0003 57.5076 46.5079 59 44.667 59C42.826 59 41.3337 57.5076 41.3337 55.6667C41.3337 53.8257 42.826 52.3333 44.667 52.3333C46.5079 52.3333 48.0003 53.8257 48.0003 55.6667ZM62.667 55.6667C62.667 57.5076 61.1746 59 59.3337 59C57.4927 59 56.0003 57.5076 56.0003 55.6667C56.0003 53.8257 57.4927 52.3333 59.3337 52.3333C61.1746 52.3333 62.667 53.8257 62.667 55.6667Z" stroke="#609E45" stroke-width="2" stroke-linecap="round" stroke-linejoin="round"/>
<defs>
<filter id="filter0_d_1_220" x="0" y="0" width="105" height="105" filterUnits="userSpaceOnUse" color-interpolation-filters="sRGB">
<feFlood flood-opacity="0" result="BackgroundImageFix"/>
<feColorMatrix in="SourceAlpha" type="matrix" values="0 0 0 0 0 0 0 0 0 0 0 0 0 0 0 0 0 0 127 0" result="hardAlpha"/>
<feOffset dy="6"/>
<feGaussianBlur stdDeviation="12.5"/>
<feComposite in2="hardAlpha" operator="out"/>
<feColorMatrix type="matrix" values="0 0 0 0 0 0 0 0 0 0 0 0 0 0 0 0 0 0 0.05 0"/>
<feBlend mode="normal" in2="BackgroundImageFix" result="effect1_dropShadow_1_220"/>
<feBlend mode="normal" in="SourceGraphic" in2="effect1_dropShadow_1_220" result="shape"/>
</filter>
</defs>
</svg>
