<svg width="30" height="26" viewBox="0 0 30 26" fill="none" xmlns="http://www.w3.org/2000/svg">
<path d="M20.3337 18.3333V5.26667C20.3337 3.77319 20.3337 3.02646 20.043 2.45603C19.7873 1.95426 19.3794 1.54631 18.8776 1.29065C18.3072 1 17.5605 1 16.067 1H5.93366C4.44019 1 3.69345 1 3.12302 1.29065C2.62125 1.54631 2.2133 1.95426 1.95764 2.45603C1.66699 3.02646 1.66699 3.77319 1.66699 5.26667V14.0667C1.66699 15.5601 1.66699 16.3069 1.95764 16.8773C2.2133 17.3791 2.62125 17.787 3.12302 18.0427C3.69345 18.3333 4.44019 18.3333 5.93366 18.3333H20.3337ZM20.3337 18.3333H26.2003C26.9471 18.3333 27.3204 18.3333 27.6056 18.188C27.8565 18.0602 28.0605 17.8562 28.1883 17.6053C28.3337 17.3201 28.3337 16.9467 28.3337 16.2V12.5503C28.3337 12.2242 28.3337 12.0611 28.2968 11.9077C28.2642 11.7716 28.2103 11.6416 28.1372 11.5223C28.0547 11.3877 27.9394 11.2724 27.7088 11.0418L24.9585 8.29151C24.7279 8.0609 24.6126 7.9456 24.478 7.86315C24.3587 7.79004 24.2287 7.73617 24.0926 7.70351C23.9392 7.66667 23.7761 7.66667 23.45 7.66667H20.3337M11.0003 21.6667C11.0003 23.5076 9.50794 25 7.66699 25C5.82604 25 4.33366 23.5076 4.33366 21.6667C4.33366 19.8257 5.82604 18.3333 7.66699 18.3333C9.50794 18.3333 11.0003 19.8257 11.0003 21.6667ZM25.667 21.6667C25.667 23.5076 24.1746 25 22.3337 25C20.4927 25 19.0003 23.5076 19.0003 21.6667C19.0003 19.8257 20.4927 18.3333 22.3337 18.3333C24.1746 18.3333 25.667 19.8257 25.667 21.6667Z" stroke="#609E45" stroke-width="2" stroke-linecap="round" stroke-linejoin="round"/>
</svg>
