<svg width="31" height="30" viewBox="0 0 31 30" fill="none" xmlns="http://www.w3.org/2000/svg">
<path d="M15.6001 29.5894C23.6576 29.5894 30.1896 23.0575 30.1896 15C30.1896 6.94254 23.6576 0.410645 15.6001 0.410645C7.54259 0.410645 1.01074 6.94254 1.01074 15C1.01074 23.0575 7.54259 29.5894 15.6001 29.5894Z" stroke="white" stroke-width="0.821138"/>
<path d="M15.5999 11.5327C14.6799 11.5327 13.7999 11.8981 13.1499 12.5485C12.4999 13.1988 12.1299 14.0809 12.1299 15.0007C12.1299 15.9205 12.4999 16.8026 13.1499 17.453C13.7999 18.1033 14.6799 18.4687 15.5999 18.4687C16.5199 18.4687 17.3999 18.1033 18.0499 17.453C18.6999 16.8026 19.0698 15.9205 19.0698 15.0007C19.0698 14.0809 18.6999 13.1988 18.0499 12.5485C17.3999 11.8981 16.5199 11.5327 15.5999 11.5327ZM15.5999 17.253C14.9999 17.253 14.4299 17.0156 14.0099 16.5931C13.5799 16.1706 13.3499 15.5975 13.3499 15C13.3499 14.4024 13.5799 13.8294 14.0099 13.4069C14.4299 12.9843 14.9999 12.747 15.5999 12.747C16.1999 12.747 16.7698 12.9843 17.1898 13.4069C17.6098 13.8294 17.8499 14.4024 17.8499 15C17.8499 15.5975 17.6098 16.1706 17.1898 16.5931C16.7698 17.0156 16.1999 17.253 15.5999 17.253Z" fill="white"/>
<path d="M19.1998 12.2137C19.6498 12.2137 20.0099 11.8517 20.0099 11.4052C20.0099 10.9587 19.6498 10.5967 19.1998 10.5967C18.7598 10.5967 18.3999 10.9587 18.3999 11.4052C18.3999 11.8517 18.7598 12.2137 19.1998 12.2137Z" fill="white"/>
<path d="M22.0001 10.5834C21.8301 10.135 21.5601 9.72791 21.2201 9.38801C20.8801 9.04801 20.4702 8.78291 20.0302 8.60941C19.5002 8.41241 18.9501 8.3059 18.3901 8.2944C17.6601 8.2629 17.4301 8.25391 15.6001 8.25391C13.7701 8.25391 13.5401 8.2539 12.8201 8.2944C12.2601 8.3053 11.7102 8.41191 11.1802 8.60941C10.7302 8.78271 10.3301 9.0478 9.99011 9.3877C9.65011 9.7276 9.38008 10.1349 9.21008 10.5834C9.01008 11.1081 8.90014 11.6625 8.89014 12.2229C8.86014 12.9444 8.8501 13.1732 8.8501 15.0054C8.8501 16.8369 8.85014 17.0702 8.89014 17.7879C8.90014 18.3489 9.01008 18.9024 9.21008 19.4282C9.38008 19.8765 9.65011 20.2836 9.99011 20.6235C10.3301 20.9634 10.7302 21.2286 11.1802 21.4022C11.7102 21.6071 12.2601 21.7212 12.8201 21.7397C13.5401 21.7712 13.7701 21.7809 15.6001 21.7809C17.4401 21.7809 17.6701 21.7809 18.3901 21.7397C18.9501 21.7283 19.5002 21.622 20.0302 21.4254C20.4702 21.2515 20.8801 20.9861 21.2201 20.6461C21.5601 20.3061 21.8301 19.899 22.0001 19.4507C22.2001 18.9257 22.3001 18.3722 22.3201 17.8112C22.3501 17.0897 22.3601 16.8609 22.3601 15.0287C22.3601 13.1964 22.3601 12.9639 22.3201 12.2462C22.3101 11.6779 22.2001 11.1153 22.0001 10.5834ZM21.0901 17.7324C21.0801 18.1646 21.0001 18.5928 20.8501 18.9984C20.7401 19.2901 20.5701 19.5549 20.3501 19.7759C20.1301 19.9969 19.8601 20.1692 19.5701 20.2817C19.1701 20.4305 18.7401 20.5094 18.3201 20.5149C17.6001 20.5479 17.4001 20.5562 15.5801 20.5562C13.7501 20.5562 13.5601 20.5562 12.8301 20.5149C12.4101 20.5097 11.9801 20.4308 11.5801 20.2817C11.2901 20.1699 11.0202 19.9979 10.8002 19.7769C10.5802 19.5558 10.4102 19.2906 10.2902 18.9984C10.1502 18.5972 10.0702 18.174 10.0602 17.7467C10.0302 17.0342 10.0201 16.8332 10.0201 15.0062C10.0201 13.1784 10.0202 12.9917 10.0602 12.2649C10.0702 11.8329 10.1402 11.405 10.2902 10.9997C10.5202 10.4079 10.9901 9.94221 11.5801 9.71571C11.9801 9.56731 12.4101 9.48841 12.8301 9.48241C13.5501 9.45021 13.7501 9.44121 15.5801 9.44121C17.4001 9.44121 17.5901 9.44121 18.3201 9.48241C18.7401 9.48761 19.1701 9.56651 19.5701 9.71571C19.8601 9.82841 20.1301 10.0008 20.3501 10.2219C20.5701 10.443 20.7401 10.708 20.8501 10.9997C21.0001 11.4009 21.0801 11.824 21.0901 12.2514C21.1201 12.9647 21.1301 13.1649 21.1301 14.9927C21.1301 16.8197 21.1301 17.0154 21.0901 17.7324Z" fill="white"/>
</svg>
