<svg width="31" height="30" viewBox="0 0 31 30" fill="none" xmlns="http://www.w3.org/2000/svg">
<path d="M15.2 29.5894C23.2575 29.5894 29.7894 23.0575 29.7894 15C29.7894 6.94254 23.2575 0.410645 15.2 0.410645C7.14245 0.410645 0.610596 6.94254 0.610596 15C0.610596 23.0575 7.14245 29.5894 15.2 29.5894Z" stroke="white" stroke-width="0.821138"/>
<path d="M10.1899 10.5579C11.1499 10.5579 11.9399 9.77423 11.9399 8.80753C11.9399 7.84083 11.1499 7.05713 10.1899 7.05713C9.21994 7.05713 8.43994 7.84083 8.43994 8.80753C8.43994 9.77423 9.21994 10.5579 10.1899 10.5579Z" fill="white"/>
<path d="M13.5901 11.8845V21.5957H16.6001V16.7933C16.6001 15.5261 16.8402 14.2989 18.4102 14.2989C19.9602 14.2989 19.9801 15.7477 19.9801 16.8733V21.5965H23.0001V16.2709C23.0001 13.6549 22.4401 11.6445 19.3801 11.6445C17.9101 11.6445 16.9301 12.4501 16.5201 13.2125H16.4801V11.8845H13.5901ZM8.68018 11.8845H11.7001V21.5957H8.68018V11.8845Z" fill="white"/>
</svg>
