<svg width="59" height="59" viewBox="0 0 59 59" fill="none" xmlns="http://www.w3.org/2000/svg">
<circle cx="29.5" cy="29.5" r="29.5" fill="#609E45"/>
<g clip-path="url(#clip0_1_140)">
<path d="M47.416 29.5V47.4167" stroke="white" stroke-width="1.5" stroke-linecap="round" stroke-linejoin="round"/>
<path d="M11.584 30.396H20.1123H23.4538H29.5007H34.9473H38.889H47.4173" stroke="white" stroke-width="1.5" stroke-linecap="round" stroke-linejoin="round"/>
<path d="M47.4173 46.521H11.584" stroke="white" stroke-width="1.5" stroke-linecap="round" stroke-linejoin="round"/>
<path d="M47.4173 38.4585H11.584" stroke="white" stroke-width="1.5" stroke-linecap="round" stroke-linejoin="round"/>
<path d="M27.0896 30.3956C28.2793 28.4751 29.0968 26.3478 29.4993 24.1248V23.6769C29.4587 22.4814 28.9952 21.3392 28.1914 20.4534C27.3877 19.5676 26.2957 18.9956 25.1098 18.8394C24.9045 19.0768 24.6498 19.2663 24.3635 19.3948C24.0772 19.5232 23.7662 19.5875 23.4525 19.5829C22.8083 19.6016 22.1651 19.5231 21.5443 19.35C21.3532 19.4468 21.1678 19.5545 20.9889 19.6725C20.7382 19.5081 20.4746 19.3643 20.2006 19.2425C19.4611 18.9165 18.6617 18.7486 17.8535 18.7498C16.4877 18.6915 15.1545 19.1776 14.1467 20.1014C13.139 21.0252 12.539 22.3111 12.4785 23.6769V24.1248C12.8811 26.3478 13.6986 28.4751 14.8883 30.3956" stroke="white" stroke-width="1.5" stroke-linecap="round" stroke-linejoin="round"/>
<path d="M20.5321 18.7231L19.1973 16.0625" stroke="white" stroke-width="1.5" stroke-linecap="round" stroke-linejoin="round"/>
<path d="M25.1095 18.8394C24.5899 19.4934 23.5507 19.8607 21.5261 19.359L20.9707 19.2067C20.9707 19.2067 20.9707 16.0713 25.4499 16.0713C25.581 16.532 25.6185 17.0144 25.56 17.4898C25.5016 17.9653 25.3483 18.4242 25.1095 18.8394Z" stroke="white" stroke-width="1.5" stroke-linecap="round" stroke-linejoin="round"/>
<path d="M11.584 29.5V47.4167" stroke="white" stroke-width="1.5" stroke-linecap="round" stroke-linejoin="round"/>
<path d="M38.888 30.396H34.0147H27.0899H26.5792H25.997H20.1113" stroke="white" stroke-width="1.5" stroke-linecap="round" stroke-linejoin="round"/>
<path d="M20.1914 19.2427C20.2899 19.0635 20.4064 18.8933 20.5229 18.7231C21.3051 17.5855 22.2961 16.6066 23.4433 15.8385C25.2319 14.6326 27.342 13.9927 29.4991 14.0021C31.1816 14.0021 32.8411 14.3922 34.3474 15.1417C35.8537 15.8912 37.1658 16.9797 38.1805 18.3217C39.1953 19.6637 39.8851 21.2227 40.1959 22.8762C40.5066 24.5298 40.4298 26.2328 39.9714 27.8516" stroke="white" stroke-width="1.5" stroke-linecap="round" stroke-linejoin="round"/>
<path d="M29.5 14.0022C29.5 14.0022 30.1092 11.5835 31.2917 11.5835" stroke="white" stroke-width="1.5" stroke-linecap="round" stroke-linejoin="round"/>
<path d="M29.0078 30.3957L29.9932 28.3442L29.0078 26.3017L29.9932 24.2592L29.0078 22.2078L29.9932 20.1563L29.0078 18.1049L29.9932 16.0534L29.0078 14.002" stroke="white" stroke-width="1.5" stroke-linecap="round" stroke-linejoin="round"/>
<path d="M34.5078 30.3957L35.3857 28.5771L34.5078 26.7586L35.3857 24.9311L34.5078 23.1126L35.3857 21.2851L34.5078 19.4665L35.3857 17.639L34.5078 15.8115" stroke="white" stroke-width="1.5" stroke-linecap="round" stroke-linejoin="round"/>
<path d="M23.4714 15.8115H23.4355H23.4714ZM23.4714 15.8115H23.4355L23.4714 15.8205H23.4355L23.4714 15.8294H23.4355L23.4714 15.8384L23.4355 15.9011L23.4714 15.9549L23.4355 16.0176L23.4714 16.0803L23.4355 16.143L23.4714 16.1967L23.4355 16.2684L23.4714 16.3311" stroke="white" stroke-width="1.5" stroke-linecap="round" stroke-linejoin="round"/>
<path d="M25.998 30.396C26.1022 30.3399 26.2233 30.324 26.3385 30.3512L26.5803 30.396C29.032 30.7794 31.5283 30.7794 33.9799 30.396C34.4368 30.3422 34.8758 30.2706 35.4133 30.181C37.0957 29.8416 38.6483 29.0343 39.8924 27.8518C43.4041 24.7164 45.1599 19.646 45.1599 19.646L47.3368 20.2014L46.3335 22.4231C46.3335 22.4231 47.1397 26.8216 45.142 30.396" stroke="white" stroke-width="1.5" stroke-linecap="round" stroke-linejoin="round"/>
<path d="M308.104 -553.688H-310.021V64.4375H308.104V-553.688Z" stroke="white" stroke-width="1.5" stroke-linecap="round" stroke-linejoin="round"/>
</g>
<defs>
<clipPath id="clip0_1_140">
<rect width="43" height="43" fill="white" transform="translate(8 8)"/>
</clipPath>
</defs>
</svg>
