<svg width="1920" height="350" viewBox="0 0 1920 350" fill="none" xmlns="http://www.w3.org/2000/svg">
<mask id="mask0_1_2628" style="mask-type:alpha" maskUnits="userSpaceOnUse" x="0" y="0" width="1920" height="350">
<rect width="1920" height="350" fill="#EF682E"/>
</mask>
<g mask="url(#mask0_1_2628)">
</g>
<g opacity="0.11" clip-path="url(#clip0_1_2628)">
<path d="M115.853 100.766L105.424 101.576M100.831 106.422L100.579 116.878M90.8487 108.459L102.259 106.13C103.183 105.941 103.645 105.847 104.01 105.614C104.333 105.409 104.6 105.127 104.788 104.794C105.001 104.417 105.07 103.95 105.209 103.018L106.926 91.4993M105.732 114.839L114.092 106.02C115.443 104.595 116.118 103.883 116.356 103.076C116.566 102.366 116.546 101.608 116.299 100.91C116.017 100.117 115.305 99.4417 113.88 98.0911L108.453 92.9462C107.028 91.5956 106.316 90.9203 105.509 90.6817C104.799 90.4718 104.04 90.4921 103.343 90.7395C102.55 91.0209 101.874 91.7333 100.524 93.1581L92.1633 101.977C90.8127 103.402 90.1373 104.115 89.8988 104.922C89.6889 105.632 89.7091 106.39 89.9566 107.087C90.238 107.881 90.9504 108.556 92.3751 109.906L97.8024 115.051C99.2272 116.402 99.9396 117.077 100.747 117.316C101.457 117.526 102.215 117.506 102.912 117.258C103.706 116.977 104.381 116.264 105.732 114.839Z" stroke="#EF682E" stroke-width="2" stroke-linecap="round" stroke-linejoin="round"/>
</g>
<g opacity="0.11">
<path d="M403.02 150.25L397.762 145.5M393.238 145.5L387.979 150.25M387.583 141.542L394.047 146.066C394.57 146.433 394.832 146.616 395.117 146.687C395.368 146.75 395.631 146.75 395.883 146.687C396.167 146.616 396.429 146.433 396.952 146.066L403.416 141.542M391.383 151.833H399.616C400.946 151.833 401.612 151.833 402.12 151.574C402.566 151.347 402.93 150.983 403.157 150.537C403.416 150.029 403.416 149.363 403.416 148.033V142.967C403.416 141.637 403.416 140.971 403.157 140.463C402.93 140.017 402.566 139.653 402.12 139.426C401.612 139.167 400.946 139.167 399.616 139.167H391.383C390.053 139.167 389.388 139.167 388.88 139.426C388.433 139.653 388.07 140.017 387.842 140.463C387.583 140.971 387.583 141.637 387.583 142.967V148.033C387.583 149.363 387.583 150.029 387.842 150.537C388.07 150.983 388.433 151.347 388.88 151.574C389.388 151.833 390.053 151.833 391.383 151.833Z" stroke="#EF682E" stroke-width="2" stroke-linecap="round" stroke-linejoin="round"/>
</g>
<g opacity="0.11">
<path d="M724.437 69.25L720.286 65.5M716.714 65.5L712.563 69.25M712.25 62.375L717.353 65.9472C717.766 66.2364 717.973 66.381 718.198 66.4371C718.396 66.4866 718.604 66.4866 718.802 66.4371C719.027 66.381 719.234 66.2364 719.647 65.9472L724.75 62.375M715.25 70.5H721.75C722.8 70.5 723.325 70.5 723.726 70.2956C724.079 70.1159 724.366 69.829 724.546 69.4762C724.75 69.0751 724.75 68.5501 724.75 67.5V63.5C724.75 62.4499 724.75 61.9249 724.546 61.5238C724.366 61.171 724.079 60.8841 723.726 60.7044C723.325 60.5 722.8 60.5 721.75 60.5H715.25C714.2 60.5 713.675 60.5 713.274 60.7044C712.921 60.8841 712.634 61.171 712.454 61.5238C712.25 61.9249 712.25 62.4499 712.25 63.5V67.5C712.25 68.5501 712.25 69.0751 712.454 69.4762C712.634 69.829 712.921 70.1159 713.274 70.2956C713.675 70.5 714.2 70.5 715.25 70.5Z" stroke="#EF682E" stroke-width="2" stroke-linecap="round" stroke-linejoin="round"/>
</g>
<g opacity="0.11">
<path d="M930.812 312.75L925 307.5M920 307.5L914.188 312.75M913.75 303.125L920.894 308.126C921.473 308.531 921.762 308.733 922.077 308.812C922.355 308.881 922.645 308.881 922.923 308.812C923.238 308.733 923.527 308.531 924.106 308.126L931.25 303.125M917.95 314.5H927.05C928.52 314.5 929.255 314.5 929.817 314.214C930.311 313.962 930.712 313.561 930.964 313.067C931.25 312.505 931.25 311.77 931.25 310.3V304.7C931.25 303.23 931.25 302.495 930.964 301.933C930.712 301.439 930.311 301.038 929.817 300.786C929.255 300.5 928.52 300.5 927.05 300.5H917.95C916.48 300.5 915.745 300.5 915.183 300.786C914.689 301.038 914.288 301.439 914.036 301.933C913.75 302.495 913.75 303.23 913.75 304.7V310.3C913.75 311.77 913.75 312.505 914.036 313.067C914.288 313.561 914.689 313.962 915.183 314.214C915.745 314.5 916.48 314.5 917.95 314.5Z" stroke="#EF682E" stroke-width="2" stroke-linecap="round" stroke-linejoin="round"/>
</g>
<g opacity="0.11">
<path d="M231.875 302.5L223.571 295M216.429 295L208.125 302.5M207.5 288.75L217.706 295.894C218.533 296.473 218.946 296.762 219.395 296.874C219.792 296.973 220.208 296.973 220.605 296.874C221.054 296.762 221.467 296.473 222.294 295.894L232.5 288.75M213.5 305H226.5C228.6 305 229.65 305 230.452 304.591C231.158 304.232 231.732 303.658 232.091 302.952C232.5 302.15 232.5 301.1 232.5 299V291C232.5 288.9 232.5 287.85 232.091 287.048C231.732 286.342 231.158 285.768 230.452 285.409C229.65 285 228.6 285 226.5 285H213.5C211.4 285 210.35 285 209.548 285.409C208.842 285.768 208.268 286.342 207.909 287.048C207.5 287.85 207.5 288.9 207.5 291V299C207.5 301.1 207.5 302.15 207.909 302.952C208.268 303.658 208.842 304.232 209.548 304.591C210.35 305 211.4 305 213.5 305Z" stroke="#EF682E" stroke-width="2" stroke-linecap="round" stroke-linejoin="round"/>
</g>
<g opacity="0.11">
<path d="M1835.97 80.812L1828.21 87.8229M1821.53 87.8229L1813.77 80.812M1813.19 93.6653L1822.73 86.9869C1823.5 86.4461 1823.89 86.1757 1824.31 86.071C1824.68 85.9785 1825.07 85.9785 1825.44 86.071C1825.86 86.1757 1826.24 86.4461 1827.02 86.9869L1836.56 93.6653M1818.8 78.4751H1830.95C1832.91 78.4751 1833.89 78.4751 1834.64 78.8571C1835.3 79.1932 1835.84 79.7295 1836.18 80.3891C1836.56 81.1389 1836.56 82.1205 1836.56 84.0838V91.5621C1836.56 93.5253 1836.56 94.5069 1836.18 95.2568C1835.84 95.9164 1835.3 96.4526 1834.64 96.7887C1833.89 97.1708 1832.91 97.1708 1830.95 97.1708H1818.8C1816.83 97.1708 1815.85 97.1708 1815.1 96.7887C1814.44 96.4526 1813.91 95.9164 1813.57 95.2568C1813.19 94.5069 1813.19 93.5253 1813.19 91.5621V84.0838C1813.19 82.1205 1813.19 81.1389 1813.57 80.3891C1813.91 79.7295 1814.44 79.1932 1815.1 78.8571C1815.85 78.4751 1816.83 78.4751 1818.8 78.4751Z" stroke="#EF682E" stroke-width="2" stroke-linecap="round" stroke-linejoin="round"/>
</g>
<g opacity="0.11" clip-path="url(#clip1_1_2628)">
<path d="M1523.79 127.517L1530.87 127.753M1534.13 130.896L1534.61 137.966M1540.94 131.976L1533.15 130.741C1532.52 130.641 1532.21 130.591 1531.95 130.444C1531.73 130.315 1531.54 130.132 1531.4 129.912C1531.24 129.663 1531.18 129.35 1531.06 128.723L1529.56 120.978M1531.06 136.74L1525.14 131.02C1524.18 130.096 1523.7 129.634 1523.52 129.095C1523.36 128.621 1523.35 128.107 1523.49 127.628C1523.66 127.082 1524.12 126.604 1525.05 125.647L1528.57 122.003C1529.49 121.046 1529.95 120.567 1530.49 120.382C1530.96 120.218 1531.48 120.21 1531.96 120.356C1532.5 120.523 1532.98 120.985 1533.94 121.909L1539.86 127.628C1540.82 128.552 1541.3 129.014 1541.48 129.553C1541.65 130.028 1541.65 130.541 1541.51 131.021C1541.34 131.566 1540.88 132.045 1539.96 133.001L1536.44 136.646C1535.51 137.603 1535.05 138.081 1534.51 138.267C1534.04 138.43 1533.52 138.439 1533.04 138.292C1532.5 138.126 1532.02 137.664 1531.06 136.74Z" stroke="#EF682E" stroke-width="2" stroke-linecap="round" stroke-linejoin="round"/>
</g>
<g opacity="0.11">
<path d="M1696.13 286.324L1704.43 278.824M1711.57 278.824L1719.87 286.324M1720.5 272.574L1710.29 279.719C1709.47 280.297 1709.05 280.586 1708.6 280.698C1708.21 280.797 1707.79 280.797 1707.4 280.698C1706.95 280.586 1706.53 280.297 1705.71 279.719L1695.5 272.574M1714.5 288.824H1701.5C1699.4 288.824 1698.35 288.824 1697.55 288.415C1696.84 288.056 1696.27 287.482 1695.91 286.777C1695.5 285.975 1695.5 284.924 1695.5 282.824V274.824C1695.5 272.724 1695.5 271.674 1695.91 270.872C1696.27 270.166 1696.84 269.592 1697.55 269.233C1698.35 268.824 1699.4 268.824 1701.5 268.824H1714.5C1716.6 268.824 1717.65 268.824 1718.45 269.233C1719.16 269.592 1719.73 270.166 1720.09 270.872C1720.5 271.674 1720.5 272.724 1720.5 274.824V282.824C1720.5 284.924 1720.5 285.975 1720.09 286.777C1719.73 287.482 1719.16 288.056 1718.45 288.415C1717.65 288.824 1716.6 288.824 1714.5 288.824Z" stroke="#EF682E" stroke-width="2" stroke-linecap="round" stroke-linejoin="round"/>
</g>
<defs>
<clipPath id="clip0_1_2628">
<rect width="28.0436" height="28.0436" fill="white" transform="translate(83.3047 104.528) rotate(-46.5303)"/>
</clipPath>
<clipPath id="clip1_1_2628">
<rect width="19" height="19" fill="white" transform="matrix(-0.71934 -0.694658 -0.694658 0.71934 1545.93 129.09)"/>
</clipPath>
</defs>
</svg>
