<svg width="128" height="43" viewBox="0 0 128 43" fill="none" xmlns="http://www.w3.org/2000/svg">
<mask id="mask0_13_10" style="mask-type:luminance" maskUnits="userSpaceOnUse" x="0" y="0" width="128" height="43">
<path d="M128 0H0V43H128V0Z" fill="white"/>
</mask>
<g mask="url(#mask0_13_10)">
<path d="M0 5.73333C0 2.5669 2.547 0 5.68889 0H122.311C125.453 0 128 2.5669 128 5.73333V37.2667C128 40.4333 125.453 43 122.311 43H5.68889C2.547 43 0 40.4333 0 37.2667V5.73333Z" fill="#101010"/>
<path d="M40.3223 26.7811C40.3223 25.8552 40.5339 25.0246 40.9573 24.2893C41.3896 23.554 41.9706 22.9821 42.7002 22.5736C43.4388 22.156 44.245 21.9472 45.1187 21.9472C46.1185 21.9472 47.0058 22.1969 47.7804 22.6961C48.564 23.1863 49.1315 23.8853 49.4828 24.7931H47.6318C47.3886 24.3211 47.0508 23.967 46.6184 23.731C46.1861 23.4859 45.6862 23.3634 45.1187 23.3634C44.4972 23.3634 43.9432 23.5041 43.4568 23.7855C42.9704 24.0669 42.5876 24.4663 42.3084 24.9837C42.0382 25.5012 41.9031 26.1003 41.9031 26.7811C41.9031 27.462 42.0382 28.0657 42.3084 28.5922C42.5876 29.1096 42.9704 29.509 43.4568 29.7904C43.9432 30.0718 44.4972 30.2125 45.1187 30.2125C45.9564 30.2125 46.6365 29.9765 47.1589 29.5045C47.6903 29.0233 48.0101 28.3743 48.1182 27.5573H44.5918V26.3454H49.7665V27.5573C49.6674 28.2926 49.4062 28.9689 48.9829 29.5862C48.5686 30.2035 48.0236 30.6982 47.348 31.0704C46.6815 31.4335 45.9384 31.6151 45.1187 31.6151C44.236 31.6151 43.4298 31.4108 42.7002 31.0023C41.9706 30.5847 41.3896 30.0083 40.9573 29.273C40.5339 28.5377 40.3223 27.7071 40.3223 26.7811ZM54.2446 31.6559C53.542 31.6559 52.907 31.4971 52.3395 31.1793C51.7721 30.8525 51.3262 30.3986 51.0019 29.8177C50.6777 29.2276 50.5155 28.5468 50.5155 27.7752C50.5155 27.0126 50.6822 26.3363 51.0155 25.7463C51.3488 25.1562 51.8036 24.7023 52.3801 24.3846C52.9566 24.0669 53.6006 23.908 54.3122 23.908C55.0238 23.908 55.6678 24.0669 56.2443 24.3846C56.8208 24.7023 57.2756 25.1562 57.6089 25.7463C57.9422 26.3363 58.1088 27.0126 58.1088 27.7752C58.1088 28.5377 57.9377 29.214 57.5954 29.804C57.2531 30.3941 56.7847 30.8525 56.1902 31.1793C55.6048 31.4971 54.9562 31.6559 54.2446 31.6559ZM54.2446 30.3487C54.641 30.3487 55.0103 30.2488 55.3525 30.0491C55.7038 29.8494 55.9875 29.5589 56.2037 29.1777C56.4199 28.7873 56.528 28.3198 56.528 27.7752C56.528 27.2305 56.4244 26.7675 56.2172 26.3863C56.0101 25.9959 55.7354 25.7054 55.3931 25.5148C55.0508 25.3151 54.6815 25.2152 54.2851 25.2152C53.8888 25.2152 53.524 25.3151 53.1907 25.5148C52.8575 25.7054 52.5873 25.9959 52.3801 26.3863C52.1819 26.7675 52.0828 27.2305 52.0828 27.7752C52.0828 28.3198 52.1774 28.7873 52.3666 29.1777C52.5648 29.568 52.8259 29.8631 53.1502 30.0628C53.4835 30.2534 53.8483 30.3487 54.2446 30.3487ZM62.5904 31.6559C61.8878 31.6559 61.2528 31.4971 60.6853 31.1793C60.1178 30.8525 59.672 30.3986 59.3477 29.8177C59.0234 29.2276 58.8613 28.5468 58.8613 27.7752C58.8613 27.0126 59.0279 26.3363 59.3612 25.7463C59.6945 25.1562 60.1494 24.7023 60.7258 24.3846C61.3023 24.0669 61.9463 23.908 62.6579 23.908C63.3695 23.908 64.0135 24.0669 64.59 24.3846C65.1665 24.7023 65.6214 25.1562 65.9546 25.7463C66.2879 26.3363 66.4545 27.0126 66.4545 27.7752C66.4545 28.5377 66.2834 29.214 65.9411 29.804C65.5989 30.3941 65.1304 30.8525 64.536 31.1793C63.9505 31.4971 63.302 31.6559 62.5904 31.6559ZM62.5904 30.3487C62.9867 30.3487 63.356 30.2488 63.6983 30.0491C64.0496 29.8494 64.3333 29.5589 64.5495 29.1777C64.7656 28.7873 64.8737 28.3198 64.8737 27.7752C64.8737 27.2305 64.7702 26.7675 64.563 26.3863C64.3558 25.9959 64.0811 25.7054 63.7388 25.5148C63.3965 25.3151 63.0272 25.2152 62.6309 25.2152C62.2346 25.2152 61.8698 25.3151 61.5365 25.5148C61.2032 25.7054 60.933 25.9959 60.7258 26.3863C60.5277 26.7675 60.4286 27.2305 60.4286 27.7752C60.4286 28.3198 60.5232 28.7873 60.7123 29.1777C60.9105 29.568 61.1717 29.8631 61.496 30.0628C61.8293 30.2534 62.1941 30.3487 62.5904 30.3487ZM70.7064 23.908C71.2829 23.908 71.7918 24.026 72.2332 24.2621C72.6836 24.489 73.0348 24.7749 73.2871 25.1199V24.0306H74.8408V31.6559C74.8408 32.3458 74.6967 32.9586 74.4085 33.4942C74.1202 34.0388 73.7014 34.4655 73.152 34.7741C72.6115 35.0828 71.963 35.2371 71.2064 35.2371C70.1975 35.2371 69.3598 34.9965 68.6933 34.5154C68.0267 34.0434 67.6484 33.3988 67.5584 32.5818H69.0851C69.2022 32.9722 69.4499 33.2854 69.8282 33.5214C70.2155 33.7665 70.6749 33.889 71.2064 33.889C71.8279 33.889 72.3278 33.6984 72.7061 33.3171C73.0934 32.9359 73.2871 32.3821 73.2871 31.6559V30.4032C73.0258 30.7572 72.67 31.0568 72.2197 31.3019C71.7783 31.5379 71.2739 31.6559 70.7064 31.6559C70.0579 31.6559 69.4634 31.4925 68.923 31.1657C68.3915 30.8298 67.9682 30.3669 67.6529 29.7768C67.3467 29.1777 67.1936 28.5014 67.1936 27.7479C67.1936 26.9945 67.3467 26.3272 67.6529 25.7463C67.9682 25.1653 68.3915 24.716 68.923 24.3982C69.4634 24.0714 70.0579 23.908 70.7064 23.908ZM73.2871 27.7752C73.2871 27.2577 73.179 26.8084 72.9628 26.4271C72.7556 26.0458 72.4809 25.7553 72.1386 25.5556C71.7963 25.3559 71.427 25.2561 71.0307 25.2561C70.6344 25.2561 70.2651 25.3559 69.9228 25.5556C69.5805 25.7463 69.3013 26.0322 69.0851 26.4135C68.8779 26.7857 68.7744 27.2305 68.7744 27.7479C68.7744 28.2654 68.8779 28.7193 69.0851 29.1096C69.3013 29.4999 69.5805 29.7995 69.9228 30.0083C70.2741 30.208 70.6434 30.3079 71.0307 30.3079C71.427 30.3079 71.7963 30.208 72.1386 30.0083C72.4809 29.8086 72.7556 29.5181 72.9628 29.1368C73.179 28.7465 73.2871 28.2926 73.2871 27.7752ZM78.1338 21.457V31.5334H76.5936V21.457H78.1338ZM86.7091 27.5709C86.7091 27.8342 86.691 28.0793 86.6551 28.3062H80.9534C80.9985 28.9326 81.219 29.4318 81.6154 29.804C82.0119 30.1671 82.5025 30.3487 83.0881 30.3487C83.9169 30.3487 84.5022 29.9992 84.8446 29.3002H86.5064C86.2814 29.9901 85.8714 30.5575 85.2769 31.0023C84.6913 31.438 83.9617 31.6559 83.0881 31.6559C82.3767 31.6559 81.737 31.4971 81.1696 31.1793C80.611 30.8525 80.1697 30.3986 79.8455 29.8177C79.5301 29.2276 79.3726 28.5468 79.3726 27.7752C79.3726 27.0036 79.5258 26.3272 79.832 25.7463C80.1473 25.1562 80.584 24.7023 81.1425 24.3846C81.71 24.0669 82.3585 23.908 83.0881 23.908C83.7907 23.908 84.4169 24.0624 84.9662 24.371C85.5155 24.6796 85.9436 25.1108 86.2497 25.6646C86.5559 26.2183 86.7091 26.8538 86.7091 27.5709ZM85.1013 27.1896C85.0924 26.5814 84.8897 26.1003 84.4933 25.7463C84.1061 25.3922 83.6151 25.2152 83.0206 25.2152C82.4801 25.2152 82.0161 25.3922 81.6289 25.7463C81.2506 26.1003 81.0298 26.5814 80.9669 27.1896H85.1013ZM98.3017 24.8884C98.3017 25.3696 98.1889 25.8234 97.9639 26.2501C97.7384 26.6768 97.3783 27.0262 96.883 27.2986C96.3873 27.5618 95.7523 27.6935 94.9779 27.6935H93.2755V31.5334H91.7352V22.0698H94.9779C95.6983 22.0698 96.3063 22.1969 96.8019 22.451C97.3061 22.6961 97.6801 23.032 97.9233 23.4587C98.1754 23.8853 98.3017 24.3619 98.3017 24.8884ZM94.9779 26.4816C95.5632 26.4816 96.0001 26.3409 96.2885 26.0595C96.5765 25.7781 96.7208 25.3877 96.7208 24.8884C96.7208 24.3801 96.5765 23.9852 96.2885 23.7038C96.0001 23.4224 95.5632 23.2817 94.9779 23.2817H93.2755V26.4816H94.9779ZM101.04 21.457V31.5334H99.5002V21.457H101.04ZM102.279 27.7479C102.279 26.9945 102.432 26.3272 102.739 25.7463C103.054 25.1653 103.477 24.716 104.009 24.3982C104.549 24.0714 105.144 23.908 105.792 23.908C106.377 23.908 106.887 24.026 107.319 24.2621C107.76 24.489 108.111 24.7749 108.373 25.1199V24.0306H109.927V31.5334H108.373V30.4168C108.111 30.7708 107.756 31.0658 107.305 31.3019C106.855 31.5379 106.341 31.6559 105.765 31.6559C105.125 31.6559 104.54 31.4925 104.009 31.1657C103.477 30.8298 103.054 30.3669 102.739 29.7768C102.432 29.1777 102.279 28.5014 102.279 27.7479ZM108.373 27.7752C108.373 27.2577 108.265 26.8084 108.048 26.4271C107.841 26.0458 107.566 25.7553 107.224 25.5556C106.882 25.3559 106.512 25.2561 106.116 25.2561C105.72 25.2561 105.351 25.3559 105.008 25.5556C104.666 25.7463 104.387 26.0322 104.171 26.4135C103.964 26.7857 103.86 27.2305 103.86 27.7479C103.86 28.2654 103.964 28.7193 104.171 29.1096C104.387 29.4999 104.666 29.7995 105.008 30.0083C105.36 30.208 105.729 30.3079 106.116 30.3079C106.512 30.3079 106.882 30.208 107.224 30.0083C107.566 29.8086 107.841 29.5181 108.048 29.1368C108.265 28.7465 108.373 28.2926 108.373 27.7752ZM112.517 24.0306L114.611 29.7496L116.787 24.0306H118.381L113.814 35.0601H112.22L113.733 31.4108L110.801 24.0306H112.517Z" fill="white"/>
<path d="M40.1279 12.5489C40.1279 12.0616 40.237 11.6244 40.455 11.2374C40.6779 10.8456 40.9789 10.5422 41.3582 10.3272C41.7374 10.1074 42.157 9.99756 42.6168 9.99756C43.143 9.99756 43.6076 10.1289 44.0106 10.3917C44.4183 10.6545 44.7146 11.0248 44.8995 11.5026H44.1244C43.9869 11.2111 43.7878 10.9866 43.527 10.8289C43.2663 10.6664 42.9629 10.5852 42.6168 10.5852C42.2707 10.5852 41.9579 10.6664 41.6782 10.8289C41.4032 10.9866 41.1851 11.2159 41.0239 11.5169C40.8675 11.8131 40.7893 12.1571 40.7893 12.5489C40.7893 12.9407 40.8675 13.2847 41.0239 13.5809C41.1851 13.8771 41.4032 14.1065 41.6782 14.2689C41.9579 14.4266 42.2707 14.5054 42.6168 14.5054C43.1051 14.5054 43.5057 14.3597 43.8186 14.0682C44.1315 13.772 44.3116 13.3731 44.359 12.8714H42.3822V12.3554H45.0488V12.8571C45.0109 13.268 44.8829 13.6454 44.6648 13.9894C44.4468 14.3286 44.1599 14.5986 43.8044 14.7992C43.4488 14.9951 43.053 15.0931 42.6168 15.0931C42.157 15.0931 41.7374 14.9856 41.3582 14.7706C40.9789 14.5508 40.6779 14.2474 40.455 13.8604C40.237 13.4734 40.1279 13.0362 40.1279 12.5489ZM46.9071 10.5637V12.2766H48.7133V12.7782H46.9071V14.5341H48.9266V15.0501H46.26V10.0477H48.9266V10.5637H46.9071ZM53.312 10.0549V10.5637H51.9609V15.0501H51.3138V10.5637H49.9556V10.0549H53.312ZM57.5849 10.0549V15.0501H56.9378V10.0549H57.5849ZM62.094 10.0549V10.5637H60.7429V15.0501H60.0958V10.5637H58.7375V10.0549H62.094ZM67.9668 15.1002C67.507 15.1002 67.0874 14.9927 66.7082 14.7777C66.3289 14.558 66.0278 14.2546 65.805 13.8676C65.587 13.4758 65.4779 13.0362 65.4779 12.5489C65.4779 12.0616 65.587 11.6244 65.805 11.2374C66.0278 10.8456 66.3289 10.5422 66.7082 10.3272C67.0874 10.1074 67.507 9.99756 67.9668 9.99756C68.4314 9.99756 68.8533 10.1074 69.2326 10.3272C69.6118 10.5422 69.9105 10.8432 70.1286 11.2302C70.3467 11.6172 70.4557 12.0568 70.4557 12.5489C70.4557 13.041 70.3467 13.4806 70.1286 13.8676C69.9105 14.2546 69.6118 14.558 69.2326 14.7777C68.8533 14.9927 68.4314 15.1002 67.9668 15.1002ZM67.9668 14.5126C68.3129 14.5126 68.6234 14.4313 68.8984 14.2689C69.1781 14.1065 69.3962 13.8771 69.5526 13.5809C69.7138 13.2847 69.7944 12.9407 69.7944 12.5489C69.7944 12.1571 69.7138 11.8131 69.5526 11.5169C69.3962 11.2159 69.1781 10.9866 68.8984 10.8289C68.6234 10.6664 68.3129 10.5852 67.9668 10.5852C67.6207 10.5852 67.3078 10.6664 67.0282 10.8289C66.7532 10.9866 66.5351 11.2159 66.3739 11.5169C66.2175 11.8131 66.1393 12.1571 66.1393 12.5489C66.1393 12.9407 66.2175 13.2847 66.3739 13.5809C66.5351 13.8771 66.7532 14.1065 67.0282 14.2689C67.3078 14.4313 67.6207 14.5126 67.9668 14.5126ZM75.5626 15.0501H74.9153L72.3126 11.0726V15.0501H71.6655V10.0477H72.3126L74.9153 14.0181V10.0477H75.5626V15.0501Z" fill="white"/>
<mask id="mask1_13_10" style="mask-type:alpha" maskUnits="userSpaceOnUse" x="9" y="9" width="21" height="25">
<path d="M9.24414 10.7078C9.24414 9.60809 10.4222 8.91803 11.3703 9.46235L29.2167 19.7079C30.1524 20.2452 30.1793 21.5949 29.2655 22.1694L11.4192 33.3908C10.4719 33.9864 9.24414 33.3 9.24414 32.1747V10.7078Z" fill="#C4C4C4"/>
</mask>
<g mask="url(#mask1_13_10)">
<path d="M9.24414 10.7078C9.24414 9.60809 10.4222 8.91803 11.3703 9.46235L29.2167 19.7079C30.1524 20.2452 30.1793 21.5949 29.2655 22.1694L11.4192 33.3908C10.4719 33.9864 9.24414 33.3 9.24414 32.1747V10.7078Z" fill="white"/>
<path d="M29.1551 29.3833L7.46625 7.34583L5.68848 33.6833L10.4885 37.4458L29.1551 29.3833Z" fill="white"/>
<path d="M6.22168 35.6542L26.8439 15.4083L35.0217 18.8125L20.2661 36.3708L6.22168 35.6542Z" fill="white"/>
<path fill-rule="evenodd" clip-rule="evenodd" d="M27.5276 27.7299L35.0217 18.8125L26.8439 15.4083L21.0241 21.1218L27.5276 27.7299ZM24.4193 31.4288L13.7474 36.0382L20.2661 36.3708L24.4193 31.4288ZM8.34043 35.7623L7.10119 34.7908L6.22168 35.6542L8.34043 35.7623Z" fill="white"/>
</g>
</g>
</svg>
