<svg width="32" height="32" viewBox="0 0 32 32" fill="none" xmlns="http://www.w3.org/2000/svg">
<g clip-path="url(#clip0_1_229)">
<path d="M29.333 16V29.3333" stroke="#609E45" stroke-width="1.5" stroke-linecap="round" stroke-linejoin="round"/>
<path d="M2.66699 16.6667H9.01366H11.5003H16.0003H20.0537H22.987H29.3337" stroke="#609E45" stroke-width="1.5" stroke-linecap="round" stroke-linejoin="round"/>
<path d="M29.3337 28.6667H2.66699" stroke="#609E45" stroke-width="1.5" stroke-linecap="round" stroke-linejoin="round"/>
<path d="M29.3337 22.6667H2.66699" stroke="#609E45" stroke-width="1.5" stroke-linecap="round" stroke-linejoin="round"/>
<path d="M14.2063 16.6667C15.0917 15.2375 15.7001 13.6544 15.9997 12.0001V11.6667C15.9694 10.7771 15.6245 9.92706 15.0264 9.26785C14.4282 8.60864 13.6155 8.18302 12.733 8.06675C12.5803 8.24339 12.3907 8.38447 12.1776 8.48006C11.9646 8.57565 11.7332 8.62344 11.4997 8.62008C11.0203 8.63396 10.5416 8.57553 10.0797 8.44675C9.93743 8.5188 9.79943 8.59893 9.66634 8.68675C9.47977 8.56437 9.28357 8.45735 9.07967 8.36675C8.52938 8.12409 7.93443 7.99919 7.33301 8.00008C6.31656 7.95669 5.32443 8.31845 4.57447 9.00591C3.8245 9.69338 3.37801 10.6504 3.33301 11.6667V12.0001C3.63259 13.6544 4.24096 15.2375 5.12634 16.6667" stroke="#609E45" stroke-width="1.5" stroke-linecap="round" stroke-linejoin="round"/>
<path d="M9.32634 7.98L8.33301 6" stroke="#609E45" stroke-width="1.5" stroke-linecap="round" stroke-linejoin="round"/>
<path d="M12.7333 8.06659C12.3467 8.55326 11.5733 8.82659 10.0667 8.45326L9.65332 8.33992C9.65332 8.33992 9.65332 6.00659 12.9867 6.00659C13.0843 6.34946 13.1121 6.70842 13.0686 7.06225C13.0251 7.41608 12.9111 7.75759 12.7333 8.06659Z" stroke="#609E45" stroke-width="1.5" stroke-linecap="round" stroke-linejoin="round"/>
<path d="M2.66699 16V29.3333" stroke="#609E45" stroke-width="1.5" stroke-linecap="round" stroke-linejoin="round"/>
<path d="M22.987 16.6667H19.3603H14.207H13.827H13.3937H9.01367" stroke="#609E45" stroke-width="1.5" stroke-linecap="round" stroke-linejoin="round"/>
<path d="M9.07324 8.36663C9.14658 8.23329 9.23324 8.10663 9.31991 7.97996C9.90202 7.13335 10.6395 6.40491 11.4932 5.83329C12.8243 4.93589 14.3946 4.4597 15.9999 4.46663C17.252 4.46667 18.487 4.75698 19.608 5.31474C20.7289 5.87251 21.7053 6.68255 22.4605 7.68126C23.2157 8.67996 23.729 9.84013 23.9603 11.0707C24.1915 12.3012 24.1343 13.5686 23.7932 14.7733" stroke="#609E45" stroke-width="1.5" stroke-linecap="round" stroke-linejoin="round"/>
<path d="M16 4.46675C16 4.46675 16.4533 2.66675 17.3333 2.66675" stroke="#609E45" stroke-width="1.5" stroke-linecap="round" stroke-linejoin="round"/>
<path d="M15.6338 16.6666L16.3671 15.1399L15.6338 13.6199L16.3671 12.0999L15.6338 10.5732L16.3671 9.04655L15.6338 7.51989L16.3671 5.99322L15.6338 4.46655" stroke="#609E45" stroke-width="1.5" stroke-linecap="round" stroke-linejoin="round"/>
<path d="M19.7266 16.6666L20.3799 15.3132L19.7266 13.9599L20.3799 12.5999L19.7266 11.2466L20.3799 9.88657L19.7266 8.53323L20.3799 7.17323L19.7266 5.81323" stroke="#609E45" stroke-width="1.5" stroke-linecap="round" stroke-linejoin="round"/>
<path d="M11.513 5.81323H11.4863H11.513ZM11.513 5.81323H11.4863L11.513 5.8199H11.4863L11.513 5.82657H11.4863L11.513 5.83323L11.4863 5.8799L11.513 5.9199L11.4863 5.96657L11.513 6.01323L11.4863 6.0599L11.513 6.0999L11.4863 6.15323L11.513 6.1999" stroke="#609E45" stroke-width="1.5" stroke-linecap="round" stroke-linejoin="round"/>
<path d="M13.3936 16.6667C13.4711 16.625 13.5612 16.6132 13.6469 16.6334L13.8269 16.6667C15.6514 16.9521 17.5091 16.9521 19.3336 16.6667C19.6736 16.6267 20.0002 16.5734 20.4002 16.5067C21.6523 16.2542 22.8077 15.6534 23.7336 14.7734C26.3469 12.4401 27.6536 8.66675 27.6536 8.66675L29.2736 9.08008L28.5269 10.7334C28.5269 10.7334 29.1269 14.0067 27.6402 16.6667" stroke="#609E45" stroke-width="1.5" stroke-linecap="round" stroke-linejoin="round"/>
<path d="M223.333 -418H-236.667V42H223.333V-418Z" stroke="#609E45" stroke-width="1.5" stroke-linecap="round" stroke-linejoin="round"/>
</g>
<defs>
<clipPath id="clip0_1_229">
<rect width="32" height="32" fill="white"/>
</clipPath>
</defs>
</svg>
