<svg width="64" height="64" viewBox="0 0 64 64" fill="none" xmlns="http://www.w3.org/2000/svg">
<circle cx="32" cy="32" r="32" fill="#609E45" fill-opacity="0.2"/>
<circle cx="32" cy="32" r="27" fill="#609E45"/>
<path d="M25.0001 34H38.1359C39.1487 34 39.6551 34 40.0582 33.8112C40.4134 33.6448 40.7118 33.3777 40.9163 33.0432C41.1485 32.6633 41.2044 32.16 41.3163 31.1534L41.9013 25.8883C41.9355 25.5809 41.9525 25.4272 41.9031 25.3082C41.8597 25.2037 41.7821 25.117 41.683 25.0623C41.5702 25 41.4155 25 41.1062 25H24.5001M22 22H23.2484C23.5131 22 23.6454 22 23.7489 22.0503C23.84 22.0946 23.9155 22.1656 23.9654 22.2538C24.0221 22.3539 24.0304 22.486 24.0469 22.7501L24.9531 37.2499C24.9696 37.514 24.9779 37.6461 25.0346 37.7462C25.0845 37.8344 25.16 37.9054 25.2511 37.9497C25.3546 38 25.4869 38 25.7516 38H39M27.5 41.5H27.51M36.5 41.5H36.51M28 41.5C28 41.7761 27.7761 42 27.5 42C27.2239 42 27 41.7761 27 41.5C27 41.2239 27.2239 41 27.5 41C27.7761 41 28 41.2239 28 41.5ZM37 41.5C37 41.7761 36.7761 42 36.5 42C36.2239 42 36 41.7761 36 41.5C36 41.2239 36.2239 41 36.5 41C36.7761 41 37 41.2239 37 41.5Z" stroke="white" stroke-width="2" stroke-linecap="round" stroke-linejoin="round"/>
</svg>
