<svg width="64" height="64" viewBox="0 0 64 64" fill="none" xmlns="http://www.w3.org/2000/svg">
<circle cx="32" cy="32" r="32" fill="#EF682E" fill-opacity="0.2"/>
<circle cx="32" cy="32" r="27" fill="#EF682E"/>
<path d="M24.98 21.8598L23.29 24.1132C22.9553 24.5595 22.7879 24.7826 22.7918 24.9694C22.7952 25.132 22.8714 25.2844 22.9994 25.3847C23.1465 25.4998 23.4254 25.4998 23.9833 25.4998H40.0167C40.5746 25.4998 40.8535 25.4998 41.0006 25.3847C41.1286 25.2844 41.2048 25.132 41.2082 24.9694C41.2121 24.7826 41.0447 24.5595 40.71 24.1132L39.02 21.8598M24.98 21.8598C25.1707 21.6056 25.266 21.4785 25.3868 21.3868C25.4938 21.3056 25.615 21.245 25.7442 21.2082C25.89 21.1665 26.0489 21.1665 26.3667 21.1665H37.6333C37.9511 21.1665 38.11 21.1665 38.2558 21.2082C38.385 21.245 38.5062 21.3056 38.6132 21.3868C38.734 21.4785 38.8293 21.6056 39.02 21.8598M24.98 21.8598L22.9433 24.5754C22.6861 24.9184 22.5575 25.0899 22.4661 25.2788C22.3851 25.4463 22.326 25.6237 22.2902 25.8064C22.25 26.0123 22.25 26.2266 22.25 26.6554L22.25 39.3665C22.25 40.5799 22.25 41.1867 22.4862 41.6501C22.6939 42.0578 23.0253 42.3893 23.433 42.597C23.8965 42.8332 24.5032 42.8332 25.7167 42.8332L38.2833 42.8332C39.4968 42.8332 40.1035 42.8332 40.567 42.597C40.9747 42.3893 41.3061 42.0578 41.5138 41.6501C41.75 41.1867 41.75 40.5799 41.75 39.3665V26.6554C41.75 26.2266 41.75 26.0123 41.7098 25.8064C41.674 25.6237 41.6149 25.4463 41.5339 25.2788C41.4425 25.0899 41.3139 24.9184 41.0567 24.5754L39.02 21.8598M36.3333 29.8332C36.3333 30.9824 35.8768 32.0846 35.0641 32.8973C34.2515 33.71 33.1493 34.1665 32 34.1665C30.8507 34.1665 29.7485 33.71 28.9359 32.8973C28.1232 32.0846 27.6667 30.9824 27.6667 29.8332" stroke="white" stroke-width="2" stroke-linecap="round" stroke-linejoin="round"/>
</svg>
