<svg width="22" height="22" viewBox="0 0 22 22" fill="none" xmlns="http://www.w3.org/2000/svg">
<path d="M5.06 2.41999L3.63 4.32666C3.34676 4.70431 3.20515 4.89313 3.20843 5.05119C3.21129 5.18873 3.27578 5.31772 3.3841 5.40253C3.50858 5.49999 3.74461 5.49999 4.21667 5.49999H17.7833C18.2554 5.49999 18.4914 5.49999 18.6159 5.40253C18.7242 5.31772 18.7887 5.18873 18.7916 5.05119C18.7949 4.89313 18.6532 4.70431 18.37 4.32666L16.94 2.41999M5.06 2.41999C5.22133 2.20488 5.302 2.09733 5.40423 2.01976C5.49478 1.95105 5.59731 1.89978 5.7066 1.86857C5.83 1.83333 5.96445 1.83333 6.23333 1.83333H15.7667C16.0356 1.83333 16.17 1.83333 16.2934 1.86857C16.4027 1.89978 16.5052 1.95105 16.5958 2.01976C16.698 2.09733 16.7787 2.20488 16.94 2.41999M5.06 2.41999L3.33667 4.71777C3.11899 5.008 3.01016 5.15312 2.93287 5.31292C2.86429 5.45473 2.81428 5.60478 2.78406 5.75937C2.75 5.93359 2.75 6.11498 2.75 6.47777L2.75 17.2333C2.75 18.2601 2.75 18.7735 2.94982 19.1656C3.12559 19.5106 3.40605 19.7911 3.75102 19.9668C4.14319 20.1667 4.65657 20.1667 5.68333 20.1667L16.3167 20.1667C17.3434 20.1667 17.8568 20.1667 18.249 19.9668C18.5939 19.7911 18.8744 19.5106 19.0502 19.1656C19.25 18.7735 19.25 18.2601 19.25 17.2333V6.47777C19.25 6.11498 19.25 5.93359 19.2159 5.75937C19.1857 5.60478 19.1357 5.45473 19.0671 5.31292C18.9898 5.15312 18.881 5.008 18.6633 4.71777L16.94 2.41999M14.6667 9.16666C14.6667 10.1391 14.2804 11.0718 13.5927 11.7594C12.9051 12.447 11.9725 12.8333 11 12.8333C10.0275 12.8333 9.09491 12.447 8.40728 11.7594C7.71964 11.0718 7.33333 10.1391 7.33333 9.16666" stroke="white" stroke-linecap="round" stroke-linejoin="round"/>
</svg>
