<svg width="226" height="45" viewBox="0 0 226 45" fill="none" xmlns="http://www.w3.org/2000/svg">
<circle cx="22.1112" cy="22.1112" r="22.1112" fill="white"/>
<g clip-path="url(#clip0_1_10525)">
<path d="M35.54 22.1108V35.54" stroke="#609E45" stroke-width="1.5" stroke-linecap="round" stroke-linejoin="round"/>
<path d="M8.68164 22.7827H15.0739H17.5784H22.1108H26.1932H29.1476H35.5399" stroke="#609E45" stroke-width="1.5" stroke-linecap="round" stroke-linejoin="round"/>
<path d="M35.5399 34.8687H8.68164" stroke="#609E45" stroke-width="1.5" stroke-linecap="round" stroke-linejoin="round"/>
<path d="M35.5399 28.8257H8.68164" stroke="#609E45" stroke-width="1.5" stroke-linecap="round" stroke-linejoin="round"/>
<path d="M20.305 22.7828C21.1967 21.3433 21.8095 19.7488 22.1112 18.0826V17.7468C22.0807 16.8508 21.7333 15.9946 21.1309 15.3307C20.5284 14.6667 19.7099 14.2381 18.8211 14.121C18.6672 14.2989 18.4763 14.441 18.2617 14.5372C18.0471 14.6335 17.814 14.6817 17.5789 14.6783C17.0961 14.6923 16.6139 14.6334 16.1487 14.5037C16.0054 14.5763 15.8664 14.657 15.7324 14.7454C15.5444 14.6222 15.3468 14.5144 15.1415 14.4231C14.5872 14.1787 13.988 14.0529 13.3823 14.0538C12.3585 14.0101 11.3592 14.3745 10.6039 15.0669C9.84854 15.7593 9.39884 16.7231 9.35352 17.7468V18.0826C9.65525 19.7488 10.268 21.3433 11.1597 22.7828" stroke="#609E45" stroke-width="1.5" stroke-linecap="round" stroke-linejoin="round"/>
<path d="M15.3901 14.0333L14.3896 12.0391" stroke="#609E45" stroke-width="1.5" stroke-linecap="round" stroke-linejoin="round"/>
<path d="M18.8209 14.1207C18.4314 14.6109 17.6525 14.8862 16.1351 14.5101L15.7188 14.396C15.7188 14.396 15.7188 12.0459 19.076 12.0459C19.1743 12.3912 19.2024 12.7528 19.1586 13.1091C19.1148 13.4655 18.9999 13.8095 18.8209 14.1207Z" stroke="#609E45" stroke-width="1.5" stroke-linecap="round" stroke-linejoin="round"/>
<path d="M8.68164 22.1108V35.54" stroke="#609E45" stroke-width="1.5" stroke-linecap="round" stroke-linejoin="round"/>
<path d="M29.1479 22.7827H25.4952H20.3049H19.9221H19.4857H15.0742" stroke="#609E45" stroke-width="1.5" stroke-linecap="round" stroke-linejoin="round"/>
<path d="M15.1348 14.4227C15.2086 14.2884 15.2959 14.1609 15.3832 14.0333C15.9695 13.1806 16.7123 12.4469 17.5722 11.8712C18.9128 10.9673 20.4943 10.4877 22.1112 10.4947C23.3723 10.4947 24.6162 10.7871 25.7452 11.3489C26.8742 11.9107 27.8576 12.7266 28.6182 13.7324C29.3788 14.7383 29.8959 15.9068 30.1288 17.1462C30.3617 18.3856 30.3041 19.6621 29.9605 20.8754" stroke="#609E45" stroke-width="1.5" stroke-linecap="round" stroke-linejoin="round"/>
<path d="M22.1113 10.4951C22.1113 10.4951 22.5679 8.68213 23.4542 8.68213" stroke="#609E45" stroke-width="1.5" stroke-linecap="round" stroke-linejoin="round"/>
<path d="M21.7422 22.7823L22.4808 21.2446L21.7422 19.7137L22.4808 18.1828L21.7422 16.6452L22.4808 15.1075L21.7422 13.5699L22.4808 12.0323L21.7422 10.4946" stroke="#609E45" stroke-width="1.5" stroke-linecap="round" stroke-linejoin="round"/>
<path d="M25.8643 22.7824L26.5223 21.4193L25.8643 20.0563L26.5223 18.6865L25.8643 17.3234L26.5223 15.9537L25.8643 14.5906L26.5223 13.2208L25.8643 11.8511" stroke="#609E45" stroke-width="1.5" stroke-linecap="round" stroke-linejoin="round"/>
<path d="M17.5923 11.8511H17.5654H17.5923ZM17.5923 11.8511H17.5654L17.5923 11.8578H17.5654L17.5923 11.8645H17.5654L17.5923 11.8712L17.5654 11.9182L17.5923 11.9585L17.5654 12.0055L17.5923 12.0525L17.5654 12.0995L17.5923 12.1398L17.5654 12.1935L17.5923 12.2405" stroke="#609E45" stroke-width="1.5" stroke-linecap="round" stroke-linejoin="round"/>
<path d="M19.4854 22.7826C19.5634 22.7406 19.6542 22.7286 19.7405 22.749L19.9218 22.7826C21.7594 23.0699 23.6305 23.0699 25.468 22.7826C25.8105 22.7423 26.1395 22.6886 26.5424 22.6214C27.8034 22.367 28.9671 21.7619 29.8996 20.8756C32.5318 18.5255 33.8478 14.7251 33.8478 14.7251L35.4794 15.1414L34.7274 16.8066C34.7274 16.8066 35.3317 20.1035 33.8344 22.7826" stroke="#609E45" stroke-width="1.5" stroke-linecap="round" stroke-linejoin="round"/>
<path d="M230.934 -415.007H-232.371V48.2978H230.934V-415.007Z" stroke="#609E45" stroke-width="1.5" stroke-linecap="round" stroke-linejoin="round"/>
</g>
<path d="M66.608 15.152V18.44H62.144V32H58.04V18.44H53.576V15.152H66.608ZM77.2597 32L73.7557 25.64H72.7717V32H68.6677V15.152H75.5557C76.8837 15.152 78.0117 15.384 78.9397 15.848C79.8837 16.312 80.5877 16.952 81.0517 17.768C81.5157 18.568 81.7477 19.464 81.7477 20.456C81.7477 21.576 81.4277 22.576 80.7877 23.456C80.1637 24.336 79.2357 24.96 78.0037 25.328L81.8917 32H77.2597ZM72.7717 22.736H75.3157C76.0677 22.736 76.6277 22.552 76.9957 22.184C77.3797 21.816 77.5717 21.296 77.5717 20.624C77.5717 19.984 77.3797 19.48 76.9957 19.112C76.6277 18.744 76.0677 18.56 75.3157 18.56H72.7717V22.736ZM92.2919 32.168C90.7079 32.168 89.2519 31.8 87.9239 31.064C86.6119 30.328 85.5639 29.304 84.7799 27.992C84.0119 26.664 83.6279 25.176 83.6279 23.528C83.6279 21.88 84.0119 20.4 84.7799 19.088C85.5639 17.776 86.6119 16.752 87.9239 16.016C89.2519 15.28 90.7079 14.912 92.2919 14.912C93.8759 14.912 95.3239 15.28 96.6359 16.016C97.9639 16.752 99.0039 17.776 99.7559 19.088C100.524 20.4 100.908 21.88 100.908 23.528C100.908 25.176 100.524 26.664 99.7559 27.992C98.9879 29.304 97.9479 30.328 96.6359 31.064C95.3239 31.8 93.8759 32.168 92.2919 32.168ZM92.2919 28.424C93.6359 28.424 94.7079 27.976 95.5079 27.08C96.3239 26.184 96.7319 25 96.7319 23.528C96.7319 22.04 96.3239 20.856 95.5079 19.976C94.7079 19.08 93.6359 18.632 92.2919 18.632C90.9319 18.632 89.8439 19.072 89.0279 19.952C88.2279 20.832 87.8279 22.024 87.8279 23.528C87.8279 25.016 88.2279 26.208 89.0279 27.104C89.8439 27.984 90.9319 28.424 92.2919 28.424ZM111.159 32.168C109.575 32.168 108.119 31.8 106.791 31.064C105.479 30.328 104.431 29.304 103.647 27.992C102.879 26.664 102.495 25.176 102.495 23.528C102.495 21.88 102.879 20.4 103.647 19.088C104.431 17.776 105.479 16.752 106.791 16.016C108.119 15.28 109.575 14.912 111.159 14.912C112.743 14.912 114.191 15.28 115.503 16.016C116.831 16.752 117.871 17.776 118.623 19.088C119.391 20.4 119.775 21.88 119.775 23.528C119.775 25.176 119.391 26.664 118.623 27.992C117.855 29.304 116.815 30.328 115.503 31.064C114.191 31.8 112.743 32.168 111.159 32.168ZM111.159 28.424C112.503 28.424 113.575 27.976 114.375 27.08C115.191 26.184 115.599 25 115.599 23.528C115.599 22.04 115.191 20.856 114.375 19.976C113.575 19.08 112.503 18.632 111.159 18.632C109.799 18.632 108.711 19.072 107.895 19.952C107.095 20.832 106.695 22.024 106.695 23.528C106.695 25.016 107.095 26.208 107.895 27.104C108.711 27.984 109.799 28.424 111.159 28.424Z" fill="#609E45"/>
<path d="M142.785 20.12C142.305 18.856 141.505 17.848 140.385 17.096C139.281 16.344 137.969 15.968 136.449 15.968C135.121 15.968 133.921 16.28 132.849 16.904C131.777 17.528 130.929 18.416 130.305 19.568C129.681 20.72 129.369 22.064 129.369 23.6C129.369 25.136 129.681 26.48 130.305 27.632C130.929 28.784 131.777 29.672 132.849 30.296C133.921 30.904 135.121 31.208 136.449 31.208C137.729 31.208 138.889 30.92 139.929 30.344C140.969 29.768 141.801 28.952 142.425 27.896C143.049 26.824 143.393 25.576 143.457 24.152H135.945V23.24H144.561V23.96C144.513 25.528 144.137 26.936 143.433 28.184C142.729 29.432 141.769 30.408 140.553 31.112C139.337 31.816 137.969 32.168 136.449 32.168C134.897 32.168 133.497 31.808 132.249 31.088C131.001 30.352 130.025 29.336 129.321 28.04C128.617 26.728 128.265 25.248 128.265 23.6C128.265 21.936 128.617 20.456 129.321 19.16C130.025 17.848 131.001 16.832 132.249 16.112C133.497 15.376 134.897 15.008 136.449 15.008C138.257 15.008 139.817 15.464 141.129 16.376C142.457 17.272 143.425 18.52 144.033 20.12H142.785ZM148.907 21.656C149.227 20.696 149.795 19.968 150.611 19.472C151.427 18.96 152.467 18.704 153.731 18.704V19.832H153.371C152.091 19.832 151.027 20.2 150.179 20.936C149.331 21.656 148.907 22.84 148.907 24.488V32H147.827V18.968H148.907V21.656ZM161.954 32.192C160.738 32.192 159.642 31.92 158.666 31.376C157.69 30.832 156.922 30.056 156.362 29.048C155.818 28.024 155.546 26.832 155.546 25.472C155.546 24.128 155.826 22.952 156.386 21.944C156.946 20.92 157.714 20.144 158.69 19.616C159.682 19.072 160.786 18.8 162.002 18.8C163.218 18.8 164.314 19.072 165.29 19.616C166.266 20.144 167.026 20.912 167.57 21.92C168.13 22.928 168.41 24.112 168.41 25.472C168.41 26.832 168.13 28.024 167.57 29.048C167.01 30.056 166.234 30.832 165.242 31.376C164.266 31.92 163.17 32.192 161.954 32.192ZM161.954 31.232C162.898 31.232 163.778 31.024 164.594 30.608C165.426 30.176 166.09 29.528 166.586 28.664C167.082 27.8 167.33 26.736 167.33 25.472C167.33 24.224 167.082 23.168 166.586 22.304C166.09 21.44 165.434 20.8 164.618 20.384C163.802 19.952 162.922 19.736 161.978 19.736C161.034 19.736 160.154 19.952 159.338 20.384C158.538 20.8 157.89 21.44 157.394 22.304C156.898 23.168 156.65 24.224 156.65 25.472C156.65 26.736 156.89 27.8 157.37 28.664C157.866 29.528 158.514 30.176 159.314 30.608C160.13 31.024 161.01 31.232 161.954 31.232ZM171.015 25.472C171.015 24.112 171.279 22.928 171.807 21.92C172.351 20.912 173.095 20.144 174.039 19.616C174.999 19.072 176.095 18.8 177.327 18.8C178.959 18.8 180.295 19.208 181.335 20.024C182.391 20.84 183.047 21.936 183.303 23.312H182.175C181.967 22.192 181.423 21.312 180.543 20.672C179.679 20.032 178.607 19.712 177.327 19.712C176.367 19.712 175.495 19.928 174.711 20.36C173.927 20.776 173.295 21.424 172.815 22.304C172.351 23.168 172.119 24.224 172.119 25.472C172.119 26.736 172.351 27.8 172.815 28.664C173.295 29.528 173.927 30.176 174.711 30.608C175.495 31.04 176.367 31.256 177.327 31.256C178.607 31.256 179.679 30.936 180.543 30.296C181.423 29.656 181.967 28.776 182.175 27.656H183.303C183.047 29.016 182.391 30.112 181.335 30.944C180.279 31.776 178.943 32.192 177.327 32.192C176.095 32.192 174.999 31.92 174.039 31.376C173.095 30.832 172.351 30.056 171.807 29.048C171.279 28.024 171.015 26.832 171.015 25.472ZM198.329 24.608C198.329 25.184 198.313 25.616 198.281 25.904H187.025C187.057 27.072 187.313 28.056 187.793 28.856C188.273 29.656 188.905 30.256 189.689 30.656C190.473 31.056 191.329 31.256 192.257 31.256C193.537 31.256 194.609 30.944 195.473 30.32C196.337 29.68 196.881 28.816 197.105 27.728H198.233C197.977 29.056 197.321 30.136 196.265 30.968C195.209 31.784 193.873 32.192 192.257 32.192C191.041 32.192 189.953 31.92 188.993 31.376C188.033 30.832 187.281 30.056 186.737 29.048C186.193 28.024 185.921 26.832 185.921 25.472C185.921 24.112 186.185 22.928 186.713 21.92C187.257 20.912 188.009 20.144 188.969 19.616C189.929 19.072 191.025 18.8 192.257 18.8C193.505 18.8 194.585 19.072 195.497 19.616C196.425 20.144 197.129 20.856 197.609 21.752C198.089 22.632 198.329 23.584 198.329 24.608ZM197.249 25.016C197.297 23.864 197.089 22.888 196.625 22.088C196.177 21.288 195.561 20.696 194.777 20.312C193.993 19.912 193.145 19.712 192.233 19.712C191.321 19.712 190.473 19.912 189.689 20.312C188.921 20.696 188.289 21.288 187.793 22.088C187.313 22.888 187.057 23.864 187.025 25.016H197.249ZM202.673 21.656C202.993 20.696 203.561 19.968 204.377 19.472C205.193 18.96 206.233 18.704 207.497 18.704V19.832H207.137C205.857 19.832 204.793 20.2 203.945 20.936C203.097 21.656 202.673 22.84 202.673 24.488V32H201.593V18.968H202.673V21.656ZM220.16 18.968L212.576 38.12H211.472L213.896 32L208.424 18.968H209.6L214.496 30.8L219.056 18.968H220.16Z" fill="#EF682E"/>
<defs>
<clipPath id="clip0_1_10525">
<rect width="32.2299" height="32.2299" fill="white" transform="translate(5.99609 5.99609)"/>
</clipPath>
</defs>
</svg>
