<svg width="46" height="46" viewBox="0 0 46 46" fill="none" xmlns="http://www.w3.org/2000/svg">
<path opacity="0.1" d="M23 46C35.7025 46 46 35.7025 46 23C46 10.2975 35.7025 0 23 0C10.2975 0 0 10.2975 0 23C0 35.7025 10.2975 46 23 46Z" fill="#609E45"/>
<path d="M17.0413 34.4166V20.2083M10.583 22.7916V31.8333C10.583 33.26 11.7396 34.4166 13.1663 34.4166H30.5086C32.4212 34.4166 34.0477 33.0212 34.3385 31.1308L35.7295 22.0891C36.0907 19.7418 34.2745 17.6249 31.8996 17.6249H27.3747C26.6613 17.6249 26.083 17.0466 26.083 16.3333V11.7683C26.083 10.0092 24.657 8.58325 22.898 8.58325C22.4784 8.58325 22.0982 8.83034 21.9278 9.21374L17.3823 19.4412C17.1749 19.9076 16.7124 20.2083 16.2019 20.2083H13.1663C11.7396 20.2083 10.583 21.3648 10.583 22.7916Z" stroke="#609E45" stroke-width="2" stroke-linecap="round" stroke-linejoin="round"/>
</svg>
