<svg width="59" height="59" viewBox="0 0 59 59" fill="none" xmlns="http://www.w3.org/2000/svg">
<path d="M29.5 59C45.7924 59 59 45.7924 59 29.5C59 13.2076 45.7924 0 29.5 0C13.2076 0 0 13.2076 0 29.5C0 45.7924 13.2076 59 29.5 59Z" fill="white"/>
<mask id="mask0_37_99" style="mask-type:luminance" maskUnits="userSpaceOnUse" x="8" y="8" width="43" height="43">
<path d="M51 8H8V51H51V8Z" fill="white"/>
</mask>
<g mask="url(#mask0_37_99)">
<path d="M47.417 29.5V47.4167" stroke="#609E45" stroke-width="1.5" stroke-linecap="round" stroke-linejoin="round"/>
<path d="M11.583 30.396H20.1113H23.4528H29.4997H34.9463H38.888H47.4163" stroke="#609E45" stroke-width="1.5" stroke-linecap="round" stroke-linejoin="round"/>
<path d="M47.4163 46.521H11.583" stroke="#609E45" stroke-width="1.5" stroke-linecap="round" stroke-linejoin="round"/>
<path d="M47.4163 38.4585H11.583" stroke="#609E45" stroke-width="1.5" stroke-linecap="round" stroke-linejoin="round"/>
<path d="M27.0905 30.3956C28.2803 28.4751 29.0978 26.3478 29.5003 24.1248V23.6769C29.4597 22.4814 28.9962 21.3392 28.1924 20.4534C27.3886 19.5676 26.2966 18.9956 25.1107 18.8394C24.9055 19.0768 24.6508 19.2663 24.3645 19.3948C24.0782 19.5232 23.7672 19.5875 23.4535 19.5829C22.8093 19.6016 22.1661 19.5231 21.5453 19.35C21.3542 19.4468 21.1687 19.5545 20.9899 19.6725C20.7392 19.5081 20.4756 19.3643 20.2016 19.2425C19.4621 18.9165 18.6626 18.7486 17.8545 18.7498C16.4886 18.6915 15.1555 19.1776 14.1477 20.1014C13.1399 21.0252 12.54 22.3111 12.4795 23.6769V24.1248C12.8821 26.3478 13.6996 28.4751 14.8893 30.3956" stroke="#609E45" stroke-width="1.5" stroke-linecap="round" stroke-linejoin="round"/>
<path d="M20.533 18.7231L19.1982 16.0625" stroke="#609E45" stroke-width="1.5" stroke-linecap="round" stroke-linejoin="round"/>
<path d="M25.1104 18.8394C24.5908 19.4934 23.5517 19.8607 21.5271 19.359L20.9717 19.2067C20.9717 19.2067 20.9717 16.0713 25.4508 16.0713C25.582 16.532 25.6195 17.0144 25.561 17.4898C25.5025 17.9653 25.3493 18.4242 25.1104 18.8394Z" stroke="#609E45" stroke-width="1.5" stroke-linecap="round" stroke-linejoin="round"/>
<path d="M11.583 29.5V47.4167" stroke="#609E45" stroke-width="1.5" stroke-linecap="round" stroke-linejoin="round"/>
<path d="M38.888 30.396H34.0147H27.0899H26.5792H25.997H20.1113" stroke="#609E45" stroke-width="1.5" stroke-linecap="round" stroke-linejoin="round"/>
<path d="M20.1924 19.2427C20.2909 19.0635 20.4074 18.8933 20.5238 18.7231C21.3061 17.5855 22.2971 16.6066 23.4443 15.8385C25.2329 14.6326 27.3429 13.9927 29.5001 14.0021C31.1826 14.0021 32.8421 14.3922 34.3484 15.1417C35.8547 15.8912 37.1668 16.9797 38.1815 18.3217C39.1963 19.6637 39.8861 21.2227 40.1968 22.8762C40.5076 24.5298 40.4307 26.2328 39.9724 27.8516" stroke="#609E45" stroke-width="1.5" stroke-linecap="round" stroke-linejoin="round"/>
<path d="M29.5 14.0022C29.5 14.0022 30.1092 11.5835 31.2917 11.5835" stroke="#609E45" stroke-width="1.5" stroke-linecap="round" stroke-linejoin="round"/>
<path d="M29.0068 30.3957L29.9923 28.3442L29.0068 26.3017L29.9923 24.2592L29.0068 22.2078L29.9923 20.1563L29.0068 18.1049L29.9923 16.0534L29.0068 14.002" stroke="#609E45" stroke-width="1.5" stroke-linecap="round" stroke-linejoin="round"/>
<path d="M34.5078 30.3957L35.3857 28.5771L34.5078 26.7586L35.3857 24.9311L34.5078 23.1126L35.3857 21.2851L34.5078 19.4665L35.3857 17.639L34.5078 15.8115" stroke="#609E45" stroke-width="1.5" stroke-linecap="round" stroke-linejoin="round"/>
<path d="M23.4714 15.8115H23.4355L23.4714 15.8205H23.4355L23.4714 15.8294H23.4355L23.4714 15.8384L23.4355 15.9011L23.4714 15.9549L23.4355 16.0176L23.4714 16.0803L23.4355 16.143L23.4714 16.1967L23.4355 16.2684L23.4714 16.3311" stroke="#609E45" stroke-width="1.5" stroke-linecap="round" stroke-linejoin="round"/>
<path d="M25.9971 30.396C26.1012 30.3399 26.2224 30.324 26.3375 30.3512L26.5794 30.396C29.031 30.7794 31.5273 30.7794 33.9789 30.396C34.4358 30.3422 34.8748 30.2706 35.4123 30.181C37.0948 29.8416 38.6473 29.0343 39.8914 27.8518C43.4031 24.7164 45.1589 19.646 45.1589 19.646L47.3358 20.2014L46.3325 22.4231C46.3325 22.4231 47.1387 26.8216 45.141 30.396" stroke="#609E45" stroke-width="1.5" stroke-linecap="round" stroke-linejoin="round"/>
<path d="M308.104 -553.688H-310.021V64.4375H308.104V-553.688Z" stroke="#609E45" stroke-width="1.5" stroke-linecap="round" stroke-linejoin="round"/>
</g>
</svg>
