<svg width="46" height="46" viewBox="0 0 46 46" fill="none" xmlns="http://www.w3.org/2000/svg">
<g clip-path="url(#clip0_39_10)">
<path opacity="0.1" d="M23 46C35.7025 46 46 35.7025 46 23C46 10.2975 35.7025 0 23 0C10.2975 0 0 10.2975 0 23C0 35.7025 10.2975 46 23 46Z" fill="#609E45"/>
<path d="M25.667 16.3335H28.7833C29.1095 16.3335 29.2725 16.3335 29.426 16.3703C29.562 16.403 29.6921 16.4569 29.8114 16.53C29.9459 16.6124 30.0612 16.7277 30.2918 16.9583L35.7088 22.3753C35.9394 22.6059 36.0547 22.7212 36.1372 22.8558C36.2103 22.9751 36.2642 23.1051 36.2968 23.2412C36.3337 23.3946 36.3337 23.5577 36.3337 23.8838V27.6668C36.3337 28.2881 36.3337 28.5987 36.2322 28.8437C36.0968 29.1704 35.8373 29.43 35.5106 29.5653C35.2655 29.6668 34.9549 29.6668 34.3337 29.6668M27.667 29.6668H25.667M25.667 29.6668V16.6002C25.667 15.1067 25.667 14.3599 25.3763 13.7895C25.1207 13.2878 24.7127 12.8798 24.211 12.6241C23.6405 12.3335 22.8938 12.3335 21.4003 12.3335H13.9337C12.4402 12.3335 11.6935 12.3335 11.123 12.6241C10.6213 12.8798 10.2133 13.2878 9.95764 13.7895C9.66699 14.3599 9.66699 15.1067 9.66699 16.6002V27.0002C9.66699 28.4729 10.8609 29.6668 12.3337 29.6668M25.667 29.6668H20.3337M12.3337 29.6668C12.3337 31.876 14.1245 33.6668 16.3337 33.6668C18.5428 33.6668 20.3337 31.876 20.3337 29.6668M12.3337 29.6668C12.3337 27.4577 14.1245 25.6668 16.3337 25.6668C18.5428 25.6668 20.3337 27.4577 20.3337 29.6668M34.3337 30.3335C34.3337 32.1744 32.8413 33.6668 31.0003 33.6668C29.1594 33.6668 27.667 32.1744 27.667 30.3335C27.667 28.4925 29.1594 27.0002 31.0003 27.0002C32.8413 27.0002 34.3337 28.4925 34.3337 30.3335Z" stroke="#609E45" stroke-linecap="round" stroke-linejoin="round"/>
</g>
<defs>
<clipPath id="clip0_39_10">
<rect width="46" height="46" fill="white"/>
</clipPath>
</defs>
</svg>
