<svg width="1715" height="680" viewBox="0 0 1715 680" fill="none" xmlns="http://www.w3.org/2000/svg">
<mask id="mask0_3_26" style="mask-type:luminance" maskUnits="userSpaceOnUse" x="27" y="588" width="20" height="13">
<path d="M47 588H27V601H47V588Z" fill="white"/>
<path d="M35.4296 599.376H29.1296L33.1616 589.728H37.3016L35.4296 599.376ZM43.6016 599.376H37.3376L41.3696 589.728H45.4736L43.6016 599.376Z" fill="black"/>
</mask>
<g mask="url(#mask0_3_26)">
<path d="M35.4298 599.376V600.376H36.2544L36.4115 599.566L35.4298 599.376ZM29.1298 599.376L28.2072 598.99L27.6281 600.376H29.1298V599.376ZM33.1618 589.728V588.728H32.4959L32.239 589.342L33.1618 589.728ZM37.3018 589.728L38.2835 589.918L38.5145 588.728H37.3018V589.728ZM43.6018 599.376V600.376H44.4264L44.5835 599.566L43.6018 599.376ZM37.3378 599.376L36.4152 598.99L35.8361 600.376H37.3378V599.376ZM41.3698 589.728V588.728H40.7039L40.4472 589.342L41.3698 589.728ZM45.4738 589.728L46.4555 589.918L46.6865 588.728H45.4738V589.728ZM35.4298 598.376H29.1298V600.376H35.4298V598.376ZM30.0525 599.762L34.0845 590.114L32.239 589.342L28.2072 598.99L30.0525 599.762ZM33.1618 590.728H37.3018V588.728H33.1618V590.728ZM36.3201 589.538L34.4481 599.186L36.4115 599.566L38.2835 589.918L36.3201 589.538ZM43.6018 598.376H37.3378V600.376H43.6018V598.376ZM38.2605 599.762L42.2925 590.114L40.4472 589.342L36.4152 598.99L38.2605 599.762ZM41.3698 590.728H45.4738V588.728H41.3698V590.728ZM44.4921 589.538L42.6201 599.186L44.5835 599.566L46.4555 589.918L44.4921 589.538Z" fill="#609E45"/>
</g>
<mask id="mask1_3_26" style="mask-type:luminance" maskUnits="userSpaceOnUse" x="1676" y="141" width="32" height="20">
<path d="M1708 141H1676V161H1708V141Z" fill="white"/>
<path d="M1688.82 159.224H1677.62L1684.79 142.072H1692.15L1688.82 159.224ZM1703.35 159.224H1692.21L1699.38 142.072H1706.68L1703.35 159.224Z" fill="black"/>
</mask>
<g mask="url(#mask1_3_26)">
<path d="M1688.82 159.224V160.224H1689.65L1689.8 159.414L1688.82 159.224ZM1677.62 159.224L1676.7 158.838L1676.12 160.224H1677.62V159.224ZM1684.79 142.072V141.072H1684.12L1683.87 141.686L1684.79 142.072ZM1692.15 142.072L1693.13 142.262L1693.36 141.072H1692.15V142.072ZM1703.35 159.224V160.224H1704.17L1704.33 159.414L1703.35 159.224ZM1692.21 159.224L1691.29 158.838L1690.71 160.224H1692.21V159.224ZM1699.38 142.072V141.072H1698.71L1698.46 141.686L1699.38 142.072ZM1706.68 142.072L1707.66 142.262L1707.89 141.072H1706.68V142.072ZM1688.82 158.224H1677.62V160.224H1688.82V158.224ZM1678.54 159.61L1685.71 142.458L1683.87 141.686L1676.7 158.838L1678.54 159.61ZM1684.79 143.072H1692.15V141.072H1684.79V143.072ZM1691.17 141.882L1687.84 159.034L1689.8 159.414L1693.13 142.262L1691.17 141.882ZM1703.35 158.224H1692.21V160.224H1703.35V158.224ZM1693.14 159.61L1700.3 142.458L1698.46 141.686L1691.29 158.838L1693.14 159.61ZM1699.38 143.072H1706.68V141.072H1699.38V143.072ZM1705.69 141.882L1702.37 159.034L1704.33 159.414L1707.66 142.262L1705.69 141.882Z" fill="#609E45"/>
</g>
<path d="M1655.5 679.5C1658.26 679.5 1660.5 677.261 1660.5 674.5C1660.5 671.739 1658.26 669.5 1655.5 669.5C1652.74 669.5 1650.5 671.739 1650.5 674.5C1650.5 677.261 1652.74 679.5 1655.5 679.5Z" stroke="#609E45"/>
<path d="M28.4098 132.818L15.8201 118.588L1.58991 131.178L14.1797 145.408L28.4098 132.818Z" stroke="#609E45"/>
</svg>
