<svg width="59" height="59" viewBox="0 0 59 59" fill="none" xmlns="http://www.w3.org/2000/svg">
<g clip-path="url(#clip0_5_27)">
<path d="M29.501 59C45.7934 59 59.001 45.7924 59.001 29.5C59.001 13.2076 45.7934 0 29.501 0C13.2086 0 0.000976562 13.2076 0.000976562 29.5C0.000976562 45.7924 13.2086 59 29.501 59Z" fill="#609E45"/>
<mask id="mask0_5_27" style="mask-type:luminance" maskUnits="userSpaceOnUse" x="12" y="19" width="36" height="21">
<path d="M12.001 40H47.001V19H12.001V40Z" fill="white"/>
</mask>
<g mask="url(#mask0_5_27)">
<path d="M15.0861 36.9191L15.0761 36.9084L15.0655 36.8982L15.0185 36.8524C14.2803 36.1189 13.6993 35.2516 13.3082 34.3008C12.9166 33.349 12.7226 32.3318 12.7369 31.3078L12.737 31.2973C12.737 28.439 13.8961 25.7981 16.3043 23.3561C18.197 21.4368 20.262 20.2976 22.511 19.9018C20.9786 21.0847 19.9588 22.3858 19.5489 23.8272L19.2773 24.7823H20.2703H20.5684C22.4554 24.7807 24.2697 25.4788 25.6423 26.7295C26.693 27.6866 27.435 28.9167 27.7822 30.2704C28.1293 31.6237 28.0679 33.0455 27.6049 34.366C27.1874 35.5459 26.4621 36.6026 25.4975 37.4317C24.5326 38.2612 23.3615 38.8343 22.098 39.0931C20.8344 39.3519 19.5234 39.2871 18.2937 38.9053C17.064 38.5236 15.9592 37.8385 15.0861 36.9191Z" stroke="white" stroke-width="1.5"/>
</g>
<mask id="mask1_5_27" style="mask-type:luminance" maskUnits="userSpaceOnUse" x="30" y="19" width="35" height="21">
<path d="M30 40H65V19H30V40Z" fill="white"/>
</mask>
<g mask="url(#mask1_5_27)">
<path d="M33.0851 36.9191L33.0751 36.9084L33.0645 36.8982L33.0175 36.8524C32.2793 36.1189 31.6983 35.2516 31.3072 34.3008C30.9156 33.349 30.7216 32.3318 30.7359 31.3078L30.736 31.2973C30.736 28.439 31.8951 25.7981 34.3033 23.3561C36.196 21.4368 38.261 20.2976 40.51 19.9018C38.9776 21.0847 37.9578 22.3858 37.5479 23.8272L37.2763 24.7823H38.2693H38.5674C40.4544 24.7807 42.2687 25.4788 43.6413 26.7295C44.692 27.6866 45.434 28.9167 45.7812 30.2704C46.1283 31.6237 46.0669 33.0455 45.6039 34.366C45.1864 35.5459 44.4611 36.6026 43.4965 37.4317C42.5316 38.2612 41.3605 38.8343 40.097 39.0931C38.8334 39.3519 37.5224 39.2871 36.2927 38.9053C35.063 38.5236 33.9582 37.8385 33.0851 36.9191Z" stroke="white" stroke-width="1.5"/>
</g>
</g>
<defs>
<clipPath id="clip0_5_27">
<rect width="59" height="59" fill="white"/>
</clipPath>
</defs>
</svg>
