<svg width="225" height="133" viewBox="0 0 225 133" fill="none" xmlns="http://www.w3.org/2000/svg">
<mask id="path-1-outside-1_1_708" maskUnits="userSpaceOnUse" x="-0.999023" y="-1" width="227" height="135" fill="black">
<rect fill="white" x="-0.999023" y="-1" width="227" height="135"/>
<path d="M87.1653 132.156H0.93804L56.1235 0.105428H112.787L87.1653 132.156ZM199.014 132.156H113.28L168.465 0.105428H224.636L199.014 132.156Z"/>
</mask>
<path d="M87.1653 132.156V133.156H87.9899L88.147 132.347L87.1653 132.156ZM0.93804 132.156L0.0153713 131.771L-0.563683 133.156H0.93804V132.156ZM56.1235 0.105423V-0.894577H55.4576L55.2008 -0.280167L56.1235 0.105423ZM112.787 0.105423L113.769 0.295898L114 -0.894577H112.787V0.105423ZM199.014 132.156V133.156H199.839L199.996 132.347L199.014 132.156ZM113.28 132.156L112.357 131.771L111.778 133.156H113.28V132.156ZM168.465 0.105423V-0.894577H167.799L167.543 -0.280167L168.465 0.105423ZM224.636 0.105423L225.618 0.295898L225.849 -0.894577H224.636V0.105423ZM87.1653 131.156H0.93804V133.156H87.1653V131.156ZM1.86071 132.542L57.0462 0.491028L55.2008 -0.280167L0.0153713 131.771L1.86071 132.542ZM56.1235 1.10542H112.787V-0.894577H56.1235V1.10542ZM111.805 -0.0850525L86.1836 131.966L88.147 132.347L113.769 0.295898L111.805 -0.0850525ZM199.014 131.156H113.28V133.156H199.014V131.156ZM114.203 132.542L169.388 0.491028L167.543 -0.280167L112.357 131.771L114.203 132.542ZM168.465 1.10542H224.636V-0.894577H168.465V1.10542ZM223.655 -0.0850525L198.033 131.966L199.996 132.347L225.618 0.295898L223.655 -0.0850525Z" fill="#609E45" mask="url(#path-1-outside-1_1_708)"/>
</svg>
