<svg width="31" height="30" viewBox="0 0 31 30" fill="none" xmlns="http://www.w3.org/2000/svg">
<path d="M15.6001 29.5894C23.6576 29.5894 30.1896 23.0575 30.1896 15C30.1896 6.94254 23.6576 0.410645 15.6001 0.410645C7.54259 0.410645 1.01074 6.94254 1.01074 15C1.01074 23.0575 7.54259 29.5894 15.6001 29.5894Z" stroke="white" stroke-width="0.821138"/>
<path d="M23.9999 10.7683C23.4299 11.0158 22.7999 11.194 22.1599 11.2633C22.8299 10.8666 23.3299 10.24 23.5599 9.5008C22.9399 9.8736 22.2499 10.1349 21.5399 10.2733C21.2399 9.9535 20.8698 9.6987 20.4698 9.5248C20.0698 9.351 19.6398 9.2617 19.1998 9.2627C17.4298 9.2627 15.9999 10.699 15.9999 12.4615C15.9999 12.709 16.0298 12.9565 16.0798 13.1946C13.4298 13.0558 11.0599 11.7883 9.48987 9.8477C9.19987 10.3373 9.04993 10.8948 9.04993 11.4621C9.04993 12.5721 9.61986 13.5508 10.4799 14.1265C9.96986 14.1065 9.47991 13.9671 9.02991 13.7196V13.759C9.02991 15.3133 10.1299 16.6015 11.5999 16.8977C11.3199 16.9691 11.0399 17.0057 10.7499 17.0065C10.5499 17.0065 10.3499 16.9858 10.1499 16.9577C10.5599 18.2252 11.7299 19.1458 13.1399 19.1758C12.0399 20.0365 10.6599 20.5427 9.16992 20.5427C8.89992 20.5427 8.6499 20.5333 8.3999 20.5033C9.8099 21.4127 11.4999 21.9377 13.3099 21.9377C19.1899 21.9377 22.4099 17.0665 22.4099 12.8383C22.4099 12.6996 22.4099 12.5608 22.3999 12.4221C23.0199 11.9665 23.5599 11.4021 23.9999 10.7683Z" fill="white"/>
</svg>
